<svg xmlns="http://www.w3.org/2000/svg" width="66.208" height="185.833" viewBox="0 0 66.208 185.833">
  <g id="Arrow_02" transform="translate(-59.851)">
    <path id="Path_451" data-name="Path 451" d="M70.719.494C60.656,16.543,58.077,39.06,60.953,62.287c4.3,34.7,20.756,70.979,42.179,89.451a1.067,1.067,0,0,0,1.49-.112,1.049,1.049,0,0,0-.111-1.49C83.423,131.948,67.283,96.2,63.055,62.024c-2.815-22.7-.385-44.72,9.459-60.4a1.055,1.055,0,0,0-.335-1.46A1.066,1.066,0,0,0,70.719.494Z" fill-rule="evenodd"/>
    <path id="Path_452" data-name="Path 452" d="M121.323,179.966c-11.862-11.335-21.128-22.487-37.309-29.027a1.058,1.058,0,0,0-1.379.588,1.045,1.045,0,0,0,.578,1.369c17.8,7.2,27.069,20.115,40.908,32.565a1.123,1.123,0,0,0,1.521.141,1.021,1.021,0,0,0,.4-1.054,2.576,2.576,0,0,0-.233-.608c-.284-.538-.953-1.582-1.206-2.079-.72-1.439-1.4-2.889-2.119-4.329-2.058-4.116-4.066-8.242-5.769-12.51-6.4-15.958-11.73-28.966-5.12-45.491a1.055,1.055,0,1,0-1.956-.791c-6.844,17.093-1.5,30.567,5.109,47.072,1.734,4.319,3.762,8.506,5.84,12.663C120.837,178.972,121.08,179.469,121.323,179.966Z" fill-rule="evenodd"/>
  </g>
</svg>
