<svg xmlns="http://www.w3.org/2000/svg" xmlns:xlink="http://www.w3.org/1999/xlink" width="1920" height="1032" viewBox="0 0 1920 1032">
  <defs>
    <clipPath id="clip-path">
      <rect id="Rectangle_56" data-name="Rectangle 56" width="1920" height="1032" fill="#fff" stroke="#707070" stroke-width="1"/>
    </clipPath>
  </defs>
  <g id="Mask_Group_1" data-name="Mask Group 1" clip-path="url(#clip-path)">
    <g id="Group_5" data-name="Group 5">
      <path id="Path_459" data-name="Path 459" d="M1951.917,1010.239s-279.464,21.89-536.757-100.7-776.6,91.939-797.843,100.7-87.338,43.781-250.211,0-335.189,0-335.189,0V0h1920Z" transform="translate(-31.917)" fill="#fee8b2"/>
      <path id="Elements-geometric-shape-flower-marigold-nature" d="M121.755,1.347c-5.168-1.667-8.331-1.667-13.5,0-12.609,4.066-12.061,29.8-8.165,55.188C90.225,32.693,77.285,10.172,64.26,12.75c-5.339,1.057-8.074,2.585-11.676,6.525-8.661,9.475,4.712,30.982,21,50.824-20.641-15.641-43-28.472-52.825-20.111-4.084,3.477-5.665,6.114-6.751,11.257-2.63,12.462,20.45,24.791,45.043,34.213-26.19-3.682-52.58-4.12-56.774,7.939-1.731,4.977-1.731,8.022,0,13,4.194,12.059,30.583,11.621,56.774,7.939-24.593,9.422-47.673,21.751-45.043,34.212,1.086,5.144,2.667,7.781,6.751,11.258,9.82,8.361,32.184-4.469,52.825-20.111-16.289,19.842-29.661,41.349-21,50.823,3.6,3.94,6.337,5.469,11.676,6.525,13.025,2.577,25.966-19.944,35.831-43.787-3.9,25.39-4.443,51.124,8.165,55.19,5.168,1.666,8.331,1.666,13.5,0,12.609-4.067,12.062-29.8,8.165-55.191,9.865,23.843,22.806,46.365,35.831,43.788,5.339-1.057,8.074-2.585,11.675-6.525,8.661-9.475-4.711-30.981-21-50.823,20.641,15.642,43,28.471,52.825,20.111,4.084-3.476,5.665-6.114,6.75-11.258,2.63-12.462-20.45-24.791-45.043-34.212,26.19,3.682,52.579,4.12,56.773-7.939,1.731-4.977,1.731-8.023,0-13-4.194-12.059-30.582-11.621-56.773-7.939C195.552,86.036,218.632,73.707,216,61.245c-1.085-5.144-2.667-7.781-6.751-11.257-9.82-8.361-32.184,4.469-52.825,20.111,16.289-19.841,29.662-41.349,21-50.824-3.6-3.94-6.337-5.469-11.676-6.525-13.025-2.578-25.966,19.944-35.831,43.787C133.817,31.147,134.364,5.413,121.755,1.347Z" transform="translate(1638.914 223.103)" fill="#0d699d" opacity="0.6"/>
      <path id="Elements-geometric-shape-flower-2-nature" d="M301.022,562.18c-46.81,0-85.309-33.4-89.92-76.206-35.5,27.2-87.887,25.269-120.986-5.8s-35.16-80.249-6.182-113.576c-45.594-4.33-81.179-40.471-81.179-84.414S38.339,202.1,83.933,197.767c-28.979-33.327-26.918-82.5,6.182-113.577S175.6,51.183,211.1,78.387c4.611-42.8,43.11-76.207,89.92-76.207s85.309,33.405,89.922,76.207c35.5-27.2,87.886-25.269,120.986,5.8s35.161,80.25,6.182,113.577c45.594,4.329,81.178,40.47,81.178,84.413s-35.584,80.084-81.178,84.414c28.979,33.327,26.918,82.5-6.182,113.576s-85.485,33.006-120.986,5.8C386.333,528.776,347.833,562.18,301.022,562.18Z" transform="translate(-179.147 -22.18)" fill="rgba(254,209,99,0.66)"/>
    </g>
  </g>
</svg>
