<svg xmlns="http://www.w3.org/2000/svg" xmlns:xlink="http://www.w3.org/1999/xlink" width="642.033" height="503.424" viewBox="0 0 642.033 503.424">
  <defs>
    <linearGradient id="linear-gradient" x1="0.582" y1="0.813" x2="-0.12" y2="-0.888" gradientUnits="objectBoundingBox">
      <stop offset="0" stop-color="#010101" stop-opacity="0"/>
      <stop offset="0.54" stop-color="#010101" stop-opacity="0.541"/>
      <stop offset="0.95" stop-color="#010101"/>
    </linearGradient>
    <linearGradient id="linear-gradient-2" x1="0.385" y1="0.957" x2="0.806" y2="-0.658" gradientUnits="objectBoundingBox">
      <stop offset="0" stop-color="#010101" stop-opacity="0"/>
      <stop offset="0.95" stop-color="#010101"/>
    </linearGradient>
    <linearGradient id="linear-gradient-3" x1="0.447" y1="-3.272" x2="0.621" y2="9.058" xlink:href="#linear-gradient-2"/>
    <linearGradient id="linear-gradient-4" x1="0.455" y1="-2.699" x2="0.629" y2="9.63" xlink:href="#linear-gradient-2"/>
    <linearGradient id="linear-gradient-5" x1="0.437" y1="-3.977" x2="0.611" y2="8.353" xlink:href="#linear-gradient-2"/>
    <linearGradient id="linear-gradient-6" x1="0.444" y1="-3.465" x2="0.618" y2="8.865" xlink:href="#linear-gradient-2"/>
    <linearGradient id="linear-gradient-7" x1="0.426" y1="-4.734" x2="0.601" y2="7.599" xlink:href="#linear-gradient-2"/>
    <linearGradient id="linear-gradient-8" x1="0.403" y1="-6.314" x2="0.578" y2="6.015" xlink:href="#linear-gradient-2"/>
    <linearGradient id="linear-gradient-9" x1="0.426" y1="-4.743" x2="0.6" y2="7.586" xlink:href="#linear-gradient-2"/>
    <linearGradient id="linear-gradient-10" x1="0.448" y1="-5.572" x2="0.667" y2="20.045" xlink:href="#linear-gradient-2"/>
    <linearGradient id="linear-gradient-11" x1="0.455" y1="-4.745" x2="0.674" y2="20.89" xlink:href="#linear-gradient-2"/>
    <linearGradient id="linear-gradient-12" x1="0.44" y1="-6.556" x2="0.659" y2="19.066" xlink:href="#linear-gradient-2"/>
    <linearGradient id="linear-gradient-13" x1="0.446" y1="-5.809" x2="0.665" y2="19.807" xlink:href="#linear-gradient-2"/>
    <linearGradient id="linear-gradient-14" x1="0.431" y1="-7.573" x2="0.65" y2="18.005" xlink:href="#linear-gradient-2"/>
    <linearGradient id="linear-gradient-15" x1="0.412" y1="-9.813" x2="0.631" y2="15.765" xlink:href="#linear-gradient-2"/>
    <linearGradient id="linear-gradient-16" x1="0.43" y1="-7.624" x2="0.65" y2="18.002" xlink:href="#linear-gradient-2"/>
    <linearGradient id="linear-gradient-17" x1="0.525" y1="0.511" x2="0.482" y2="0.416" gradientUnits="objectBoundingBox">
      <stop offset="0" stop-color="#fff" stop-opacity="0"/>
      <stop offset="0.95" stop-color="#fff"/>
    </linearGradient>
    <linearGradient id="linear-gradient-18" x1="-0.165" y1="0.484" x2="6.62" y2="0.647" xlink:href="#linear-gradient-2"/>
    <linearGradient id="linear-gradient-19" x1="0.446" y1="0.393" x2="1.527" y2="1.693" xlink:href="#linear-gradient-2"/>
    <linearGradient id="linear-gradient-20" x1="0.048" y1="0.038" x2="1.331" y2="1.611" xlink:href="#linear-gradient-2"/>
    <linearGradient id="linear-gradient-21" x1="0.084" y1="-0.172" x2="2.844" y2="4.151" xlink:href="#linear-gradient-17"/>
    <linearGradient id="linear-gradient-22" x1="0" y1="0.5" x2="0.999" y2="0.5" xlink:href="#linear-gradient-2"/>
    <linearGradient id="linear-gradient-23" x1="-0.003" y1="0.495" x2="1.003" y2="0.495" xlink:href="#linear-gradient-2"/>
    <linearGradient id="linear-gradient-24" x1="3.22" y1="4.091" x2="4.27" y2="4.091" xlink:href="#linear-gradient-2"/>
    <linearGradient id="linear-gradient-25" x1="1.465" y1="0.906" x2="2.458" y2="0.906" xlink:href="#linear-gradient-17"/>
    <linearGradient id="linear-gradient-26" x1="3.14" y1="2.134" x2="3.49" y2="4.726" xlink:href="#linear-gradient-2"/>
    <linearGradient id="linear-gradient-27" x1="2.579" y1="2.411" x2="3.644" y2="0.625" xlink:href="#linear-gradient-2"/>
  </defs>
  <g id="CreativeProcess1" transform="translate(-0.002 0.004)">
    <path id="Path_153" data-name="Path 153" d="M79.65,143.42c-19.27,41.43-49,78-64.53,120.89S2.63,362.08,39.58,389.68c39.08,29.19,96.34,15.39,141.62,34.11,35.26,14.58,59.45,47.28,93,65.33,16.67,9,35.24,14.07,54,17.27,97.77,16.69,199.47-18.5,278.2-77.74,11.5-8.65,22.8-18,30.47-30.08C656.44,367.76,648,327.32,633.28,294S598,228.69,594.35,192.55c-3.44-34.14,7.81-72.49-12.41-100.49-22.58-31.27-70.3-29.82-108-19.55s-77.76,26-114.3,12.43C303.81,64.16,262.47,5.29,195.61,7.16,125.12,9.14,103.09,93,79.65,143.42Z" transform="translate(-6.28 -7.12)" fill="#ee885e" opacity="0.24"/>
    <path id="Path_154" data-name="Path 154" d="M334,157.18a19.58,19.58,0,0,1-2.66,11.21c-4.16,7.52-12.67,13.1-21.28,15.33-12.56,3.21-25.81,1.64-38.66,3.36a75.39,75.39,0,0,0-33.29,13.06c-10.69,7.56-22,18.58-34.68,15-10.77-3-15.77-18.14-8.9-27a101.66,101.66,0,0,0-49.9,6.68c-6.32,2.55-12.52,5.8-19.31,6.24s-14.46-2.88-16.28-9.42c-2.08-7.37,4.09-14.71,11-18.1a80.838,80.838,0,0,1,11-4.09A49.831,49.831,0,0,0,141.26,165a19.321,19.321,0,0,0,4.38-3.72c4-4.49,6-10.73,2.88-15.63a14.54,14.54,0,0,0-7-5.36c-8.84-3.54-18.95-1.9-28.15-4.35s-17.81-13-12.52-21c4.68-6.93,14.35-6.71,25.15-5,11.72,1.82,24.72,5.44,34,3.54h0c5.51-1.13,9.71-4.2,11.57-10.73,3.25-11.46-16.46-27.93.62-36.8,11-5.69,23.07,9.42,34.68,4.53,8.21-3.47,9.38-14.42,9.71-23.33s3-20,11.75-21.79c6.43-1.31,12.74,3.94,15,10.11a23.82,23.82,0,0,1,1.35,6.17A62.618,62.618,0,0,1,244.27,55c-.33,3.25-.62,6.68.8,9.57,2.34,4.74,7.41,5.73,12.63,4.52a25.5,25.5,0,0,0,12-6.68c6.78-6.86,13.68-16.31,23.32-15.36,6.61.65,10.7,5.84,12.52,12.34a33,33,0,0,1,.18,16.75c-3.06,11.68-9.71,23.43-6.53,35.08C304.35,130.28,332.64,137.54,334,157.18Z" transform="translate(-6.28 -7.12)" fill="#ee885e"/>
    <path id="Path_155" data-name="Path 155" d="M334,157.18a19.58,19.58,0,0,1-2.66,11.21,42.942,42.942,0,0,1-7.59,2.33c-12.56,2.63-25.81,1.35-38.66,2.74a86.08,86.08,0,0,0-33.29,10.66c-10.7,6.13-22,15.11-34.64,12.26-10.77-2.44-15.81-14.78-9-22a122.82,122.82,0,0,0-49.89,5.44c-6.28,2.08-12.52,4.71-19.31,5.07s-14.24,3.18-16.07-2.12c-1.78-5.14,2.45-10.22,8-13.28a17.679,17.679,0,0,1,3-1.46,70.731,70.731,0,0,0,11.75-6.79A94.5,94.5,0,0,1,155,155.5c6.5-3.28,11.28-10.48,7.23-15.77-1.57-2.08-4.23-3.47-7-4.38-8.87-2.88-18.94-1.53-28.14-3.54s-17.85-10.59-12.56-17c2.52-3.06,6.57-4.41,11.46-4.74,11.72,1.82,24.72,5.44,34,3.54h0c11.86,1.28,22.09.47,25.3-8.73s-16.5-22.7.58-29.93c11-4.63,23.11,7.67,34.68,3.69,8.25-2.85,9.38-11.75,9.75-19s2.98-16.39,11.7-17.81a11.21,11.21,0,0,1,2.7-.11A62.619,62.619,0,0,1,244.27,55c-.33,3.25-.62,6.68.8,9.57,2.34,4.74,7.41,5.73,12.63,4.52a8.59,8.59,0,0,0,1.1,4.64c4.27,7,17.81,3.83,24.6-1.79,6.5-5.36,13.07-12.66,22.12-12.55a33,33,0,0,1,.18,16.75c-3.06,11.68-9.71,23.43-6.53,35.08C304.35,130.28,332.64,137.54,334,157.18Z" transform="translate(-6.28 -7.12)" fill="url(#linear-gradient)"/>
    <path id="Path_156" data-name="Path 156" d="M176.33,45.27c-2.71-2.27-5.17-5.52-4.64-9a6.28,6.28,0,0,1,8.85-4.79c3.21,1.47,4.61,5.37,4.62,8.91,0,1.87.14,7.63-1.88,8.56S177.68,46.4,176.33,45.27Z" transform="translate(-6.28 -7.12)" fill="#ee885e"/>
    <path id="Path_157" data-name="Path 157" d="M104,146.81a5.18,5.18,0,0,0-2.76,2.83c-2,4-1.66,9.56,1.95,12.21,5.58,4.09,16,3.13,16.79-5C120.67,150,109.85,144.92,104,146.81Z" transform="translate(-6.28 -7.12)" fill="#ee885e"/>
    <path id="Path_158" data-name="Path 158" d="M153.11,37.23c-.23-1.84-1.85-3.15-3.35-4.25-2.6-1.91-6.23-3.84-8.78-1.85-1.72,1.34-1.92,4-1.06,6a15,15,0,0,0,4.19,5,11.32,11.32,0,0,0,4.3,2.77c1.67.44,3.73-.09,4.47-1.64s.41-4.06,2.1-4.37" transform="translate(-6.28 -7.12)" fill="#ee885e"/>
    <path id="Path_159" data-name="Path 159" d="M107.49,82.88A3.87,3.87,0,0,0,101,84.4c-.58,1.8.23,3.77,1.39,5.26a5.37,5.37,0,0,0,3.21,2.19c2.28.33,4.31-1.8,4.81-4a5.11,5.11,0,0,0-.41-3.63,3.19,3.19,0,0,0-3-1.7" transform="translate(-6.28 -7.12)" fill="#ee885e"/>
    <path id="Path_160" data-name="Path 160" d="M152.14,55.94a2.64,2.64,0,0,0-4.4,1,4,4,0,0,0,.95,3.58,3.61,3.61,0,0,0,2.19,1.49c1.55.23,2.93-1.22,3.27-2.75a3.41,3.41,0,0,0-.28-2.47,2.19,2.19,0,0,0-2.1-1.13" transform="translate(-6.28 -7.12)" fill="#ee885e"/>
    <path id="Path_161" data-name="Path 161" d="M245.86,383.18c32.85-2.07,70.78.32,91,26.31,7.86,10.11,12.06,22.86,20.87,32.16,17.23,18.22,45.83,17.85,70.85,16.16,26.3-1.77,55.17-4.68,73.47-23.66,24.27-25.17,21.44-70.47,50.17-90.4,11.55-8,26.09-10.12,38.9-15.89s25-18.2,22.32-32c-2.94-15.21-21-21.45-36.15-24.49a909.6,909.6,0,0,0-331.48-4.47c-28.44,4.89-57.88,11.72-80,30.25-17.94,15-38.84,53.15-18.46,73.51C168.24,391.56,220.07,384.81,245.86,383.18Z" transform="translate(-6.28 -7.12)" fill="#ee885e" opacity="0.24"/>
    <path id="Path_162" data-name="Path 162" d="M221.58,233.93c188-44.79,281.65,47.72,290.49,114.31,7.39,55.64-19.32,133.11-117.85,108.42C319.78,438,383.42,381.43,319,368.08c-48.31-10-144.54,1.58-184.89-21.68C129.78,343.9,33.61,278.71,221.58,233.93Z" transform="translate(-6.28 -7.12)" fill="#ee885e"/>
    <path id="Path_163" data-name="Path 163" d="M221.58,233.93c188-44.79,281.65,47.72,290.49,114.31,7.39,55.64-19.32,133.11-117.85,108.42C319.78,438,383.42,381.43,319,368.08c-49-10.17-147.42,1.92-186.65-22.74C128.77,343.09,33.61,278.71,221.58,233.93Z" transform="translate(-6.28 -7.12)" fill="url(#linear-gradient-2)"/>
    <path id="Path_164" data-name="Path 164" d="M123.17,321.13s-89.56-58.92,98.41-103.7,281.65,47.73,290.49,114.31c7.39,55.64-19.32,133.12-117.85,108.42-74.44-18.66-10.8-75.23-75.22-88.58C265.5,340.49,153.23,355.9,123.17,321.13Z" transform="translate(-6.28 -7.12)" fill="#ee885e"/>
    <path id="Path_165" data-name="Path 165" d="M224.67,260.74a10.14,10.14,0,0,1-1.5,5.94c-4.06,7.37-16.33,13.27-31.14,14.15-15.53,1-29-3.89-33.32-11.3a10.25,10.25,0,0,1-1.51-4.69c-.58-10,14-19,32.65-20.09S224.05,250.78,224.67,260.74Z" transform="translate(-6.28 -7.12)" fill="url(#linear-gradient-3)"/>
    <path id="Path_166" data-name="Path 166" d="M328.35,237.17a10.54,10.54,0,0,1-1.47,6h0c-4.1,7.37-16.32,13.22-31.14,14.1-15.52,1-29-3.89-33.31-11.3a9.62,9.62,0,0,1-1.51-4.68c-.59-10,14-19,32.61-20.1S327.76,227.21,328.35,237.17Z" transform="translate(-6.28 -7.12)" fill="url(#linear-gradient-4)"/>
    <path id="Path_167" data-name="Path 167" d="M303.24,284.3a10.27,10.27,0,0,1-1.51,5.95c-4.06,7.36-16.32,13.26-31.14,14.14-15.53,1-29-3.89-33.32-11.3a10,10,0,0,1-1.5-4.69c-.59-10,14-19,32.64-20.09S302.61,274.34,303.24,284.3Z" transform="translate(-6.28 -7.12)" fill="url(#linear-gradient-5)"/>
    <path id="Path_168" data-name="Path 168" d="M416.37,262.7a10.18,10.18,0,0,1-1.51,5.95c-4.06,7.36-16.32,13.27-31.14,14.15-15.52,1-29-3.9-33.31-11.31a10.06,10.06,0,0,1-1.51-4.68c-.59-10,14-19,32.65-20.09S415.74,252.74,416.37,262.7Z" transform="translate(-6.28 -7.12)" fill="url(#linear-gradient-6)"/>
    <path id="Path_169" data-name="Path 169" d="M485.89,306.9a10.459,10.459,0,0,1-1.46,6c-4.1,7.36-16.37,13.27-31.18,14.14-15.57,1-29-3.89-33.32-11.34a10,10,0,0,1-1.47-4.64c-.62-10,14-19,32.61-20.09S485.26,296.94,485.89,306.9Z" transform="translate(-6.28 -7.12)" fill="url(#linear-gradient-7)"/>
    <path id="Path_170" data-name="Path 170" d="M455,365.25a10.48,10.48,0,0,1-1.46,5.94c-4.06,7.37-16.33,13.27-31.14,14.15-15.57,1-29.05-3.89-33.36-11.34a10,10,0,0,1-1.47-4.65c-.62-10,14-19,32.61-20.09S454.38,355.29,455,365.25Z" transform="translate(-6.28 -7.12)" fill="url(#linear-gradient-8)"/>
    <path id="Path_171" data-name="Path 171" d="M391.22,309.83a10.27,10.27,0,0,1-1.51,5.95c-4.06,7.36-16.32,13.27-31.1,14.14-15.57,1-29.05-3.89-33.36-11.34a9.84,9.84,0,0,1-1.46-4.64c-.63-10,14-18.92,32.6-20.09S390.59,299.87,391.22,309.83Z" transform="translate(-6.28 -7.12)" fill="url(#linear-gradient-9)"/>
    <path id="Path_172" data-name="Path 172" d="M223.17,266.68c-4.06,7.37-16.33,13.27-31.14,14.15-15.53,1-29-3.89-33.32-11.3,4.06-7.37,16.32-13.27,31.14-14.15C205.38,254.42,218.81,259.27,223.17,266.68Z" transform="translate(-6.28 -7.12)" fill="#ee885e"/>
    <path id="Path_173" data-name="Path 173" d="M326.88,243.12h0c-4.1,7.37-16.32,13.22-31.14,14.1-15.52,1-29-3.89-33.31-11.3,4.06-7.36,16.28-13.27,31.1-14.14C309.1,230.85,322.53,235.71,326.88,243.12Z" transform="translate(-6.28 -7.12)" fill="#ee885e"/>
    <path id="Path_174" data-name="Path 174" d="M301.73,290.25c-4.06,7.36-16.32,13.26-31.14,14.14-15.53,1-29-3.89-33.32-11.3,4.06-7.36,16.33-13.27,31.14-14.15C283.94,278,297.38,282.84,301.73,290.25Z" transform="translate(-6.28 -7.12)" fill="#ee885e"/>
    <path id="Path_175" data-name="Path 175" d="M414.86,268.65c-4.06,7.36-16.32,13.27-31.14,14.15-15.52,1-29-3.9-33.31-11.31,4.06-7.36,16.32-13.26,31.14-14.14C397.08,256.38,410.51,261.24,414.86,268.65Z" transform="translate(-6.28 -7.12)" fill="#ee885e"/>
    <path id="Path_176" data-name="Path 176" d="M484.43,312.85c-4.1,7.36-16.37,13.27-31.18,14.14-15.57,1-29-3.89-33.32-11.34,4.06-7.36,16.32-13.22,31.14-14.15C466.64,300.54,480.07,305.4,484.43,312.85Z" transform="translate(-6.28 -7.12)" fill="#ee885e"/>
    <path id="Path_177" data-name="Path 177" d="M453.5,371.19c-4.06,7.37-16.33,13.27-31.14,14.15-15.57,1-29.05-3.89-33.36-11.34,4.06-7.37,16.32-13.27,31.14-14.15C435.71,358.89,449.19,363.74,453.5,371.19Z" transform="translate(-6.28 -7.12)" fill="#ee885e"/>
    <path id="Path_178" data-name="Path 178" d="M389.71,315.78c-4.06,7.36-16.32,13.27-31.1,14.14-15.57,1-29.05-3.89-33.36-11.34,4.1-7.36,16.33-13.22,31.14-14.1C371.92,303.51,385.36,308.37,389.71,315.78Z" transform="translate(-6.28 -7.12)" fill="#ee885e"/>
    <path id="Path_179" data-name="Path 179" d="M223.17,266.68c-4.06,7.37-16.33,13.27-31.14,14.15-15.53,1-29-3.89-33.32-11.3,4.06-7.37,16.32-13.27,31.14-14.15C205.38,254.42,218.81,259.27,223.17,266.68Z" transform="translate(-6.28 -7.12)" fill="url(#linear-gradient-10)"/>
    <path id="Path_180" data-name="Path 180" d="M326.88,243.12h0c-4.1,7.37-16.32,13.22-31.14,14.1-15.52,1-29-3.89-33.31-11.3,4.06-7.36,16.28-13.27,31.1-14.14C309.1,230.85,322.53,235.71,326.88,243.12Z" transform="translate(-6.28 -7.12)" fill="url(#linear-gradient-11)"/>
    <path id="Path_181" data-name="Path 181" d="M301.73,290.25c-4.06,7.36-16.32,13.26-31.14,14.14-15.53,1-29-3.89-33.32-11.3,4.06-7.36,16.33-13.27,31.14-14.15C283.94,278,297.38,282.84,301.73,290.25Z" transform="translate(-6.28 -7.12)" fill="url(#linear-gradient-12)"/>
    <path id="Path_182" data-name="Path 182" d="M414.86,268.65c-4.06,7.36-16.32,13.27-31.14,14.15-15.52,1-29-3.9-33.31-11.31,4.06-7.36,16.32-13.26,31.14-14.14C397.08,256.38,410.51,261.24,414.86,268.65Z" transform="translate(-6.28 -7.12)" fill="url(#linear-gradient-13)"/>
    <path id="Path_183" data-name="Path 183" d="M484.43,312.85c-4.1,7.36-16.37,13.27-31.18,14.14-15.57,1-29-3.89-33.32-11.34,4.06-7.36,16.32-13.22,31.14-14.15C466.64,300.54,480.07,305.4,484.43,312.85Z" transform="translate(-6.28 -7.12)" fill="url(#linear-gradient-14)"/>
    <path id="Path_184" data-name="Path 184" d="M453.5,371.19c-4.06,7.37-16.33,13.27-31.14,14.15-15.57,1-29.05-3.89-33.36-11.34,4.06-7.37,16.32-13.27,31.14-14.15C435.71,358.89,449.19,363.74,453.5,371.19Z" transform="translate(-6.28 -7.12)" fill="url(#linear-gradient-15)"/>
    <path id="Path_185" data-name="Path 185" d="M389.71,315.78c-4.06,7.36-16.32,13.27-31.1,14.14-15.57,1-29.05-3.89-33.36-11.34,4.1-7.36,16.33-13.22,31.14-14.1C371.92,303.51,385.36,308.37,389.71,315.78Z" transform="translate(-6.28 -7.12)" fill="url(#linear-gradient-16)"/>
    <path id="Path_186" data-name="Path 186" d="M521.05,147.08s-5.68-4.06-6.68-5.49,2.54-5.75,1.5-6.69-4.89-2.91-4.51-4.79,6.78,2.44,9.69,4.6,5.55,7.91,5.55,7.91S525.85,148.16,521.05,147.08Z" transform="translate(-6.28 -7.12)" fill="#c58067"/>
    <path id="Path_187" data-name="Path 187" d="M479.75,168.82,601.42,78.75l42.77-32.23s2.06-6.68-4.11-6.17S427.67,179.1,427.67,179.1l-15.07,13,15.76,17.81Z" transform="translate(-6.28 -7.12)" fill="#ee885e"/>
    <path id="Path_188" data-name="Path 188" d="M479.75,168.82,601.42,78.75l42.77-32.23s2.06-6.68-4.11-6.17S427.67,179.1,427.67,179.1l-15.07,13,15.76,17.81Z" transform="translate(-6.28 -7.12)" fill="url(#linear-gradient-17)"/>
    <path id="Path_189" data-name="Path 189" d="M579.56,121.81s11-3.35,12.14-2.24-8.67,70.64-9.17,73.61-16.85,2-23.79,0a76.6,76.6,0,0,1-13.38-5.45s8-63.52,9.47-64.51,12.26-1.86,12.26-1.86Z" transform="translate(-6.28 -7.12)" fill="#ee885e"/>
    <path id="Path_190" data-name="Path 190" d="M556.32,122.57a10.59,10.59,0,0,0-4.46,3c-1.48,2-13.38,25.78-11.89,30.73s6.62,8.58,8.11,7.59,4.28-10.07,4.77-12.05,1.46-8.51,1.46-8.51Z" transform="translate(-6.28 -7.12)" fill="#ee885e"/>
    <path id="Path_191" data-name="Path 191" d="M539.68,290.35s-2.1,7.9-3.08,8.48-4.41-1.24-6.4-2.68-1.28-4.51-1.28-4.51l.87-2.41Z" transform="translate(-6.28 -7.12)" fill="#c58067"/>
    <path id="Path_192" data-name="Path 192" d="M592.33,286.53s3.83,10.76,3.44,11.83-5-.49-7.5-.33-3.39-3.64-3.39-3.64L584,292Z" transform="translate(-6.28 -7.12)" fill="#c58067"/>
    <path id="Path_193" data-name="Path 193" d="M580.55,115.86s-1.49,6.44-1,8.92-3.47,9.42-8.43,9.42-5-8.43-5-9.42,1.49-1.48,1-4S580.05,112.89,580.55,115.86Z" transform="translate(-6.28 -7.12)" fill="#c58067"/>
    <path id="Path_194" data-name="Path 194" d="M567.17,120.82a3.84,3.84,0,0,1-.8,3.33,6.19,6.19,0,0,0,4.08,1.81c3,0,7.43-2.48,9.42-6.94l.1-.25c.28-1.63.58-2.91.58-2.91C580.05,112.89,566.67,118.34,567.17,120.82Z" transform="translate(-6.28 -7.12)" fill="#b6765e"/>
    <path id="Path_195" data-name="Path 195" d="M579.46,123.86s-4,9.35-7.4,10.34c0,0-.93.5,1.55,2s9.42-6,8.43-11.4a4.1,4.1,0,0,0-2.47-3.16Z" transform="translate(-6.28 -7.12)" fill="#fff"/>
    <path id="Path_196" data-name="Path 196" d="M567.17,121.81s-1.1,6.88,1.68,11.62c0,0-1.19,1.76-2.18,1.76s-3.47-5.95-2.48-10.41C564.77,122.18,566.67,121.1,567.17,121.81Z" transform="translate(-6.28 -7.12)" fill="#fff"/>
    <path id="Path_197" data-name="Path 197" d="M582.53,193.18l-5.42,43.12L594,292.05s-3.1,1.72-9.54,1.22l-22.89-55.13-.32-35-7.44,30.23-14.25,58.95s-7.25,1.59-11.52-1.48l9.42-57.47,7.93-45.6Z" transform="translate(-6.28 -7.12)" fill="#606161"/>
    <path id="Path_198" data-name="Path 198" d="M564.19,101.49s-1,12.88,0,16.35,4,6.45,6.94,6.45,7.44-2.48,9.42-6.94,3-15.37,2.48-16.86-3.49-6.17-11.4-5.45C566.17,95.54,564.19,99.5,564.19,101.49Z" transform="translate(-6.28 -7.12)" fill="#c58067"/>
    <path id="Path_199" data-name="Path 199" d="M582.43,107.84a1.83,1.83,0,0,1-2.83.29,3.66,3.66,0,0,1-.81-3.11c.14-1.11.51-2.18.58-3.29a.94.94,0,0,0-.17-.72.92.92,0,0,0-.72-.2c-1.5,0-3.26.63-4.3-.44-.63-.63-.81-1.74-1.65-2-.69-.25-1.42.22-2.07.56a6.91,6.91,0,0,1-5.05.48,1.37,1.37,0,0,1-.89-.57,1.42,1.42,0,0,1-.09-.82,6.23,6.23,0,0,1,2.71-4.43,10.68,10.68,0,0,1,4.14-1.42,41.759,41.759,0,0,1,5.09-.59,5.31,5.31,0,0,1,2.69.34,9.619,9.619,0,0,1,2.12,1.87,18.483,18.483,0,0,1,3,2.64c.6.89,1.91.87,2.37,3,.39,1.91.65,3.84,1,5.76s-.47,3.9-.87,5.81c-.83,3.91-.83,3.91-2.25,5.25a12,12,0,0,1-2.83,1.81,1.63,1.63,0,0,1-1.22.25c-.4-.14-.56-.82-.16-1" transform="translate(-6.28 -7.12)" fill="#606161"/>
    <path id="Path_200" data-name="Path 200" d="M580.76,109.84s.5-3,2.48-2-.49,6.44-1.49,6.94a2.89,2.89,0,0,1-1.48.42" transform="translate(-6.28 -7.12)" fill="#c58067"/>
    <path id="Path_201" data-name="Path 201" d="M549.32,159.88l-24.05-20.31s-5.6.65-5.86,7.31c0,0,11.05,13.85,22.37,20.82C546.67,170.71,550.51,161,549.32,159.88Z" transform="translate(-6.28 -7.12)" fill="#ee885e"/>
    <path id="Path_202" data-name="Path 202" d="M541.8,156.74l4.41-28.67-5.68,30.98Z" fill="url(#linear-gradient-18)"/>
    <path id="Path_203" data-name="Path 203" d="M519.2,295.27a8.4,8.4,0,0,0-3.4,1.74,2.81,2.81,0,0,0-.55,3.5,4,4,0,0,0,3.09,1.15,100.16,100.16,0,0,0,17.49-.34,1.45,1.45,0,0,0,.65-.19c.29-.21,1.29-.82,1.34-1.18l.76-5.71c-1.78.33-4.53.88-6.32.57-2.31-.41-3.22-2.68-5.45-2.24C524.27,293.08,521.67,294.45,519.2,295.27Z" transform="translate(-6.28 -7.12)" fill="#ee885e"/>
    <path id="Path_204" data-name="Path 204" d="M577.14,297.07a8.4,8.4,0,0,0-3.4,1.74,2.79,2.79,0,0,0-.55,3.49,4,4,0,0,0,3.09,1.16,100.16,100.16,0,0,0,17.49-.34,1.45,1.45,0,0,0,.65-.19c.29-.21,2.32-1.23,2.36-1.59.26-1.9-1.28-4.69-1.47-6-1.78.34-3.32,1.62-5.11,1.31-2.31-.41-3.22-2.69-5.45-2.24C582.21,294.88,579.61,296.25,577.14,297.07Z" transform="translate(-6.28 -7.12)" fill="#ee885e"/>
    <path id="Path_205" data-name="Path 205" d="M601.37,85.44a12.869,12.869,0,0,0,0-6.69A16,16,0,0,0,598,72.64a8,8,0,0,0-4.81-.07c-2.17.85.89,4.74.61,6.59s-2.06-3.31-3.11-2.86,1.63,7.56,3.63,8.45" transform="translate(-6.28 -7.12)" fill="#c58067"/>
    <path id="Path_206" data-name="Path 206" d="M580.36,145.25s7.43-1.94,9.85-6.51,15.29-25.61,14.91-30.51c-.44-5.66-3.18-24.25-3.18-24.25s-.3-1.52-3.89-1.06-4.15,2.52-4.15,2.52l-.32,21.83-10.94,20.08S578.17,141.16,580.36,145.25Z" transform="translate(-6.28 -7.12)" fill="#ee885e"/>
    <path id="Path_207" data-name="Path 207" d="M421.82,183.45c-3.18.14-5,3.62-7.58,5.47-1.86,1.33-4.19,1.81-6.22,2.88s-3.89,3.15-3.43,5.39a6.91,6.91,0,0,0,1.64,2.87L418,214.48c.71.88,1.7,1.85,2.79,1.55a3,3,0,0,0,1-.61l13.4-10.81c1.32-1.06,2.78-2.43,2.59-4.11a5.08,5.08,0,0,0-1.51-2.66C432.69,193.78,428.09,183.45,421.82,183.45Z" transform="translate(-6.28 -7.12)" fill="#ee885e"/>
    <path id="Path_208" data-name="Path 208" d="M421.82,183.45c-3.18.14-5,3.62-7.58,5.47-1.86,1.33-4.19,1.81-6.22,2.88s-3.89,3.15-3.43,5.39a6.91,6.91,0,0,0,1.64,2.87L418,214.48c.71.88,1.7,1.85,2.79,1.55a3,3,0,0,0,1-.61l13.4-10.81c1.32-1.06,2.78-2.43,2.59-4.11a5.08,5.08,0,0,0-1.51-2.66C432.69,193.78,428.09,183.45,421.82,183.45Z" transform="translate(-6.28 -7.12)" fill="url(#linear-gradient-19)"/>
    <path id="Path_209" data-name="Path 209" d="M394.76,201.94c-3.05,3.61-5.16,7.91-7.56,12a38.041,38.041,0,0,1-9,11c-3.75,2.92-8.69,4.62-13.38,3.76l2.35,4.28a96.331,96.331,0,0,0,35.49-2.9c5.08-1.39,10.23-3.32,13.94-7s5.63-9.7,3.35-14.44-7.87-7.09-11.35-11c-2.12-2.39-2.74-2.71-6-1.44a19.76,19.76,0,0,0-7.84,5.74Z" transform="translate(-6.28 -7.12)" fill="#fff"/>
    <path id="Path_210" data-name="Path 210" d="M385,221a1.3,1.3,0,0,0-.36-1c-.54-.42-1.26.14-1.76.59-3,2.71-7.34,2.87-11.32,3.25s-8.5,1.51-10.32,5.07c-1,1.88-1,4.09-.94,6.2,0,3.47.08,7,1.38,10.25.41,1,1.37,2.17,2.39,1.74a2.17,2.17,0,0,0,1-1.48c.6-1.89,1-3.94,2.31-5.43,2-2.27,5.42-2.45,8.44-2.83a37.59,37.59,0,0,0,14.18-4.7c1.1-.64,2.33-1.68,2-2.92s-2.18-1.58-3.49-1.16-2.56,1.27-3.89,1c.06-1.35-.34-2.69-.24-4C384.45,224,385.11,222.6,385,221Z" transform="translate(-6.28 -7.12)" fill="#ee885e"/>
    <path id="Path_211" data-name="Path 211" d="M385,221a1.3,1.3,0,0,0-.36-1c-.54-.42-1.26.14-1.76.59-3,2.71-7.34,2.87-11.32,3.25s-8.5,1.51-10.32,5.07c-1,1.88-1,4.09-.94,6.2,0,3.47.08,7,1.38,10.25.41,1,1.37,2.17,2.39,1.74a2.17,2.17,0,0,0,1-1.48c.6-1.89,1-3.94,2.31-5.43,2-2.27,5.42-2.45,8.44-2.83a37.59,37.59,0,0,0,14.18-4.7c1.1-.64,2.33-1.68,2-2.92s-2.18-1.58-3.49-1.16-2.56,1.27-3.89,1c.06-1.35-.34-2.69-.24-4C384.45,224,385.11,222.6,385,221Z" transform="translate(-6.28 -7.12)" fill="url(#linear-gradient-20)"/>
    <path id="Path_212" data-name="Path 212" d="M366.67,231a14.63,14.63,0,0,1,5-3.12,32.75,32.75,0,0,1,8.91-2.24,5.8,5.8,0,0,0,2.62-.65,1.623,1.623,0,0,0-1.24-3,8.422,8.422,0,0,0-2,1c-2.77,1.49-6.05,1.57-9.16,2s-6.45,1.62-8,4.35a12.694,12.694,0,0,0-1.1,6.15,28.2,28.2,0,0,0,.88,8.4c.13.41.4.9.83.86a.9.9,0,0,0,.55-.39c1.82-2.27.11-4.34.11-6.82A9.49,9.49,0,0,1,366.67,231Z" transform="translate(-6.28 -7.12)" fill="url(#linear-gradient-21)"/>
    <path id="Path_213" data-name="Path 213" d="M366.49,249.8c-1.59.7-2,2.72-2.18,4.44a39.529,39.529,0,0,0-.05,8.21,4.37,4.37,0,0,0,1.39,3.17,2.88,2.88,0,0,0,2.88.14,4.91,4.91,0,0,0,2.09-2.14c1.72-3.12.35-5.55-.09-8.71C370.26,253.05,369.38,248.53,366.49,249.8Z" transform="translate(-6.28 -7.12)" fill="url(#linear-gradient-22)"/>
    <path id="Path_214" data-name="Path 214" d="M360.94,250.37a2.89,2.89,0,0,0-1.95,1.68,2.39,2.39,0,0,0-.29,1.83,1.71,1.71,0,0,0,2.08,1,2.25,2.25,0,0,0,1.44-1.9,3.37,3.37,0,0,0-.72-2.36" transform="translate(-6.28 -7.12)" fill="url(#linear-gradient-23)"/>
    <path id="Path_215" data-name="Path 215" d="M230.77,159.61s4.11,4.17,6,4.4,16-4.08,17.18-5.11,2.15-7.39,2.15-7.39Z" transform="translate(-6.28 -7.12)" fill="#ee885e"/>
    <path id="Path_216" data-name="Path 216" d="M230.77,159.61s4.11,4.17,6,4.4,16-4.08,17.18-5.11,2.15-7.39,2.15-7.39Z" transform="translate(-6.28 -7.12)" fill="url(#linear-gradient-24)"/>
    <path id="Path_217" data-name="Path 217" d="M254.09,125.8a2.14,2.14,0,0,0,.21.88c2.25,4.2-16.92,34-33.19,12.16a43.168,43.168,0,0,1-3.69-6s-37.26-40-27.81-65.33c9.4-25.19,45.44-33.7,64.85-9C268.84,76.75,253.45,118.12,254.09,125.8Z" transform="translate(-6.28 -7.12)" fill="#ee885e"/>
    <path id="Path_218" data-name="Path 218" d="M254.09,125.8a2.14,2.14,0,0,0,.21.88c2.25,4.2-16.92,34-33.19,12.16a43.168,43.168,0,0,1-3.69-6s-37.26-40-27.81-65.33c9.4-25.19,45.44-33.7,64.85-9C268.84,76.75,253.45,118.12,254.09,125.8Z" transform="translate(-6.28 -7.12)" fill="url(#linear-gradient-25)"/>
    <path id="Path_219" data-name="Path 219" d="M254.3,126.68c2.25,4.2-16.92,34-33.19,12.16a38.22,38.22,0,0,1,33-13,2.14,2.14,0,0,0,.19.84Z" transform="translate(-6.28 -7.12)" fill="url(#linear-gradient-26)"/>
    <path id="Path_220" data-name="Path 220" d="M224.72,146.39a2.18,2.18,0,0,1,.57,1.05,2.44,2.44,0,0,1-.26,1.11,5,5,0,0,0,1.59,5.51c-1.7,1-1.28,3.86.31,5.05s3.75,1.2,5.73,1A54.92,54.92,0,0,0,255,153.48c2.63-1.46,5.42-3.59,5.56-6.6a6.38,6.38,0,0,0-2.51-1.38c.55-1.2,1-2.9-.13-3.62-.37-.23-.83-.28-1.21-.5a2.73,2.73,0,0,1-1-2.79,8.73,8.73,0,0,0,.16-3.13,2.87,2.87,0,0,0-3.11-2c-5.89,4.74-12.53,9.74-20.07,9.3C229.21,142.53,219.19,139.27,224.72,146.39Z" transform="translate(-6.28 -7.12)" fill="#ee885e"/>
    <path id="Path_221" data-name="Path 221" d="M224.72,146.39a2.18,2.18,0,0,1,.57,1.05,2.44,2.44,0,0,1-.26,1.11,5,5,0,0,0,1.59,5.51c-1.7,1-1.28,3.86.31,5.05s3.75,1.2,5.73,1A54.92,54.92,0,0,0,255,153.48c2.63-1.46,5.42-3.59,5.56-6.6a6.38,6.38,0,0,0-2.51-1.38c.55-1.2,1-2.9-.13-3.62-.37-.23-.83-.28-1.21-.5a2.73,2.73,0,0,1-1-2.79,8.73,8.73,0,0,0,.16-3.13,2.87,2.87,0,0,0-3.11-2c-5.89,4.74-12.53,9.74-20.07,9.3C229.21,142.53,219.19,139.27,224.72,146.39Z" transform="translate(-6.28 -7.12)" fill="url(#linear-gradient-27)"/>
    <path id="Path_222" data-name="Path 222" d="M246.55,138.7l-2.46.14-.72-12.3c-1.35-23.23-3.8-27.93-5.14-28.67a.573.573,0,0,0-.55,0,3.2,3.2,0,0,0-1.05,1,12.9,12.9,0,0,1,2.57,3c1.34,2.21,1.53,4.28.53,5.68A2.59,2.59,0,0,1,237,108.8c-1.92-.48-3.13-3.24-3.45-5.61a9.48,9.48,0,0,1,.12-3.43,4.16,4.16,0,0,0-2.56-.65c-1.15.13-2,1.19-2.51,3.07a17.337,17.337,0,0,0-.47,2.24c2.88,1.38,5.43,4.76,5,7a2.31,2.31,0,0,1-1.79,2,3.79,3.79,0,0,1-3.66-1.13c-.77-.73-2.16-2.56-2.17-6.06-.81,0-1.74.48-2.4,2.41-2,5.7,9.13,25.11,13.57,32.1l-2.08,1.32c-1.7-2.67-16.52-26.37-13.82-34.22,1.2-3.5,3.38-4.13,4.94-4.06a21,21,0,0,1,.5-2.27c1-3.63,3-4.65,4.54-4.85a6.48,6.48,0,0,1,3.87.83,5.67,5.67,0,0,1,1.88-1.73,2.94,2.94,0,0,1,2.94-.06c2.23,1.22,5,5.81,6.41,30.69ZM228,107.21a5.17,5.17,0,0,0,1.36,3.32,1.51,1.51,0,0,0,1.23.55h0C230.79,110.25,229.61,108.37,228,107.21Zm7.89-5.61a6.873,6.873,0,0,0,.06,1.24c.28,2.11,1.21,3.42,1.58,3.56,0,0,.08-.09.2-.25.38-.53.13-1.69-.64-3a10.371,10.371,0,0,0-1.2-1.55Z" transform="translate(-6.28 -7.12)" fill="#fff"/>
  </g>
</svg>
