<svg xmlns="http://www.w3.org/2000/svg" width="314.531" height="107.69" viewBox="0 0 314.531 107.69">
  <g id="logo_-_dark-1" data-name="logo - dark-1" transform="translate(-108.538 -58)">
    <path id="Path_136" data-name="Path 136" d="M363.307,76.873,376.716,68.7l13.091,8.175-2.422,1.759s-8.535-5.955-10.684-5.955-9.876,5.955-9.876,5.955Z" fill="#ee885e"/>
    <path id="Path_137" data-name="Path 137" d="M385.208,78.964a1.918,1.918,0,0,1-.26.952,12.642,12.642,0,0,0-8.391-3.114,11.533,11.533,0,0,0-7.281,2.711,2.483,2.483,0,0,1-.159-.865s5.2-4.109,7.7-4.109S385.208,78.964,385.208,78.964Z" fill="#fff"/>
    <path id="Path_138" data-name="Path 138" d="M417.808,124.209c2.638-14.2,2-28.246,1.442-41.885l-.216-5c-.174-4.455-1.947-6.762-6.071-7.945a131.978,131.978,0,0,0-36.132-5.191,130.02,130.02,0,0,0-36.045,5.205c-4.167,1.211-5.854,3.46-6.027,8l-.188,4.83c-.548,13.524-1.1,27.466,1.125,41.25a59.81,59.81,0,0,1-4.441-20.935c-.389-6.618-.332-13.409-.259-19.969,0-3.965.072-8.089,0-12.126,0-2.307.706-3.3,3.2-4.326A119.673,119.673,0,0,1,376.831,58a117.436,117.436,0,0,1,42.332,8.089l.62.231c2.076.764,2.884,1.168,2.884,2.567,0,3.258.115,6.517.2,9.776.389,14.865.778,30.279-4.715,44.7A4.962,4.962,0,0,0,417.808,124.209Z" fill="#0d699d"/>
    <path id="Path_139" data-name="Path 139" d="M390.038,117.994c-.159-.793-.361-1.586-.592-2.379a20.4,20.4,0,0,0-3.128-6.6,14.863,14.863,0,0,0-4.326-3.965,10.091,10.091,0,0,0-5.075-1.442,10.267,10.267,0,0,0-5.335,1.557,15.246,15.246,0,0,0-4.527,4.326,20.568,20.568,0,0,0-3.2,7.151c-.13.476-.216.952-.3,1.442a33.637,33.637,0,0,0-.548,5.983c0,2.884-.072,6-.1,9.127v.116c-.072,5.868-.115,11.664-.115,15.456a7.935,7.935,0,0,0,.1,1.182c.072.332.159.678.26.995a6.642,6.642,0,0,0,.317.851,14.459,14.459,0,0,0,1.254,2.307,23.233,23.233,0,0,0,1.889,2.494,51.96,51.96,0,0,0,6,5.767c1.846,1.543,3.2,2.524,3.215,2.552l1.082.779,1.11-.75a52.056,52.056,0,0,0,6.1-5.061,29.239,29.239,0,0,0,4.325-5.132l.072-.1a17.31,17.31,0,0,0,1.211-2.278v-.2a.252.252,0,0,1,.087-.217,1.9,1.9,0,0,0,.2-.576.177.177,0,0,0,0-.116,8.848,8.848,0,0,0,.432-2.681V122.623A25.121,25.121,0,0,0,390.038,117.994Zm-3.259,4.845v25.794a8.4,8.4,0,0,1-1.543,4.225,31.248,31.248,0,0,1-5.767,6.329c-.966.808-1.831,1.442-2.465,1.961a66.879,66.879,0,0,1-5.148-4.469,30.1,30.1,0,0,1-3.821-4.326,10.921,10.921,0,0,1-1.139-2.018,7.634,7.634,0,0,1-.245-.75,3.231,3.231,0,0,1-.1-.764c0-3.764,0-9.588.116-15.486,0-3.114.072-6.243.1-9.1a29.9,29.9,0,0,1,.735-6.546,16.819,16.819,0,0,1,2.61-5.768,11.686,11.686,0,0,1,3.4-3.287,6.6,6.6,0,0,1,3.389-1.009,6.461,6.461,0,0,1,3.215.908,10.707,10.707,0,0,1,3.23,2.97,16.59,16.59,0,0,1,2.523,5.364,23.275,23.275,0,0,1,.951,6.142Z" fill="#ee885e"/>
    <path id="Path_140" data-name="Path 140" d="M409.575,130.495A25.707,25.707,0,0,1,392.2,154.66a6.952,6.952,0,0,1-2,.432,14.186,14.186,0,0,0,1.745-4.325A21.861,21.861,0,0,0,405.8,130.581a22.122,22.122,0,0,0-1.226-7.209,16.962,16.962,0,0,0-1.658-3.561,5.638,5.638,0,0,0-2.292-2.062,5.506,5.506,0,0,0-2.293-.447,6.246,6.246,0,0,0-2.465.447,4.9,4.9,0,0,0-1.687,1.182,10.19,10.19,0,0,0-2,3.389,27.694,27.694,0,0,0-.837-5.883,8.823,8.823,0,0,1,3.071-2.177,9.93,9.93,0,0,1,3.908-.735,9.333,9.333,0,0,1,3.835.778,8.656,8.656,0,0,1,2.884,2.076,16.244,16.244,0,0,1,3.128,5.768A25.644,25.644,0,0,1,409.575,130.495Z" fill="#ee885e"/>
    <path id="Path_141" data-name="Path 141" d="M361.909,152.425a18.445,18.445,0,0,0,1.947,3.331,67.867,67.867,0,0,1-16.7-13.063,10.1,10.1,0,0,1-2.263-4.513,24.072,24.072,0,0,1-.62-5.767,35.791,35.791,0,0,1,.749-7.21,24.352,24.352,0,0,1,2.163-6.344,9.69,9.69,0,0,1,2.408-3.071,9.43,9.43,0,0,1,5.955-2.22,8.793,8.793,0,0,1,4.325,1.168,10.345,10.345,0,0,1,2.264,1.744,32.3,32.3,0,0,0-.764,5.494,14.8,14.8,0,0,0-1.038-1.788,7.114,7.114,0,0,0-2.25-2.192,4.931,4.931,0,0,0-2.508-.692,5.767,5.767,0,0,0-3.591,1.37,6.148,6.148,0,0,0-1.441,1.932,17.386,17.386,0,0,0-1.3,3.331A31.273,31.273,0,0,0,348,132.413a20.921,20.921,0,0,0,.5,4.83,6.6,6.6,0,0,0,1.3,2.883,63.417,63.417,0,0,0,11.376,9.588A9.729,9.729,0,0,0,361.909,152.425Z" fill="#ee885e"/>
    <path id="Path_142" data-name="Path 142" d="M377.135,96.511l-.029-1.759a8.194,8.194,0,0,1-5.623-2.451,7.84,7.84,0,0,1-2.25-5.566,8.334,8.334,0,0,1,2.264-5.58,6.949,6.949,0,0,1,4.989-2.336,7.786,7.786,0,0,1,5.58,2.249,7.9,7.9,0,0,1,2.22,5.638v.115a8.495,8.495,0,0,1-2.22,5.623,6.706,6.706,0,0,1-4.874,2.307h-.086V98.53h.144a10.495,10.495,0,0,0,7.67-3.6,12.282,12.282,0,0,0,3.2-8.146,11.418,11.418,0,0,0-11.534-11.664,10.653,10.653,0,0,0-7.743,3.532,12.224,12.224,0,0,0-3.287,8.132v.159a11.535,11.535,0,0,0,3.287,7.988,11.982,11.982,0,0,0,8.262,3.6Z" fill="#ee885e"/>
    <path id="Path_143" data-name="Path 143" d="M360.7,101.63h-1.888a6.729,6.729,0,0,1-1.932,4.613A6.436,6.436,0,0,1,352.32,108h-.346a6.649,6.649,0,0,1-4.484-1.947,6.319,6.319,0,0,1-1.759-4.455v-.563a8.418,8.418,0,0,1,.649-2.768,5.063,5.063,0,0,1,2.148-2.451,8.408,8.408,0,0,1,3.879-.98h.216a5.854,5.854,0,0,1,4.326,1.961,6.884,6.884,0,0,1,1.86,4.643v.188h3.777v-.217A10.624,10.624,0,0,0,359.7,94.2a9.661,9.661,0,0,0-7.051-3.158h-.332a13.707,13.707,0,0,0-3.921.706,9.07,9.07,0,0,0-4.47,3.3,11.265,11.265,0,0,0-1.947,5.637v.88a10.1,10.1,0,0,0,2.884,7.094,10.439,10.439,0,0,0,7.022,3.085h.432a10.162,10.162,0,0,0,7.209-2.883,10.52,10.52,0,0,0,3.057-7.238Z" fill="#ee885e"/>
    <path id="Path_144" data-name="Path 144" d="M380.681,129.1a4.793,4.793,0,0,0-2.971-1.542V106.186h-1.961v21.5a4.675,4.675,0,0,0-.634.2,4.515,4.515,0,0,0-2.206,1.644,5.782,5.782,0,0,0-.923,2.8v.461a5.017,5.017,0,0,0,4.845,5.018h.245a4.935,4.935,0,0,0,3.547-1.442,5.25,5.25,0,0,0,1.442-3.576v-.115A5.292,5.292,0,0,0,380.681,129.1Zm-.462,3.677a3.285,3.285,0,0,1-.937,2.278,3.135,3.135,0,0,1-2.235.894h-.216a3.3,3.3,0,0,1-2.192-.98,3.161,3.161,0,0,1-.865-2.192v-.3a3.989,3.989,0,0,1,.332-1.442,2.366,2.366,0,0,1,1.052-1.211,3.88,3.88,0,0,1,1.9-.49h.1a2.884,2.884,0,0,1,2.091.981,3.4,3.4,0,0,1,.908,2.306Z" fill="#ee885e"/>
    <path id="Path_145" data-name="Path 145" d="M358.982,132.86a3.879,3.879,0,0,0-2.581-.88,36.835,36.835,0,0,1-1.283-8.406c.158-4.138.533-8.968.533-8.968l-1.586.245s-.533,5.277-.533,8.925a46.507,46.507,0,0,0,1.3,8.55,3.114,3.114,0,0,0-.49.245,3.61,3.61,0,0,0-1.571,1.572,4.491,4.491,0,0,0-.4,2.379,2.923,2.923,0,0,0,0,.375,4.094,4.094,0,0,0,4.527,3.475h.2a4.04,4.04,0,0,0,2.682-1.586,4.331,4.331,0,0,0,.764-3.071v-.13A4.326,4.326,0,0,0,358.982,132.86Zm.086,3.013a2.693,2.693,0,0,1-.475,1.961,2.573,2.573,0,0,1-1.7.995h-.13a2.744,2.744,0,0,1-1.9-.519,2.671,2.671,0,0,1-.966-1.673v-.23a3.53,3.53,0,0,1,.1-1.154,1.927,1.927,0,0,1,.707-1.11,3.229,3.229,0,0,1,1.441-.634h.087a2.378,2.378,0,0,1,1.8.533,2.749,2.749,0,0,1,1.024,1.759Z" fill="#ee885e"/>
    <path id="Path_146" data-name="Path 146" d="M392.691,135.585v.1a4.332,4.332,0,0,0,.764,3.072,4.014,4.014,0,0,0,2.668,1.586h.216a4.2,4.2,0,0,0,2.97-.822,4.067,4.067,0,0,0,1.543-2.653,2.934,2.934,0,0,0,0-.375,4.8,4.8,0,0,0-.4-2.379,3.674,3.674,0,0,0-1.571-1.572,3.08,3.08,0,0,0-.491-.245,47.865,47.865,0,0,0,1.3-8.55c0-3.648-.533-8.925-.533-8.925l-1.586-.245s.36,4.83.533,8.968a37.747,37.747,0,0,1-1.283,8.406,3.848,3.848,0,0,0-2.581.88A4.324,4.324,0,0,0,392.691,135.585Zm1.442.23a2.8,2.8,0,0,1,1.009-1.759,2.4,2.4,0,0,1,1.817-.533h.086a3.239,3.239,0,0,1,1.442.634,2.1,2.1,0,0,1,.707,1.11,3.529,3.529,0,0,1,.086,1.154v.231a2.612,2.612,0,0,1-.98,1.672,2.684,2.684,0,0,1-1.889.519h-.144a2.567,2.567,0,0,1-1.687-.995,2.7,2.7,0,0,1-.447-1.975Z" fill="#ee885e"/>
    <path id="Path_147" data-name="Path 147" d="M401.458,110.021v-1.889h-.116a6.333,6.333,0,0,1-4.57-1.874A6.518,6.518,0,0,1,394.9,101.6v-.188a9.359,9.359,0,0,1,.476-2.883,4.771,4.771,0,0,1,1.875-2.538,7.321,7.321,0,0,1,3.835-1.067h.418a6.215,6.215,0,0,1,6.589,6.272v.159a5.246,5.246,0,0,1-.562,2.292,8.647,8.647,0,0,1-2.668,3.172,6.172,6.172,0,0,1-3.446,1.312v3.778a8.871,8.871,0,0,0,3.908-1,12.332,12.332,0,0,0,4.671-3.922,9.786,9.786,0,0,0,1.947-5.637v-.318a9.978,9.978,0,0,0-10.367-9.876h-.606a12.722,12.722,0,0,0-4.037.807,8.478,8.478,0,0,0-4.325,3.6,11.656,11.656,0,0,0-1.442,5.767v.332a10.351,10.351,0,0,0,2.97,7.252,10.175,10.175,0,0,0,7.209,2.985h.116Z" fill="#ee885e"/>
    <path id="Path_148" data-name="Path 148" d="M162.918,86.82a4.8,4.8,0,0,1,2.968.742,3.328,3.328,0,0,1,1.029,2.749v1.147a3.422,3.422,0,0,1-.961,2.749,4.606,4.606,0,0,1-3,.81,6.474,6.474,0,0,1-2.345-.354q-1.7.438-1.7,1.838v2.665h-2.193V96.5a3.5,3.5,0,0,1,2.446-3.39,5.274,5.274,0,0,1-.22-1.653V90.311a3.367,3.367,0,0,1,1.012-2.732A4.636,4.636,0,0,1,162.918,86.82Zm.034,1.838a2.109,2.109,0,0,0-1.282.321,1.624,1.624,0,0,0-.523,1.366v1.079a1.863,1.863,0,0,0,.422,1.383,1.935,1.935,0,0,0,1.349.4,1.573,1.573,0,0,0,1.771-1.788V90.345A1.514,1.514,0,0,0,162.952,88.658Zm14.565,4.149V95h-1.181v1.046a2.965,2.965,0,0,1-.776,2.4,5.192,5.192,0,0,1-1.788.641,10.636,10.636,0,0,1-2.5.337l-.995-2.007q.675,0,1.94-.118a3.921,3.921,0,0,0,1.467-.287,1.511,1.511,0,0,0,.472-1.214v-.776h-2.479a3.535,3.535,0,0,1-2.26-.557,3.155,3.155,0,0,1-.928-1.434,4.739,4.739,0,0,1-.236-1.957,6.614,6.614,0,0,1,.472-1.99,3.5,3.5,0,0,1,1.316-1.552,3.7,3.7,0,0,1,2.142-.624h4.149v5.9Zm-3.357-4h-1.872a1.887,1.887,0,0,0-1.855,1.2,2.482,2.482,0,0,0-.085,1.94,1.159,1.159,0,0,0,1.114.86h2.7Zm6.635-6.308v9.057a1.08,1.08,0,0,0,.438.978,2.791,2.791,0,0,0,1,.27h.337V95h-.354a4.784,4.784,0,0,1-2.513-.523,4.746,4.746,0,0,1-2.5.523h-.354V92.807h.337a2.818,2.818,0,0,0,1.012-.287,1.05,1.05,0,0,0,.422-.961V82.5Zm9.021,6.308h-3.053q-1.553,0-1.552,1.619v.843a1.758,1.758,0,0,0,.321,1.231,1.856,1.856,0,0,0,1.265.3h3.929V95h-8.838V92.807h1.181a5.2,5.2,0,0,1-.084-.911V90.109a3.41,3.41,0,0,1,.759-2.412,2.658,2.658,0,0,1,2.041-.793h4.031Zm9.26-3.761h-1.939v-1.8h1.939Zm2.733,0h-1.94v-1.8h1.94Zm-2.041,1.8a4.9,4.9,0,0,1,2.462.472,2.125,2.125,0,0,1,.877,1.316q.119.388.4,1.872a5.557,5.557,0,0,0,.523,1.636,1.3,1.3,0,0,0,1.2.658h.337V95h-.337q-2.952,0-3.593-2.226l-.439-2.5a4.458,4.458,0,0,0-.3-1.181,1.261,1.261,0,0,0-1.13-.455,2.061,2.061,0,0,0-1.147.287,1.447,1.447,0,0,0-.574,1.316v1.113a1.58,1.58,0,0,0,.338,1.164,2.025,2.025,0,0,0,1.265.287h1.821V95h-2.378a3.521,3.521,0,0,1-2.5-.708,3.218,3.218,0,0,1-.725-2.412v-1.72a3.264,3.264,0,0,1,.843-2.614A4.971,4.971,0,0,1,199.768,86.853Zm10.975,0v4.689q0,.894.591,1.13a5.329,5.329,0,0,0,1.568.135h.169V95H212.9a4.479,4.479,0,0,1-3.221-1.079A4.482,4.482,0,0,1,206.459,95h-1.568V92.807h1.568a5.554,5.554,0,0,0,1.569-.135q.59-.236.59-1.13V86.853ZM209.31,98.66h-1.94v-1.8h1.94Zm2.732,0H210.1v-1.8h1.94ZM216.348,82.5v9.057a1.081,1.081,0,0,0,.439.978,2.784,2.784,0,0,0,.995.27h.337V95h-.354a4.786,4.786,0,0,1-2.513-.523,4.744,4.744,0,0,1-2.5.523H212.4V92.807h.337a2.831,2.831,0,0,0,1.012-.287,1.053,1.053,0,0,0,.422-.961V82.5Zm9.645,2.007-3.457.219a2.334,2.334,0,0,0-1.232.287,1.018,1.018,0,0,0-.455.793,1.046,1.046,0,0,0,.135.675,1.75,1.75,0,0,0,.573.523l3.137,2.024a4.04,4.04,0,0,1,1.215,1.046,3.636,3.636,0,0,1,.236,1.569,3.853,3.853,0,0,1-.692,2.581,2.716,2.716,0,0,1-2.158.776h-5.853V92.807h4.807q1.551,0,1.552-.928a3.186,3.186,0,0,0-.085-.843,1.013,1.013,0,0,0-.455-.506l-2.7-1.67a6.25,6.25,0,0,1-1.552-1.214,2.474,2.474,0,0,1-.388-1.467,3.957,3.957,0,0,1,.692-2.614,2.859,2.859,0,0,1,2.058-.776l4.621-.236ZM246.3,95H234.321a2.956,2.956,0,0,1-2.4-.793,5.319,5.319,0,0,1-.625-3.087q0-2.7.878-3.525a3.652,3.652,0,0,1,2.5-.624V89.08a1.609,1.609,0,0,0-1.265.472,2.564,2.564,0,0,0-.034,2.766,1.512,1.512,0,0,0,1.214.472h9.766V86.853h1.94Zm-5.87,3.66h-1.939v-1.8h1.939Zm13-16.158V91.9a1.1,1.1,0,0,0,.877.86,9.118,9.118,0,0,0,1.332.051V95h-.253a3.245,3.245,0,0,1-2.614-.894l-.135.135a3.2,3.2,0,0,1-1.99.742,4.929,4.929,0,0,1-2.345-.32V92.419a1.523,1.523,0,0,0,.624.388l-1.265-7.826h2.092l1.2,7.556a1.133,1.133,0,0,0,.422-.911V82.5Zm5.476,0v4.436c.225-.022.4-.034.523-.034a5.76,5.76,0,0,1,.91.067l6.157.877a2.767,2.767,0,0,1,2.007.961,4.521,4.521,0,0,1,.573,2.614,4.038,4.038,0,0,1-.759,2.715A3.2,3.2,0,0,1,265.8,95H254.972V92.807h1.754V82.5Zm6.966,7.489-5.4-.81a2.3,2.3,0,0,0-1.164.2q-.3.186-.32.945l-.084,2.479h6.8q1.6,0,1.6-1.4v-.253Q267.3,90.21,265.868,89.991Zm11.554-4.942h-1.939v-1.8h1.939Zm2.733,0h-1.94v-1.8h1.94Zm-2.041,1.8a4.9,4.9,0,0,1,2.462.472,2.125,2.125,0,0,1,.877,1.316q.119.388.4,1.872a5.556,5.556,0,0,0,.523,1.636,1.3,1.3,0,0,0,1.2.658h.337V95h-.337q-2.952,0-3.593-2.226l-.439-2.5a4.458,4.458,0,0,0-.3-1.181,1.261,1.261,0,0,0-1.13-.455,2.061,2.061,0,0,0-1.147.287,1.445,1.445,0,0,0-.574,1.316v1.113a1.58,1.58,0,0,0,.338,1.164,2.025,2.025,0,0,0,1.265.287h1.821V95h-2.378a3.521,3.521,0,0,1-2.5-.708,3.218,3.218,0,0,1-.725-2.412v-1.72a3.264,3.264,0,0,1,.843-2.614A4.971,4.971,0,0,1,278.114,86.853Zm9.053-4.352v4.436c.224-.022.4-.034.522-.034a5.773,5.773,0,0,1,.911.067l6.157.877a2.767,2.767,0,0,1,2.007.961,4.521,4.521,0,0,1,.573,2.614,5.264,5.264,0,0,1-.067.894q.338.489,2.024.489V95h-.338a3.288,3.288,0,0,1-2.462-.793,3.2,3.2,0,0,1-2.429.793H283.237V92.807h1.754V82.5Zm6.965,7.489-5.4-.81a2.3,2.3,0,0,0-1.164.2q-.3.186-.32.945l-.084,2.479h6.8q1.6,0,1.6-1.4v-.253Q295.566,90.21,294.132,89.991Zm8.8-3.137v4.689a3.1,3.1,0,0,1-1.181,2.614A4.809,4.809,0,0,1,298.8,95h-.169V92.807h.169a5.551,5.551,0,0,0,1.568-.135q.574-.219.574-1.13V86.853ZM301.716,98.66h-1.94v-1.8h1.94ZM306.462,95h-2.176V82.5h2.176Zm5.861-8.13v9.243a2.831,2.831,0,0,1-.827,2.243,4.3,4.3,0,0,1-2.766.708,8.179,8.179,0,0,1-1.586-.135V96.99l.1.051a3.305,3.305,0,0,0,1.45.2,1.429,1.429,0,0,0,1.13-.388,1.91,1.91,0,0,0,.321-1.248V86.87ZM124.774,105.432h-1.939v-1.805h1.939Zm2.733,0h-1.94v-1.805h1.94ZM131.976,114H120a2.956,2.956,0,0,1-2.395-.793,5.326,5.326,0,0,1-.624-3.086q0-2.7.877-3.525a3.646,3.646,0,0,1,2.5-.625v2.109a1.608,1.608,0,0,0-1.265.472,2.566,2.566,0,0,0-.033,2.766,1.509,1.509,0,0,0,1.214.472h9.766v-5.937h1.939Zm3.538-12.5v9.04a1.082,1.082,0,0,0,.438.979,2.8,2.8,0,0,0,1,.286h.337V114h-.354a4.256,4.256,0,0,1-2.766-.708,2.834,2.834,0,0,1-.827-2.244V101.5Zm7.411,4.318a4.8,4.8,0,0,1,2.969.742,3.327,3.327,0,0,1,1.029,2.749v1.147a3.421,3.421,0,0,1-.962,2.749,4.6,4.6,0,0,1-3,.81q-.473,0-.708-.017a3.91,3.91,0,0,1-2.176-.624l-.2-.152-.253-.253Q139,114,136.853,114H136.6v-2.193a8.6,8.6,0,0,0,1.4-.067,1.118,1.118,0,0,0,.86-.945l.085-.421v-1.063a3.363,3.363,0,0,1,1.012-2.732A4.675,4.675,0,0,1,142.925,105.82Zm.034,1.838a2.108,2.108,0,0,0-1.282.321,1.625,1.625,0,0,0-.523,1.366v1.079a1.867,1.867,0,0,0,.422,1.383,1.9,1.9,0,0,0,1.349.4,1.573,1.573,0,0,0,1.771-1.788v-1.079A1.513,1.513,0,0,0,142.959,107.658Zm14.545,4.149V114h-1.181v1.046a2.962,2.962,0,0,1-.776,2.4,5.2,5.2,0,0,1-1.787.641,10.636,10.636,0,0,1-2.5.337l-.995-2.007q.675,0,1.94-.118a3.915,3.915,0,0,0,1.467-.287,1.512,1.512,0,0,0,.473-1.214v-.776h-2.48a3.537,3.537,0,0,1-2.26-.557,3.152,3.152,0,0,1-.928-1.433,4.759,4.759,0,0,1-.236-1.957,6.609,6.609,0,0,1,.472-1.99,3.5,3.5,0,0,1,1.316-1.552,3.7,3.7,0,0,1,2.142-.624h4.149v5.9Zm-3.356-4h-1.873a1.887,1.887,0,0,0-1.855,1.2,2.487,2.487,0,0,0-.084,1.94,1.157,1.157,0,0,0,1.113.86h2.7Zm6.634-6.308v9.057a1.078,1.078,0,0,0,.439.978,2.763,2.763,0,0,0,1,.27h.337V114H162.2a4.782,4.782,0,0,1-2.513-.523,4.74,4.74,0,0,1-2.5.523h-.355v-2.193h.338a2.84,2.84,0,0,0,1.012-.286,1.053,1.053,0,0,0,.421-.962V101.5ZM171.27,106.7q.389.421.574.658a4.32,4.32,0,0,1,.438.759,2.208,2.208,0,0,1,.253,1V110.9c0,.123-.123.292-.371.506a2.86,2.86,0,0,0-.438.4h2.648V114h-12.5v-2.193h3.407a1.3,1.3,0,0,1-.135-.455A.825.825,0,0,0,165,110.9l-1.4-1.552v-2.8a11.376,11.376,0,0,1,2.969-1.1,5.2,5.2,0,0,1,2.277-.034,5.3,5.3,0,0,1,1.467.54A3.681,3.681,0,0,1,171.27,106.7Zm-5.464,1.754,1.4,1.821c.033.045.1.147.2.3s.18.259.236.337a4.2,4.2,0,0,0,.337.287,2.468,2.468,0,0,0,.54.287c.281-.113.5-.2.658-.27s.354-.174.557-.287a1.647,1.647,0,0,0,.455-.32.511.511,0,0,0,.152-.338v-.843a1.391,1.391,0,0,0-.641-1.147,2.761,2.761,0,0,0-1.7-.472A4.377,4.377,0,0,0,165.806,108.451Zm14.229-2.631a4.8,4.8,0,0,1,2.969.742,3.327,3.327,0,0,1,1.029,2.749v1.046l.084.438a1.123,1.123,0,0,0,.86.945,7.5,7.5,0,0,0,1.4.067V114h-.253q-2.142,0-2.783-1.046a1.346,1.346,0,0,1-.253.253,3.263,3.263,0,0,1-2.294.793q-.219.017-.725.017-.473,0-.708-.017a3.91,3.91,0,0,1-2.176-.624l-.2-.152-.253-.253Q176.105,114,173.963,114h-.253v-2.193a8.6,8.6,0,0,0,1.4-.067,1.12,1.12,0,0,0,.86-.945l.085-.421v-1.063a3.363,3.363,0,0,1,1.012-2.732A4.675,4.675,0,0,1,180.035,105.82Zm.034,1.838a2.108,2.108,0,0,0-1.282.321,1.625,1.625,0,0,0-.523,1.366v1.079a1.867,1.867,0,0,0,.422,1.383,1.9,1.9,0,0,0,1.349.4,1.573,1.573,0,0,0,1.771-1.788v-1.079A1.513,1.513,0,0,0,180.069,107.658Zm9.571-6.156v9.546a2.833,2.833,0,0,1-.826,2.244,4.259,4.259,0,0,1-2.767.708h-.354v-2.193h.338a2.84,2.84,0,0,0,1.012-.286,1.072,1.072,0,0,0,.421-.979V101.5Zm3.515,12.5H190.98V101.5h2.175Zm8.367-9.951h-1.939v-1.805h1.939Zm2.733,0h-1.94v-1.805h1.94Zm-2.041,1.8a4.9,4.9,0,0,1,2.462.473,2.123,2.123,0,0,1,.877,1.315q.119.389.4,1.872a5.566,5.566,0,0,0,.523,1.637,1.3,1.3,0,0,0,1.2.657h.337V114h-.337q-2.952,0-3.593-2.226l-.439-2.5a4.449,4.449,0,0,0-.3-1.18,1.261,1.261,0,0,0-1.13-.456,2.063,2.063,0,0,0-1.147.287,1.445,1.445,0,0,0-.574,1.316v1.113a1.582,1.582,0,0,0,.338,1.164,2.027,2.027,0,0,0,1.265.286h1.821V114h-2.378a3.522,3.522,0,0,1-2.5-.708,3.219,3.219,0,0,1-.725-2.412v-1.721a3.263,3.263,0,0,1,.843-2.614A4.971,4.971,0,0,1,202.214,105.853Zm9.1-1.8h-1.94v-1.805h1.94Zm.169,1.8v4.689a3.059,3.059,0,0,1-1.2,2.615,4.294,4.294,0,0,1-2.7.843h-.253v-2.193a5.549,5.549,0,0,0,1.568-.135q.574-.219.574-1.13v-4.689Zm3.535-4.351v9.04a1.081,1.081,0,0,0,.439.979,2.793,2.793,0,0,0,.995.286h.337V114h-.354a4.258,4.258,0,0,1-2.766-.708,2.834,2.834,0,0,1-.827-2.244V101.5Zm5.826,2.547h-1.94v-1.805h1.94Zm2.733,0h-1.94v-1.805h1.94Zm-2.362,1.8a4.733,4.733,0,0,1,3.053.793,3.429,3.429,0,0,1,.928,2.749v1.147a5.66,5.66,0,0,1-.135,1.265h1.366V114H216.108v-2.193h1.315a5.66,5.66,0,0,1-.135-1.265v-1.147a3.4,3.4,0,0,1,.928-2.732A4.6,4.6,0,0,1,221.218,105.853Zm.034,1.805a1.565,1.565,0,0,0-1.771,1.771v1.08q0,1.669,1.737,1.669a2.2,2.2,0,0,0,1.282-.3,1.716,1.716,0,0,0,.506-1.366v-1.08a1.863,1.863,0,0,0-.422-1.383A1.96,1.96,0,0,0,221.252,107.658Zm7.983-3.609h-1.94v-1.805h1.94Zm2.732,0h-1.94v-1.805h1.94Zm.084,1.8v4.689a3.107,3.107,0,0,1-1.18,2.615,4.813,4.813,0,0,1-2.952.843h-2.176v-2.193h2.176a5.553,5.553,0,0,0,1.569-.135q.573-.219.573-1.13v-4.689Zm9.413.051v9.142a2.966,2.966,0,0,1-.776,2.4,5.213,5.213,0,0,1-1.788.641,10.628,10.628,0,0,1-2.5.337l-1-2.007q.674,0,1.939-.118a3.917,3.917,0,0,0,1.468-.287,1.511,1.511,0,0,0,.472-1.214v-.776h-2.479a3.538,3.538,0,0,1-2.261-.557,3.151,3.151,0,0,1-.927-1.433,4.726,4.726,0,0,1-.236-1.957,6.579,6.579,0,0,1,.472-1.99,3.5,3.5,0,0,1,1.316-1.552,3.7,3.7,0,0,1,2.142-.624Zm-2.176,1.906h-1.872a1.888,1.888,0,0,0-1.856,1.2,2.487,2.487,0,0,0-.084,1.94,1.157,1.157,0,0,0,1.113.86h2.7ZM261.614,114H249.639a2.955,2.955,0,0,1-2.4-.793,5.326,5.326,0,0,1-.624-3.086q0-2.7.877-3.525a3.646,3.646,0,0,1,2.5-.625v2.109a1.608,1.608,0,0,0-1.265.472,2.563,2.563,0,0,0-.034,2.766,1.512,1.512,0,0,0,1.215.472h9.766v-5.937h1.939Zm-5.869,3.66H253.8v-1.805h1.94Zm16.474-5.853V114h-1.181v1.046a2.966,2.966,0,0,1-.776,2.4,5.213,5.213,0,0,1-1.788.641,10.628,10.628,0,0,1-2.5.337l-.995-2.007q.675,0,1.94-.118a3.915,3.915,0,0,0,1.467-.287,1.511,1.511,0,0,0,.472-1.214v-.776h-2.479a3.535,3.535,0,0,1-2.26-.557,3.152,3.152,0,0,1-.928-1.433,4.742,4.742,0,0,1-.236-1.957,6.609,6.609,0,0,1,.472-1.99,3.5,3.5,0,0,1,1.316-1.552,3.7,3.7,0,0,1,2.142-.624h4.149v5.9Zm-3.357-4H266.99a1.887,1.887,0,0,0-1.855,1.2,2.483,2.483,0,0,0-.085,1.94,1.158,1.158,0,0,0,1.114.86h2.7Zm18.374-1.973V111.1a2.712,2.712,0,0,1-.826,2.176,4.157,4.157,0,0,1-2.75.725,5.983,5.983,0,0,1-2.057-.287,1.7,1.7,0,0,1-1.012-.826,1.649,1.649,0,0,1-1.012.809,5.606,5.606,0,0,1-2.041.3q-2.142,0-2.868-.961Q274,114,271.887,114h-.337v-2.193q1.823,0,2.21-.708a3.146,3.146,0,0,0,.185-1.366v-3.9h2.176v3.9a3.112,3.112,0,0,0,.169,1.366,1.868,1.868,0,0,0,1.922.708q1.385-.151,1.384-1.2v-3.643h1.973v3.643a1.013,1.013,0,0,0,.557.894,2.5,2.5,0,0,0,1.2.32,2.158,2.158,0,0,0,1.214-.287,1.055,1.055,0,0,0,.54-.944v-4.756Zm3.537-4.335v9.04a1.082,1.082,0,0,0,.438.979,2.8,2.8,0,0,0,.995.286h.338V114h-.354a4.261,4.261,0,0,1-2.767-.708,2.837,2.837,0,0,1-.826-2.244V101.5Zm2.486,4.284,7.118,1.029a2.731,2.731,0,0,1,2.007.978,4.085,4.085,0,0,1,.557,2.142l.168.81a1.113,1.113,0,0,0,.861.978,6.782,6.782,0,0,0,1.383.084h.168V114h-.286q-2.193,0-2.885-1.079a1.373,1.373,0,0,1-.151.219,3.192,3.192,0,0,1-2.547.86h-7.793v-2.193h7.692q1.619,0,1.619-1.416v-.253q0-.979-1.434-1.181l-6.612-.978ZM308.8,101.5v9.546a2.833,2.833,0,0,1-.826,2.244,4.259,4.259,0,0,1-2.767.708h-.354v-2.193h.338a2.839,2.839,0,0,0,1.012-.286,1.072,1.072,0,0,0,.421-.979V101.5Zm3.515,12.5h-2.175V101.5h2.175Z" fill="#666"/>
    <path id="Path_149" data-name="Path 149" d="M110.272,124.036v7.207a.86.86,0,0,0,.35.78,2.218,2.218,0,0,0,.793.229h.269V134H111.4a3.389,3.389,0,0,1-2.205-.565,2.253,2.253,0,0,1-.659-1.788v-7.611Zm5.533,3.469v3.738q0,.714.47.9a4.243,4.243,0,0,0,1.251.108h.134V134h-.134a3.569,3.569,0,0,1-2.568-.861,3.573,3.573,0,0,1-2.569.861h-1.25v-1.748h1.25a4.411,4.411,0,0,0,1.251-.108q.471-.187.47-.9V127.5Zm-1.143,9.413h-1.547v-1.439h1.547Zm2.178,0h-1.546v-1.439h1.546Zm1.4-9.467,5.661.807a2.235,2.235,0,0,1,1.613.794,3.686,3.686,0,0,1,.444,2.084,3.244,3.244,0,0,1-.6,2.178,2.566,2.566,0,0,1-2.03.686h-6.2v-1.748h6.131q1.278,0,1.278-1.13v-.2q0-.78-1.13-.942l-5.271-.779Zm4.168,9.467h-1.546v-1.439h1.546Zm11.991-4.666V134h-.941v.834a2.364,2.364,0,0,1-.618,1.909,4.15,4.15,0,0,1-1.426.511,8.492,8.492,0,0,1-1.99.269l-.793-1.6q.537,0,1.546-.094a3.128,3.128,0,0,0,1.17-.229,1.2,1.2,0,0,0,.376-.968v-.619H129.75a2.819,2.819,0,0,1-1.8-.443,2.518,2.518,0,0,1-.74-1.143,3.783,3.783,0,0,1-.188-1.56,5.246,5.246,0,0,1,.377-1.587,2.789,2.789,0,0,1,1.048-1.237,2.948,2.948,0,0,1,1.708-.5h3.308v4.706Zm-2.676-3.187h-1.492a1.5,1.5,0,0,0-1.479.955,1.976,1.976,0,0,0-.067,1.546.923.923,0,0,0,.887.686h2.151Zm5.29-5.029v7.611a2.256,2.256,0,0,1-.659,1.788,3.389,3.389,0,0,1-2.205.565h-.283v-1.748h.269a2.244,2.244,0,0,0,.807-.229.853.853,0,0,0,.336-.78v-7.207Zm8.437,8.216V134h-.942v.834a2.364,2.364,0,0,1-.618,1.909,4.141,4.141,0,0,1-1.426.511,8.492,8.492,0,0,1-1.99.269l-.793-1.6q.537,0,1.546-.094a3.116,3.116,0,0,0,1.17-.229,1.205,1.205,0,0,0,.377-.968v-.619H140.8a2.819,2.819,0,0,1-1.8-.443,2.508,2.508,0,0,1-.739-1.143,3.766,3.766,0,0,1-.189-1.56,5.275,5.275,0,0,1,.377-1.587,2.791,2.791,0,0,1,1.049-1.237,2.943,2.943,0,0,1,1.707-.5h3.308v4.706Zm-2.676-3.187h-1.493a1.5,1.5,0,0,0-1.479.955,1.976,1.976,0,0,0-.067,1.546.923.923,0,0,0,.887.686h2.152Zm5.5-2.985h-1.546v-1.439h1.546Zm.054,1.425v3.738q0,.728.457.9a4.411,4.411,0,0,0,1.251.108V134h-.2a3.285,3.285,0,0,1-2.367-.861,3.491,3.491,0,0,1-2.554.861v-1.748a4.407,4.407,0,0,0,1.25-.108q.458-.174.457-.9V127.5Zm7.938-1.869-2.743.175a1.856,1.856,0,0,0-.982.229.888.888,0,0,0-.363.632.837.837,0,0,0,.107.537,1.43,1.43,0,0,0,.444.417l2.515,1.614a3.216,3.216,0,0,1,.968.834,3.391,3.391,0,0,1,.188,1.237l.027.148a.9.9,0,0,0,.686.753,8.147,8.147,0,0,0,1.089.04V134h-.256a2.541,2.541,0,0,1-2.03-.686.377.377,0,0,0-.067.081,2.2,2.2,0,0,1-1.721.6h-4.626v-1.748h3.778q1.251,0,1.251-.74a1.981,1.981,0,0,0-.081-.672.8.8,0,0,0-.363-.4l-2.138-1.332a5.234,5.234,0,0,1-1.25-.968,2,2,0,0,1-.3-1.17,3.157,3.157,0,0,1,.551-2.084,2.278,2.278,0,0,1,1.641-.618l3.671-.189Zm4.994.43h-1.546v-1.438h1.546Zm2.179,0H161.9v-1.438h1.547ZM162.4,127.5v3.738q0,.714.47.9a4.248,4.248,0,0,0,1.251.108h.135V134h-.135a3.569,3.569,0,0,1-2.568-.861,3.573,3.573,0,0,1-2.569.861h-1.317v-1.748h1.317a4.411,4.411,0,0,0,1.251-.108q.471-.187.471-.9V127.5Zm4.46-3.469v7.611a2.253,2.253,0,0,1-.659,1.788,3.389,3.389,0,0,1-2.205.565h-.282v-1.748h.269a2.244,2.244,0,0,0,.806-.229.851.851,0,0,0,.337-.78v-7.207Zm2.8,9.964h-1.735v-9.964h1.735Zm7.509-6.454v7.288a2.364,2.364,0,0,1-.618,1.909,4.132,4.132,0,0,1-1.426.511,8.492,8.492,0,0,1-1.99.269l-.793-1.6q.539,0,1.546-.094a3.116,3.116,0,0,0,1.17-.229,1.205,1.205,0,0,0,.377-.968v-.619h-1.977a2.819,2.819,0,0,1-1.8-.443,2.508,2.508,0,0,1-.739-1.143,3.783,3.783,0,0,1-.189-1.56,5.276,5.276,0,0,1,.377-1.587,2.792,2.792,0,0,1,1.049-1.237,2.943,2.943,0,0,1,1.707-.5Zm-1.734,1.519h-1.493a1.5,1.5,0,0,0-1.479.955,1.981,1.981,0,0,0-.067,1.546.923.923,0,0,0,.887.686h2.152Zm10.793-1.587a3.83,3.83,0,0,1,2.367.592,2.653,2.653,0,0,1,.82,2.192v.914a2.728,2.728,0,0,1-.766,2.192,3.674,3.674,0,0,1-2.394.645,5.163,5.163,0,0,1-1.869-.282q-1.357.35-1.358,1.466v2.124H181.28V135.2a2.793,2.793,0,0,1,1.95-2.7,4.214,4.214,0,0,1-.175-1.318v-.914a2.685,2.685,0,0,1,.807-2.179A3.7,3.7,0,0,1,186.228,127.478Zm.027,1.466a1.678,1.678,0,0,0-1.022.256,1.294,1.294,0,0,0-.417,1.089v.86a1.485,1.485,0,0,0,.337,1.1,1.542,1.542,0,0,0,1.075.323,1.254,1.254,0,0,0,1.412-1.426v-.86A1.207,1.207,0,0,0,186.255,128.944Zm11.612,3.308V134h-.941v.834a2.361,2.361,0,0,1-.619,1.909,4.133,4.133,0,0,1-1.425.511,8.5,8.5,0,0,1-1.99.269l-.794-1.6q.538,0,1.547-.094a3.128,3.128,0,0,0,1.17-.229,1.2,1.2,0,0,0,.376-.968v-.619h-1.977a2.816,2.816,0,0,1-1.8-.443,2.509,2.509,0,0,1-.74-1.143,3.783,3.783,0,0,1-.188-1.56,5.275,5.275,0,0,1,.376-1.587,2.792,2.792,0,0,1,1.049-1.237,2.944,2.944,0,0,1,1.708-.5h3.308v4.706Zm-2.676-3.187H193.7a1.5,1.5,0,0,0-1.479.955,1.981,1.981,0,0,0-.067,1.546.924.924,0,0,0,.888.686h2.151Zm5.289-5.029v7.221a.862.862,0,0,0,.35.78,2.24,2.24,0,0,0,.793.215h.269V134h-.282a3.819,3.819,0,0,1-2-.417,3.78,3.78,0,0,1-1.99.417h-.282v-1.748h.269a2.257,2.257,0,0,0,.807-.229.838.838,0,0,0,.336-.766v-7.221Zm8.362,4.142c.206.224.359.4.457.524a3.538,3.538,0,0,1,.35.605,1.769,1.769,0,0,1,.2.793v1.426c0,.1-.1.233-.3.4a2.258,2.258,0,0,0-.35.323h2.111V134h-9.964v-1.748h2.716a1.06,1.06,0,0,1-.107-.363.661.661,0,0,0-.121-.363l-1.116-1.237v-2.232a9.018,9.018,0,0,1,2.366-.874,4.136,4.136,0,0,1,1.816-.027,4.231,4.231,0,0,1,1.17.43A2.97,2.97,0,0,1,208.842,128.178Zm-4.357,1.4,1.116,1.452c.027.036.081.117.162.242s.143.207.188.269a3.247,3.247,0,0,0,.269.229,1.945,1.945,0,0,0,.43.228q.336-.134.525-.215c.134-.062.282-.139.443-.228a1.289,1.289,0,0,0,.363-.256.4.4,0,0,0,.121-.269v-.672a1.106,1.106,0,0,0-.511-.914,2.2,2.2,0,0,0-1.358-.377A3.487,3.487,0,0,0,204.485,129.576Zm9.449-5.54v7.221a.862.862,0,0,0,.349.78,2.247,2.247,0,0,0,.794.215h.269V134h-.283a3.812,3.812,0,0,1-2-.417,3.784,3.784,0,0,1-1.99.417h-.283v-1.748h.269a2.244,2.244,0,0,0,.807-.229.838.838,0,0,0,.336-.766v-7.221Zm4.018,0v7.611a2.256,2.256,0,0,1-.659,1.788,3.389,3.389,0,0,1-2.205.565H214.8v-1.748h.269a2.244,2.244,0,0,0,.807-.229.853.853,0,0,0,.336-.78v-7.207Zm8.66,3.133h-1.8V125.73h1.8Zm3.254.3v6.683a2.594,2.594,0,0,1-.821,1.963,3.943,3.943,0,0,1-1.949,1.009,6.021,6.021,0,0,1-2.34.053,4.091,4.091,0,0,1-1.963-.806,2.741,2.741,0,0,1-.78-2.219v-4.653h1.748v4.653a1.359,1.359,0,0,0,.35,1.062,2.821,2.821,0,0,0,2.366.471q1.641-.269,1.641-1.533v-6.683ZM232.671,134h-1.734v-9.964h1.734Zm2.481-6.347h5.486a2.8,2.8,0,0,1,2.152.686,3.6,3.6,0,0,1,.645,2.461,3.864,3.864,0,0,1-.578,2.42,2.692,2.692,0,0,1-2.219.78h-6.885v-1.748h6.885a1.384,1.384,0,0,0,1.076-.35,1.7,1.7,0,0,0,.282-1.075,1.727,1.727,0,0,0-.282-1.143,1.53,1.53,0,0,0-1.076-.283h-5.486Zm16.725,4.6V134h-.941v.834a2.364,2.364,0,0,1-.619,1.909,4.133,4.133,0,0,1-1.425.511,8.5,8.5,0,0,1-1.99.269l-.794-1.6q.538,0,1.547-.094a3.114,3.114,0,0,0,1.169-.229,1.205,1.205,0,0,0,.377-.968v-.619h-1.977a2.821,2.821,0,0,1-1.8-.443,2.516,2.516,0,0,1-.739-1.143,3.783,3.783,0,0,1-.188-1.56,5.245,5.245,0,0,1,.376-1.587,2.792,2.792,0,0,1,1.049-1.237,2.944,2.944,0,0,1,1.708-.5h3.308v4.706Zm-2.676-3.187h-1.493a1.5,1.5,0,0,0-1.479.955,1.981,1.981,0,0,0-.067,1.546.924.924,0,0,0,.888.686H249.2Zm14.621-1.573v4.034a.877.877,0,0,0,.7.686,7.436,7.436,0,0,0,1.062.04V134h-.2a2.521,2.521,0,0,1-2.071-.713l-.148.135a3.245,3.245,0,0,1-2.191.578,4.7,4.7,0,0,1-1.627-.229,1.412,1.412,0,0,1-.821-.658,1.373,1.373,0,0,1-.793.645,4.579,4.579,0,0,1-1.654.242,2.633,2.633,0,0,1-2.178-.793,2.491,2.491,0,0,1-2.206.793h-.349v-1.748h.215a2.326,2.326,0,0,0,1.412-.269q.282-.241.282-1.3v-3.187h1.708v2.985q.014.672.013,1.1a.759.759,0,0,0,.511.537,2.038,2.038,0,0,0,.942.148q1.3-.079,1.3-.968v-2.9H259.3v2.9a.8.8,0,0,0,.444.726,1.815,1.815,0,0,0,.955.242,1.7,1.7,0,0,0,.954-.228.845.845,0,0,0,.431-.753v-3.792Zm4.378-3.456v7.611a2.256,2.256,0,0,1-.659,1.788,3.391,3.391,0,0,1-2.2.565h-.283v-1.748h.269a2.244,2.244,0,0,0,.807-.229.853.853,0,0,0,.336-.78v-7.207ZM271,134h-1.734v-9.964H271Zm6.671-7.934h-1.547v-1.438h1.547Zm2.178,0H278.3v-1.438h1.547Zm-1.627,1.439a3.908,3.908,0,0,1,1.963.377,1.694,1.694,0,0,1,.7,1.049q.095.309.323,1.492a4.38,4.38,0,0,0,.417,1.3,1.032,1.032,0,0,0,.955.524h.268V134h-.268q-2.354,0-2.865-1.775l-.349-1.99a3.6,3.6,0,0,0-.242-.941,1.007,1.007,0,0,0-.9-.363,1.652,1.652,0,0,0-.915.228,1.155,1.155,0,0,0-.457,1.049v.888a1.259,1.259,0,0,0,.269.927,1.612,1.612,0,0,0,1.009.229h1.452V134h-1.9a2.805,2.805,0,0,1-1.99-.565,2.563,2.563,0,0,1-.578-1.923v-1.371a2.6,2.6,0,0,1,.672-2.084A3.958,3.958,0,0,1,278.224,127.5Zm11.574.673q.309.336.457.524a3.539,3.539,0,0,1,.35.605,1.769,1.769,0,0,1,.2.793v1.426c0,.1-.1.233-.3.4a2.281,2.281,0,0,0-.349.323h2.111V134h-9.964v-1.748h2.716a1.017,1.017,0,0,1-.107-.363.669.669,0,0,0-.121-.363l-1.117-1.237v-2.232a9.037,9.037,0,0,1,2.367-.874,4.132,4.132,0,0,1,1.815-.027,4.231,4.231,0,0,1,1.17.43A2.958,2.958,0,0,1,289.8,128.178Zm-4.357,1.4,1.116,1.452c.027.036.081.117.161.242s.144.207.189.269a3.08,3.08,0,0,0,.269.229,1.946,1.946,0,0,0,.43.228q.336-.134.524-.215c.135-.062.283-.139.444-.228a1.321,1.321,0,0,0,.363-.256.4.4,0,0,0,.121-.269v-.672a1.107,1.107,0,0,0-.511-.914,2.2,2.2,0,0,0-1.358-.377A3.484,3.484,0,0,0,285.441,129.576Zm11.344-2.1a3.83,3.83,0,0,1,2.367.592,2.653,2.653,0,0,1,.82,2.192v.914a2.728,2.728,0,0,1-.766,2.192,3.674,3.674,0,0,1-2.394.645c-.251,0-.439,0-.564-.013a3.116,3.116,0,0,1-1.735-.5l-.161-.121-.2-.2q-.5.821-2.2.82h-.2v-1.748a6.811,6.811,0,0,0,1.116-.054.893.893,0,0,0,.686-.753l.067-.336v-.847a2.685,2.685,0,0,1,.807-2.179A3.73,3.73,0,0,1,296.785,127.478Zm.027,1.466a1.678,1.678,0,0,0-1.022.256,1.294,1.294,0,0,0-.416,1.089v.86a1.489,1.489,0,0,0,.336,1.1,1.512,1.512,0,0,0,1.075.323,1.254,1.254,0,0,0,1.412-1.426v-.86A1.206,1.206,0,0,0,296.812,128.944Zm5.962-4.908v7.207a.86.86,0,0,0,.349.78,2.225,2.225,0,0,0,.794.229h.269V134H303.9a3.389,3.389,0,0,1-2.205-.565,2.256,2.256,0,0,1-.659-1.788v-7.611Zm1.982,3.415,5.661.807a2.24,2.24,0,0,1,1.614.794,3.686,3.686,0,0,1,.444,2.084,3.238,3.238,0,0,1-.606,2.178,2.566,2.566,0,0,1-2.03.686h-6.2v-1.748h6.132q1.276,0,1.277-1.13v-.2q0-.78-1.129-.942l-5.271-.779Zm4.169,9.467h-1.547v-1.439h1.547Z" fill="#666"/>
  </g>
</svg>
