<svg xmlns="http://www.w3.org/2000/svg" width="92.126" height="107.69" viewBox="0 0 92.126 107.69">
  <g id="Group_5" data-name="Group 5" transform="translate(-330.943 -58)">
    <path id="Path_136" data-name="Path 136" d="M363.307,76.873,376.716,68.7l13.091,8.175-2.422,1.759s-8.535-5.955-10.684-5.955-9.876,5.955-9.876,5.955Z" fill="#ee885e"/>
    <path id="Path_138" data-name="Path 138" d="M417.808,124.209c2.638-14.2,2-28.246,1.442-41.885l-.216-5c-.174-4.455-1.947-6.762-6.071-7.945a131.978,131.978,0,0,0-36.132-5.191,130.02,130.02,0,0,0-36.045,5.205c-4.167,1.211-5.854,3.46-6.027,8l-.188,4.83c-.548,13.524-1.1,27.466,1.125,41.25a59.81,59.81,0,0,1-4.441-20.935c-.389-6.618-.332-13.409-.259-19.969,0-3.965.072-8.089,0-12.126,0-2.307.706-3.3,3.2-4.326A119.673,119.673,0,0,1,376.831,58a117.436,117.436,0,0,1,42.332,8.089l.62.231c2.076.764,2.884,1.168,2.884,2.567,0,3.258.115,6.517.2,9.776.389,14.865.778,30.279-4.715,44.7A4.962,4.962,0,0,0,417.808,124.209Z" fill="#0d699d"/>
    <path id="Path_139" data-name="Path 139" d="M390.038,117.994c-.159-.793-.361-1.586-.592-2.379a20.4,20.4,0,0,0-3.128-6.6,14.863,14.863,0,0,0-4.326-3.965,10.091,10.091,0,0,0-5.075-1.442,10.267,10.267,0,0,0-5.335,1.557,15.246,15.246,0,0,0-4.527,4.326,20.568,20.568,0,0,0-3.2,7.151c-.13.476-.216.952-.3,1.442a33.637,33.637,0,0,0-.548,5.983c0,2.884-.072,6-.1,9.127v.116c-.072,5.868-.115,11.664-.115,15.456a7.935,7.935,0,0,0,.1,1.182c.072.332.159.678.26.995a6.642,6.642,0,0,0,.317.851,14.459,14.459,0,0,0,1.254,2.307,23.233,23.233,0,0,0,1.889,2.494,51.96,51.96,0,0,0,6,5.767c1.846,1.543,3.2,2.524,3.215,2.552l1.082.779,1.11-.75a52.056,52.056,0,0,0,6.1-5.061,29.239,29.239,0,0,0,4.325-5.132l.072-.1a17.31,17.31,0,0,0,1.211-2.278v-.2a.252.252,0,0,1,.087-.217,1.9,1.9,0,0,0,.2-.576.177.177,0,0,0,0-.116,8.848,8.848,0,0,0,.432-2.681V122.623A25.121,25.121,0,0,0,390.038,117.994Zm-3.259,4.845v25.794a8.4,8.4,0,0,1-1.543,4.225,31.248,31.248,0,0,1-5.767,6.329c-.966.808-1.831,1.442-2.465,1.961a66.879,66.879,0,0,1-5.148-4.469,30.1,30.1,0,0,1-3.821-4.326,10.921,10.921,0,0,1-1.139-2.018,7.634,7.634,0,0,1-.245-.75,3.231,3.231,0,0,1-.1-.764c0-3.764,0-9.588.116-15.486,0-3.114.072-6.243.1-9.1a29.9,29.9,0,0,1,.735-6.546,16.819,16.819,0,0,1,2.61-5.768,11.686,11.686,0,0,1,3.4-3.287,6.6,6.6,0,0,1,3.389-1.009,6.461,6.461,0,0,1,3.215.908,10.707,10.707,0,0,1,3.23,2.97,16.59,16.59,0,0,1,2.523,5.364,23.275,23.275,0,0,1,.951,6.142Z" fill="#ee885e"/>
    <path id="Path_140" data-name="Path 140" d="M409.575,130.495A25.707,25.707,0,0,1,392.2,154.66a6.952,6.952,0,0,1-2,.432,14.186,14.186,0,0,0,1.745-4.325A21.861,21.861,0,0,0,405.8,130.581a22.122,22.122,0,0,0-1.226-7.209,16.962,16.962,0,0,0-1.658-3.561,5.638,5.638,0,0,0-2.292-2.062,5.506,5.506,0,0,0-2.293-.447,6.246,6.246,0,0,0-2.465.447,4.9,4.9,0,0,0-1.687,1.182,10.19,10.19,0,0,0-2,3.389,27.694,27.694,0,0,0-.837-5.883,8.823,8.823,0,0,1,3.071-2.177,9.93,9.93,0,0,1,3.908-.735,9.333,9.333,0,0,1,3.835.778,8.656,8.656,0,0,1,2.884,2.076,16.244,16.244,0,0,1,3.128,5.768A25.644,25.644,0,0,1,409.575,130.495Z" fill="#ee885e"/>
    <path id="Path_141" data-name="Path 141" d="M361.909,152.425a18.445,18.445,0,0,0,1.947,3.331,67.867,67.867,0,0,1-16.7-13.063,10.1,10.1,0,0,1-2.263-4.513,24.072,24.072,0,0,1-.62-5.767,35.791,35.791,0,0,1,.749-7.21,24.352,24.352,0,0,1,2.163-6.344,9.69,9.69,0,0,1,2.408-3.071,9.43,9.43,0,0,1,5.955-2.22,8.793,8.793,0,0,1,4.325,1.168,10.345,10.345,0,0,1,2.264,1.744,32.3,32.3,0,0,0-.764,5.494,14.8,14.8,0,0,0-1.038-1.788,7.114,7.114,0,0,0-2.25-2.192,4.931,4.931,0,0,0-2.508-.692,5.767,5.767,0,0,0-3.591,1.37,6.148,6.148,0,0,0-1.441,1.932,17.386,17.386,0,0,0-1.3,3.331A31.273,31.273,0,0,0,348,132.413a20.921,20.921,0,0,0,.5,4.83,6.6,6.6,0,0,0,1.3,2.883,63.417,63.417,0,0,0,11.376,9.588A9.729,9.729,0,0,0,361.909,152.425Z" fill="#ee885e"/>
    <path id="Path_142" data-name="Path 142" d="M377.135,96.511l-.029-1.759a8.194,8.194,0,0,1-5.623-2.451,7.84,7.84,0,0,1-2.25-5.566,8.334,8.334,0,0,1,2.264-5.58,6.949,6.949,0,0,1,4.989-2.336,7.786,7.786,0,0,1,5.58,2.249,7.9,7.9,0,0,1,2.22,5.638v.115a8.495,8.495,0,0,1-2.22,5.623,6.706,6.706,0,0,1-4.874,2.307h-.086V98.53h.144a10.495,10.495,0,0,0,7.67-3.6,12.282,12.282,0,0,0,3.2-8.146,11.418,11.418,0,0,0-11.534-11.664,10.653,10.653,0,0,0-7.743,3.532,12.224,12.224,0,0,0-3.287,8.132v.159a11.535,11.535,0,0,0,3.287,7.988,11.982,11.982,0,0,0,8.262,3.6Z" fill="#ee885e"/>
    <path id="Path_143" data-name="Path 143" d="M360.7,101.63h-1.888a6.729,6.729,0,0,1-1.932,4.613A6.436,6.436,0,0,1,352.32,108h-.346a6.649,6.649,0,0,1-4.484-1.947,6.319,6.319,0,0,1-1.759-4.455v-.563a8.418,8.418,0,0,1,.649-2.768,5.063,5.063,0,0,1,2.148-2.451,8.408,8.408,0,0,1,3.879-.98h.216a5.854,5.854,0,0,1,4.326,1.961,6.884,6.884,0,0,1,1.86,4.643v.188h3.777v-.217A10.624,10.624,0,0,0,359.7,94.2a9.661,9.661,0,0,0-7.051-3.158h-.332a13.707,13.707,0,0,0-3.921.706,9.07,9.07,0,0,0-4.47,3.3,11.265,11.265,0,0,0-1.947,5.637v.88a10.1,10.1,0,0,0,2.884,7.094,10.439,10.439,0,0,0,7.022,3.085h.432a10.162,10.162,0,0,0,7.209-2.883,10.52,10.52,0,0,0,3.057-7.238Z" fill="#ee885e"/>
    <path id="Path_144" data-name="Path 144" d="M380.681,129.1a4.793,4.793,0,0,0-2.971-1.542V106.186h-1.961v21.5a4.675,4.675,0,0,0-.634.2,4.515,4.515,0,0,0-2.206,1.644,5.782,5.782,0,0,0-.923,2.8v.461a5.017,5.017,0,0,0,4.845,5.018h.245a4.935,4.935,0,0,0,3.547-1.442,5.25,5.25,0,0,0,1.442-3.576v-.115A5.292,5.292,0,0,0,380.681,129.1Zm-.462,3.677a3.285,3.285,0,0,1-.937,2.278,3.135,3.135,0,0,1-2.235.894h-.216a3.3,3.3,0,0,1-2.192-.98,3.161,3.161,0,0,1-.865-2.192v-.3a3.989,3.989,0,0,1,.332-1.442,2.366,2.366,0,0,1,1.052-1.211,3.88,3.88,0,0,1,1.9-.49h.1a2.884,2.884,0,0,1,2.091.981,3.4,3.4,0,0,1,.908,2.306Z" fill="#ee885e"/>
    <path id="Path_145" data-name="Path 145" d="M358.982,132.86a3.879,3.879,0,0,0-2.581-.88,36.835,36.835,0,0,1-1.283-8.406c.158-4.138.533-8.968.533-8.968l-1.586.245s-.533,5.277-.533,8.925a46.507,46.507,0,0,0,1.3,8.55,3.114,3.114,0,0,0-.49.245,3.61,3.61,0,0,0-1.571,1.572,4.491,4.491,0,0,0-.4,2.379,2.923,2.923,0,0,0,0,.375,4.094,4.094,0,0,0,4.527,3.475h.2a4.04,4.04,0,0,0,2.682-1.586,4.331,4.331,0,0,0,.764-3.071v-.13A4.326,4.326,0,0,0,358.982,132.86Zm.086,3.013a2.693,2.693,0,0,1-.475,1.961,2.573,2.573,0,0,1-1.7.995h-.13a2.744,2.744,0,0,1-1.9-.519,2.671,2.671,0,0,1-.966-1.673v-.23a3.53,3.53,0,0,1,.1-1.154,1.927,1.927,0,0,1,.707-1.11,3.229,3.229,0,0,1,1.441-.634h.087a2.378,2.378,0,0,1,1.8.533,2.749,2.749,0,0,1,1.024,1.759Z" fill="#ee885e"/>
    <path id="Path_146" data-name="Path 146" d="M392.691,135.585v.1a4.332,4.332,0,0,0,.764,3.072,4.014,4.014,0,0,0,2.668,1.586h.216a4.2,4.2,0,0,0,2.97-.822,4.067,4.067,0,0,0,1.543-2.653,2.934,2.934,0,0,0,0-.375,4.8,4.8,0,0,0-.4-2.379,3.674,3.674,0,0,0-1.571-1.572,3.08,3.08,0,0,0-.491-.245,47.865,47.865,0,0,0,1.3-8.55c0-3.648-.533-8.925-.533-8.925l-1.586-.245s.36,4.83.533,8.968a37.747,37.747,0,0,1-1.283,8.406,3.848,3.848,0,0,0-2.581.88A4.324,4.324,0,0,0,392.691,135.585Zm1.442.23a2.8,2.8,0,0,1,1.009-1.759,2.4,2.4,0,0,1,1.817-.533h.086a3.239,3.239,0,0,1,1.442.634,2.1,2.1,0,0,1,.707,1.11,3.529,3.529,0,0,1,.086,1.154v.231a2.612,2.612,0,0,1-.98,1.672,2.684,2.684,0,0,1-1.889.519h-.144a2.567,2.567,0,0,1-1.687-.995,2.7,2.7,0,0,1-.447-1.975Z" fill="#ee885e"/>
    <path id="Path_147" data-name="Path 147" d="M401.458,110.021v-1.889h-.116a6.333,6.333,0,0,1-4.57-1.874A6.518,6.518,0,0,1,394.9,101.6v-.188a9.359,9.359,0,0,1,.476-2.883,4.771,4.771,0,0,1,1.875-2.538,7.321,7.321,0,0,1,3.835-1.067h.418a6.215,6.215,0,0,1,6.589,6.272v.159a5.246,5.246,0,0,1-.562,2.292,8.647,8.647,0,0,1-2.668,3.172,6.172,6.172,0,0,1-3.446,1.312v3.778a8.871,8.871,0,0,0,3.908-1,12.332,12.332,0,0,0,4.671-3.922,9.786,9.786,0,0,0,1.947-5.637v-.318a9.978,9.978,0,0,0-10.367-9.876h-.606a12.722,12.722,0,0,0-4.037.807,8.478,8.478,0,0,0-4.325,3.6,11.656,11.656,0,0,0-1.442,5.767v.332a10.351,10.351,0,0,0,2.97,7.252,10.175,10.175,0,0,0,7.209,2.985h.116Z" fill="#ee885e"/>
  </g>
</svg>
