<svg xmlns="http://www.w3.org/2000/svg" width="501.655" height="406.476" viewBox="0 0 501.655 406.476">
  <g id="pic2" transform="translate(-41.25 -44.314)">
    <path id="Path_223" data-name="Path 223" d="M541.576,243.345a112.5,112.5,0,0,0-.284-17.923c-2.3-22.438-11.178-43.113-24.994-58.229-14.219-15.211-24.22-10.6-41.694-14.384A30,30,0,0,0,453.733,156c.916-32.845-9.685-59.614-31-79.786C379.049,34.966,327.781,52.1,293.67,99,278,64.292,254.03,38.831,219.224,46.062c-29.924,6.211-54.918,38.287-58.457,75-12.639-5.769-27.285-3.077-39.5,4.135s-22.53,18.423-32.2,30.038c-11.66,13.98-22.941,29.1-29.418,47.383-4.392,12.4-4.408,25.1-4.534,38.326,0,2.192,3.539,35.422,6.7,32.191-47.888,48.941-1.359,139.323,48.535,152.784a63.426,63.426,0,0,0,63.624-19.076c20.494,16.832,43.457,28.707,67.637,34.98,33.415,8.673,69.248,12,102.19-1.192,8.374-3.346,15.7-8.481,23.7-12.884,9.669-5.346,11.217-.654,21.282,3.288,16.905,6.615,35.627,4.481,52.39-1.731,17.916-6.634,36.86-21.6,38.171-44.345,19.117,1.6,39.2-8.615,49.689-28.115s9.48-47.96-4.092-64.4c2.48,3,14.03-28.153,14.551-31.057A149.76,149.76,0,0,0,541.576,243.345Z" transform="translate(0.289 0.475)" fill="#fff"/>
    <path id="Path_224" data-name="Path 224" d="M295.745,450.776a216.28,216.28,0,0,1-54.018-7.692,178.46,178.46,0,0,1-67.4-34.711,64.054,64.054,0,0,1-63.861,18.807c-30.019-8.1-59.484-44.556-67.226-83.017-5.546-27.384.585-52.383,17.237-70.113-3.4-4.673-5.877-31.5-5.862-32.691v-.923c.126-13.115.253-25.48,4.6-37.787,6.6-18.557,18.122-33.941,29.592-47.633,9.511-11.307,19.986-22.98,32.388-30.268,13.35-7.865,27.57-9.615,39.214-4.6,3.981-36.537,29.165-68.4,58.979-74.613,30.271-6.288,56.1,11.769,74.73,52.249C311.4,74.478,332.9,58.9,354.755,54.075c24.2-5.346,47.9,2.211,68.743,21.846,21.361,20.173,31.9,46.768,31.346,79.075a30.627,30.627,0,0,1,20.191-2.654,104.425,104.425,0,0,0,13.287,1.923c10.317.942,18.453,1.673,28.786,12.788,13.952,15.282,22.924,36.16,25.279,58.825a113.572,113.572,0,0,1,.284,18.115h0a155.922,155.922,0,0,1-2.149,18.1c-.411,2.269-9.385,27.4-13.761,31.441,12.481,16.442,13.967,44.23,3.16,64.325-10.112,18.807-29.513,29.961-49.625,28.615-1.264,15.115-12.023,34.384-38.677,44.23-13.414,4.961-33.479,9.307-52.849,1.731a59.511,59.511,0,0,1-6.7-3.173c-4.835-2.6-7.268-3.846-14.014-.154-2.48,1.365-4.945,2.846-7.315,4.269a118.473,118.473,0,0,1-16.415,8.654,129.309,129.309,0,0,1-48.583,8.75Zm-121.48-44.5a.826.826,0,0,1,.442.154c20.419,16.739,43.281,28.566,67.352,34.845,40.383,10.48,73.688,10.1,101.795-1.154A116.189,116.189,0,0,0,360,431.565c2.386-1.423,4.85-2.9,7.362-4.288,7.378-4.1,10.364-2.5,15.309.135a56.956,56.956,0,0,0,6.525,3.1c18.959,7.442,38.708,3.173,51.916-1.731,26.448-9.788,36.781-28.845,37.634-43.48a1.054,1.054,0,0,1,.264-.664.708.708,0,0,1,.573-.24c19.812,1.654,39.04-9.211,48.978-27.692,10.664-19.788,8.911-47.556-3.981-63.191h0a1.114,1.114,0,0,1,0-1.365.688.688,0,0,1,1.011-.1c2.591-1.038,12.639-26.576,13.319-30.461a148.088,148.088,0,0,0,2.117-17.826h0a109.009,109.009,0,0,0-.284-17.749C538.47,203.785,529.685,183.3,516,168.322c-9.922-10.673-17.822-11.4-27.838-12.307a105.779,105.779,0,0,1-13.461-1.923,29.332,29.332,0,0,0-20.4,3.135.672.672,0,0,1-.775-.075,1.042,1.042,0,0,1-.346-.848c.9-32.326-9.48-58.9-30.7-79-20.428-19.23-43.78-26.73-67.494-21.48C333.22,60.786,311.733,76.4,294.56,100.074a.8.8,0,0,1-.679.327.834.834,0,0,1-.616-.5c-23.13-51.191-52.8-56.787-73.609-52.46-29.481,6.115-54.334,38-57.809,74.152a.977.977,0,0,1-.372.7.655.655,0,0,1-.686.065c-11.407-5.231-25.579-3.654-38.9,4.038-12.165,7.25-22.577,18.692-31.978,30-11.36,13.615-22.751,28.845-29.244,47.076-4.218,11.942-4.345,24.134-4.471,37.037v.923c0,3.423,3.286,29.576,5.451,31.384a.7.7,0,0,1,1.059.154,1.135,1.135,0,0,1-.095,1.365h0C45.595,291.78,39.275,316.395,44.773,343.7c7.615,37.807,36.623,73.652,66.041,81.594a62.656,62.656,0,0,0,62.913-18.846A.688.688,0,0,1,174.264,406.277Z" transform="translate(0 0)" fill="#d1d3d4"/>
    <path id="Path_225" data-name="Path 225" d="M178.707,303.527c-16.131,0-16.226-2.865-19.228-13.461-5.4-19.115-15.61-33.788-26.258-48.845-39.5-55.768-26.006-143.015,41.2-157.688,45.565-10.019,83.657,19.326,91.462,73.306a118.183,118.183,0,0,1-13.35,74.729c-8.389,15.384-15.309,30.9-17.727,49.345-1.58,11.884-.837,18.9-17.98,18.9-6.209,0-12.4,1.173-18.6,1.808C191.726,302.066,185.232,303.527,178.707,303.527Z" transform="translate(40.553 34.405)" fill="#fff"/>
    <path id="Path_226" data-name="Path 226" d="M179,304.947c-15.436,0-16.716-2.442-19.623-12.846l-.348-1.288c-5.467-19.346-15.973-34.172-26.116-48.518C112.171,212.988,105.3,174.085,115,140.759c8.974-30.768,30.129-51.364,59.579-57.845,23.272-5.1,45.407,0,62.312,14.327,15.973,13.461,26.385,34.23,30.019,59.768,3.8,26.322-1.031,53.409-13.461,75.44-7.283,13.288-15.057,29.48-17.616,48.96-.126.981-.237,1.923-.348,2.865-1.217,10.134-2.007,16.846-18.406,16.846a98.85,98.85,0,0,0-12.639,1.1c-1.975.25-3.934.5-5.909.712-2.212.231-4.408.519-6.62.827A93.569,93.569,0,0,1,179,304.947ZM192,82.934a79.177,79.177,0,0,0-17.142,1.923C146,91.2,125.268,111.3,116.405,141.451c-9.48,32.691-2.749,70.844,17.632,99.632,10.238,14.48,20.839,29.441,26.4,49.152l.363,1.288c2.607,9.327,3.239,11.538,18.122,11.538a94.99,94.99,0,0,0,12.8-1.173c2.212-.308,4.44-.615,6.667-.846,1.959-.192,3.918-.442,5.877-.712a100.6,100.6,0,0,1,12.782-1.1c15.025,0,15.625-5.077,16.842-15.211.111-.923.221-1.923.363-2.885,2.591-19.826,10.475-36.268,17.853-49.729a116.337,116.337,0,0,0,13.224-74.036c-3.618-25-13.793-45.249-29.418-58.518C222.963,88.2,207.635,82.636,192,82.934Z" transform="translate(40.259 33.851)" fill="#231f20"/>
    <path id="Path_322" data-name="Path 322" d="M4.367-.078l57.926-1.03c2.412-.043,4.332,2.3,4.289,5.223L66.4,16.5c-.043,2.928-2.033,5.336-4.445,5.379L4.03,22.913c-2.412.043-4.332-2.3-4.289-5.223L-.078,5.3C-.035,2.373,1.955-.035,4.367-.078Z" transform="matrix(-0.997, 0.082, -0.082, -0.997, 273.659, 355.494)" fill="#fff"/>
    <path id="Path_227" data-name="Path 227" d="M151.078,224.612c-2.686,0-4.921-2.511-5.135-5.77l-.837-12.345c-.227-3.462,1.9-6.493,4.74-6.769l57.636-5.769c2.842-.266,5.326,2.312,5.561,5.769l.837,12.346c.227,3.462-1.9,6.493-4.74,6.769L151.5,224.612Zm.363-.962Zm56.435-27.807h-.284l-57.636,5.769a3.411,3.411,0,0,0-2.435,1.52,5,5,0,0,0-.836,3.172l.837,12.346c.168,2.391,1.89,4.169,3.855,3.981l57.636-5.769a3.411,3.411,0,0,0,2.435-1.52,5,5,0,0,0,.836-3.172l-.853-12.346C211.276,197.575,209.731,195.846,207.877,195.844Z" transform="translate(60.219 138.108)" fill="#231f20"/>
    <path id="Path_323" data-name="Path 323" d="M4.367-.078l57.926-1.03c2.412-.043,4.332,2.3,4.289,5.223L66.4,16.5c-.043,2.928-2.033,5.336-4.445,5.379L4.03,22.913c-2.412.043-4.332-2.3-4.289-5.223L-.078,5.3C-.035,2.373,1.955-.035,4.367-.078Z" transform="matrix(-0.997, 0.082, -0.082, -0.997, 275.226, 378.418)" fill="#fff"/>
    <path id="Path_228" data-name="Path 228" d="M152.068,236.543c-2.686,0-4.921-2.511-5.135-5.77l-.837-12.364a7.2,7.2,0,0,1,1.219-4.572,4.911,4.911,0,0,1,3.521-2.178l57.636-5.769c2.845-.277,5.335,2.307,5.561,5.769l.837,12.365c.227,3.462-1.9,6.493-4.74,6.769l-57.636,5.769h-.427Zm.363-.981Zm56.435-27.788h-.3l-57.636,5.769c-1.962.2-3.419,2.3-3.255,4.692l.837,12.365c.167,2.389,1.892,4.161,3.855,3.961L210,228.793a3.4,3.4,0,0,0,2.43-1.521,4.977,4.977,0,0,0,.825-3.171l-.837-12.365c-.171-2.237-1.709-3.951-3.555-3.961Z" transform="translate(60.794 149.119)" fill="#231f20"/>
    <path id="Path_229" data-name="Path 229" d="M152.06,223.633c.585,8.654,12.639,14.5,26.78,13.057s25.279-9.615,24.663-18.23Z" transform="translate(64.262 160.741)" fill="#231f20"/>
    <path id="Path_230" data-name="Path 230" d="M174.786,238.308c-12.8,0-22.656-5.769-23.225-14.173a.941.941,0,0,1,.727-1.038L203.73,218a.873.873,0,0,1,.853.885c.632,9.307-10.522,17.788-25.389,19.23Q176.95,238.308,174.786,238.308Zm-21.534-13.461c.616,3.423,3.3,6.423,7.678,8.557a34.3,34.3,0,0,0,18.138,2.692c13.192-1.327,23.62-8.5,23.952-16.25Z" transform="translate(63.971 160.315)" fill="#231f20"/>
    <path id="Path_231" data-name="Path 231" d="M168.87,247.063h0a.748.748,0,0,1-.551-.329,1.1,1.1,0,0,1-.191-.71,292.665,292.665,0,0,0-2.322-59.768,48.086,48.086,0,0,1-12.244-5.269,42.34,42.34,0,0,1-16.621-17.615c-4.092-8.423-4.74-18.557-1.833-26.442a7.8,7.8,0,0,1,5.1-5.461c4.882-1.192,10.143,4.231,11.628,5.923,9.29,10.5,12.26,28.557,14.646,43.057l.3,1.923.379,2.365a48.16,48.16,0,0,0,23.509,0,140.549,140.549,0,0,1,1.264-14.307c2.164-15.384,5.451-26.826,9.8-33.884a14.563,14.563,0,0,1,11.1-6.44,14.1,14.1,0,0,1,11.447,5.46,23.8,23.8,0,0,1,2.544,19.23,37.751,37.751,0,0,1-9.4,15.961A54.085,54.085,0,0,1,192.143,186.3c-.569,18.519,2.007,37.172,4.519,55.345l.316,2.269a.981.981,0,0,1-.648,1.115.823.823,0,0,1-.9-.788l-.316-2.269c-2.512-18.115-5.072-36.73-4.566-55.248a49.3,49.3,0,0,1-23.146.1,294.91,294.91,0,0,1,2.243,59.479.863.863,0,0,1-.774.769Zm-27.3-113.843a5.3,5.3,0,0,0-1.106.135,6.224,6.224,0,0,0-3.966,4.365,32.465,32.465,0,0,0,1.754,24.672,40.829,40.829,0,0,0,15.973,16.884,47.9,47.9,0,0,0,11.217,4.923c-.079-.5-.174-1.019-.253-1.519l-.3-1.923c-2.354-14.23-5.261-31.922-14.219-42.018-2.433-2.75-6-5.519-9.1-5.519Zm71.823-1.385h-.585a12.089,12.089,0,0,0-9.859,5.673c-4.187,6.827-7.378,17.942-9.48,33.057q-.925,6.741-1.217,13.577a52.924,52.924,0,0,0,24.11-14.98,35.96,35.96,0,0,0,8.942-15.134,21.6,21.6,0,0,0-2.228-17.307A11.756,11.756,0,0,0,213.393,131.836Z" transform="translate(53.392 79.177)" fill="#d1d3d4"/>
    <path id="Path_232" data-name="Path 232" d="M197.66,220.3c.648-3.058,1.264-6.1,1.928-9.134.348-1.577.758-3.135,1.169-4.692a3.719,3.719,0,0,1,3.681-3.25c1.991,0,3.966.385,5.956.577a13.889,13.889,0,0,0,3.16.192,3.165,3.165,0,0,0,2.133-1.058c2.086-2.846,4.076-5.769,6.035-8.769a4.851,4.851,0,0,0,.411-3.846c-.679-2.865-1.454-5.769-2.133-8.538a14.707,14.707,0,0,1-.474-3.4,3.62,3.62,0,0,1,.774-2.288,42.072,42.072,0,0,1,11.36-7.692,2.636,2.636,0,0,1,3.46,1.154c1.675,2.365,3.413,4.673,5.024,7.1a4.4,4.4,0,0,0,4.835,2.4c2.575-.481,5.2-.788,7.789-1.192a3.054,3.054,0,0,0,2.259-1.923c.822-1.769,1.58-3.577,2.386-5.346s1.359-3.058,2.1-4.558a2.852,2.852,0,0,1,3.507-1.923c3.713,1.173,7.426,2.385,11.059,3.711a3.909,3.909,0,0,1,2.228,4.058c0,2.461-.332,4.9-.49,7.365-.079,1.154-.142,2.308-.142,3.481a5.217,5.217,0,0,0,1.469,3.846c2.054,1.923,4.124,3.981,6.1,6.077a3.7,3.7,0,0,0,4.329,1.038c2.544-.923,5.056-1.923,7.6-2.865,1.711-.888,3.693.029,4.487,2.077,1.722,3.615,3.381,7.25,4.993,10.942a5.246,5.246,0,0,1,.672,3.441,4.641,4.641,0,0,1-1.588,2.962c-1.248,1.4-2.607,2.654-3.887,4.019a36.617,36.617,0,0,0-2.67,3.038,4.645,4.645,0,0,0-1,3.385c.284,3.269.537,6.557.885,9.846a5.163,5.163,0,0,0,2.449,4.154c1.58.942,3.16,1.827,4.645,2.788a26.263,26.263,0,0,1,2.812,1.923,4.208,4.208,0,0,1,1.58,4.615q-1.343,6.173-2.923,12.327a10.259,10.259,0,0,1-.679,1.769,2.832,2.832,0,0,1-2.923,2.019l-7.125-.731h-.537a4.756,4.756,0,0,0-5.214,2.808c-1.2,2.038-2.591,3.846-3.9,5.769a7.284,7.284,0,0,0-.9,6.327c.758,2.711,1.5,5.423,2.149,8.173s.3,4.231-1.833,5.769c-3.065,2.173-6.178,4.231-9.322,6.231a2.819,2.819,0,0,1-4.361-.942c-1.39-1.808-2.67-3.731-3.966-5.615-2.8-4.077-3.46-4.384-7.789-3.711l-5.056.846a4.869,4.869,0,0,0-3.792,3.211c-.9,2.173-1.738,4.384-2.686,6.519a21.148,21.148,0,0,1-1.754,3.135A2.175,2.175,0,0,1,243.3,299c-3.507-1.211-7.031-2.423-10.554-3.673a5.55,5.55,0,0,1-1.359-.788,3.7,3.7,0,0,1-1.6-3.6c.19-2.865.4-5.769.585-8.557v-2.615a4.981,4.981,0,0,0-1.422-3.711c-1.991-1.923-3.966-3.846-5.956-5.769a3.516,3.516,0,0,0-4.108-.808c-2.228.9-4.487,1.731-6.73,2.6l-.253.1c-2.954.942-3.95.577-5.467-2.654-1.675-3.577-3.239-7.25-4.74-10.942a4.38,4.38,0,0,1,.9-5.327,75.484,75.484,0,0,1,5.293-5.384,7.431,7.431,0,0,0,2.307-6.827c-.363-2.942-.616-5.9-.932-8.846a3.834,3.834,0,0,0-1.58-2.961c-2.133-1.385-4.282-2.731-6.32-4.134a7.433,7.433,0,0,1-3.46-3.846Zm78.538,9.115a30.623,30.623,0,0,0-8.115-19.343,20.573,20.573,0,0,0-17.005-6.58c-12.543,1.667-21.772,15.081-20.918,30.4,1.066,15.385,12.088,26.873,24.742,25.788C269.752,258.256,277.652,241.718,276.2,229.411Z" transform="translate(90.706 110.445)" fill="#ee885e"/>
    <path id="Path_233" data-name="Path 233" d="M210.826,97.964c.379-1.923.758-3.654,1.153-5.481.205-.942.458-1.923.711-2.808a2.233,2.233,0,0,1,2.2-1.923c1.2,0,2.386.231,3.586.346a8.175,8.175,0,0,0,1.928.115,1.865,1.865,0,0,0,1.28-.635c1.264-1.711,2.449-3.481,3.618-5.269A2.911,2.911,0,0,0,225.566,80c-.427-1.731-.885-3.423-1.3-5.134a9.061,9.061,0,0,1-.284-2.058,2.147,2.147,0,0,1,.474-1.365,25.128,25.128,0,0,1,6.825-4.615,1.574,1.574,0,0,1,2.07.692c1.011,1.423,2.054,2.808,3.018,4.269a2.7,2.7,0,0,0,2.907,1.442c1.58-.288,3.16-.481,4.74-.731a1.815,1.815,0,0,0,1.343-1.173c.49-1.058.948-2.135,1.438-3.211s.822-1.923,1.264-2.731a1.689,1.689,0,0,1,2.1-1.115c2.243.692,4.471,1.423,6.683,2.211a2.371,2.371,0,0,1,1.327,2.442c0,1.481-.19,2.942-.284,4.423,0,.692-.095,1.4-.095,2.1a3.13,3.13,0,0,0,.885,2.346c1.232,1.212,2.481,2.385,3.665,3.654a2.253,2.253,0,0,0,2.607.635c1.58-.577,3.033-1.173,4.55-1.731a1.938,1.938,0,0,1,2.7,1.25c1.043,2.173,2.038,4.365,3,6.558a3.179,3.179,0,0,1,.395,2.066,2.813,2.813,0,0,1-.948,1.78c-.743.846-1.58,1.6-2.322,2.4a12.98,12.98,0,0,0-1.58,1.923,2.768,2.768,0,0,0-.6,2.038c.174,1.923.316,3.846.521,5.923a3.2,3.2,0,0,0,1.485,2.5l2.8,1.654c.569.365,1.138.731,1.675,1.154a2.581,2.581,0,0,1,.916,2.769c-.569,2.461-1.138,4.9-1.738,7.346a5.33,5.33,0,0,1-.411,1.058A1.732,1.732,0,0,1,273.644,122l-4.361-.481h-.316a2.838,2.838,0,0,0-3.16,1.692c-.711,1.211-1.58,2.327-2.338,3.5a4.517,4.517,0,0,0-.537,3.846c.458,1.615.9,3.25,1.3,4.9a2.973,2.973,0,0,1,.081,2.039,2.289,2.289,0,0,1-1.2,1.423c-1.833,1.308-3.7,2.538-5.593,3.846a1.729,1.729,0,0,1-2.623-.577c-.822-1.1-1.58-2.231-2.386-3.365-1.675-2.461-2.07-2.654-4.74-2.231l-3.033.5a2.888,2.888,0,0,0-2.275,1.923c-.537,1.288-1.043,2.615-1.58,3.846a12.087,12.087,0,0,1-1.059,1.923,1.327,1.327,0,0,1-1.58.673l-6.32-2.211a4.082,4.082,0,0,1-.822-.481,2.221,2.221,0,0,1-1.011-2.135c.111-1.712.237-3.423.348-5.134v-1.577a3.02,3.02,0,0,0-.853-2.231l-3.586-3.442a2.114,2.114,0,0,0-2.465-.5c-1.343.538-2.7,1.038-4.045,1.558h-.158c-1.77.577-2.37.346-3.286-1.577s-1.943-4.365-2.86-6.577a2.674,2.674,0,0,1-.295-1.745,2.322,2.322,0,0,1,.832-1.466c1.027-1.115,2.086-2.211,3.16-3.231a4.492,4.492,0,0,0,1.39-4.1c-.221-1.769-.363-3.558-.553-5.327a2.331,2.331,0,0,0-.98-1.788c-1.28-.827-2.575-1.635-3.855-2.481a4.4,4.4,0,0,1-2.07-2.25Zm47.192,5.442a18.4,18.4,0,0,0-4.88-11.607,12.363,12.363,0,0,0-10.208-3.951c-7.543,1.009-13.106,9.05-12.639,18.269.638,9.247,7.262,16.153,14.867,15.5a13.085,13.085,0,0,0,9.585-5.805A19.263,19.263,0,0,0,258.018,103.406Z" transform="translate(98.332 18.34)" fill="#ee885e"/>
    <path id="Path_234" data-name="Path 234" d="M103.96,222.069l.442-35L132.32,195.4l3.349,22.134,3.744,24.73-17.885-10.192Z" transform="translate(36.367 131.767)" fill="#fff"/>
    <path id="Path_235" data-name="Path 235" d="M139.7,243.686a.731.731,0,0,1-.332-.1L103.918,223.4a1.037,1.037,0,0,1-.458-.885l.442-35a1.147,1.147,0,0,1,.316-.75.709.709,0,0,1,.664-.173l27.87,8.346a.886.886,0,0,1,.585.75l7.094,46.864a1.058,1.058,0,0,1-.284.942.806.806,0,0,1-.442.192ZM105.04,222.013l33.621,19.23-6.73-44.422-26.464-7.9Z" transform="translate(36.077 131.304)" fill="#231f20"/>
    <path id="Path_321" data-name="Path 321" d="M0,0,12.913-1.255.489,133.111l-12.913,1.255Z" transform="translate(155.682 330.416) rotate(142.33)" fill="#fff"/>
    <path id="Path_236" data-name="Path 236" d="M134.514,258.1H134.4a.7.7,0,0,1-.521-.365L61.6,143.779a1.119,1.119,0,0,1-.158-.711,1.085,1.085,0,0,1,.3-.635l9.48-8.884a.667.667,0,0,1,.576-.2.748.748,0,0,1,.515.371l72.282,113.939a1.109,1.109,0,0,1-.126,1.346l-9.48,8.884a.683.683,0,0,1-.474.212ZM63.323,143.356l71.334,112.4,8.2-7.692L71.538,135.645Z" transform="translate(11.706 82.175)" fill="#231f20"/>
    <path id="Path_237" data-name="Path 237" d="M67.92,135.4l13.019-3.25L153.22,246.089,140.2,249.358Z" transform="translate(15.467 81.074)" fill="#231f20"/>
    <path id="Path_238" data-name="Path 238" d="M140.491,250.783a.768.768,0,0,1-.632-.385L67.578,136.459a1.16,1.16,0,0,1-.105-.926.877.877,0,0,1,.579-.613l13.019-3.25a.72.72,0,0,1,.79.346l72.282,113.958a1.136,1.136,0,0,1,.107.918.855.855,0,0,1-.581.6l-13.019,3.269ZM69.616,136.5l71.207,112.266,11.3-2.846L80.975,133.671Z" transform="translate(15.177 80.611)" fill="#231f20"/>
    <path id="Path_239" data-name="Path 239" d="M58.21,152.97l5.893-14.5,72.282,113.939-5.893,14.5Z" transform="translate(9.836 86.908)" fill="#231f20"/>
    <path id="Path_240" data-name="Path 240" d="M130.844,268.353a.812.812,0,0,1-.632-.385L57.867,154.03a1.208,1.208,0,0,1-.079-1.019l5.893-14.519a.758.758,0,0,1,.632-.519.721.721,0,0,1,.7.365L137.29,252.277a1.117,1.117,0,0,1,0,1.019l-5.877,14.519a.805.805,0,0,1-.632.519ZM59.431,153.414,130.639,265.68l5.1-12.6L64.487,140.722Z" transform="translate(9.546 86.444)" fill="#231f20"/>
    <path id="Path_241" data-name="Path 241" d="M115.08,217.5l1.106-6.615,8.563-8.038,4.471.115,3.744,24.73Z" transform="translate(42.816 146.332)" fill="#ee885e"/>
    <path id="Path_242" data-name="Path 242" d="M133.255,229.118a.731.731,0,0,1-.332-.1l-17.9-10.192a1.034,1.034,0,0,1-.427-1.058l1.122-6.615A.948.948,0,0,1,116,210.6l8.547-8.038a.872.872,0,0,1,.506-.212l4.487.135a.821.821,0,0,1,.743.769l3.744,24.73a1.058,1.058,0,0,1-.284.942.8.8,0,0,1-.49.192Zm-17-11.692,15.957,9.077-3.349-22.134-3.571-.1-8.105,7.692Z" transform="translate(42.526 145.871)" fill="#231f20"/>
    <path id="Path_243" data-name="Path 243" d="M99.122,68.352C73.8,74.871,56.37,97.909,60.193,119.812c2.212,12.711,11.059,22.249,23.162,26.73,4.013,8.346,12.134,18.307,28.533,25.672A59.879,59.879,0,0,1,101.3,149.33a54.129,54.129,0,0,0,11.628-1.692c25.279-6.519,42.753-29.557,38.945-51.46S124.433,61.833,99.122,68.352Z" transform="translate(10.681 20.588)" fill="#fff"/>
    <path id="Path_244" data-name="Path 244" d="M112.171,173.6a.613.613,0,0,1-.269,0c-13.745-6.173-23.414-14.826-28.786-25.769-12.639-4.827-21.234-14.769-23.414-27.345C55.752,98.1,73.557,74.509,99.247,67.836h0c25.705-6.615,49.783,6.192,53.717,28.576s-13.856,45.96-39.5,52.595a54.866,54.866,0,0,1-10.759,1.673,59.317,59.317,0,0,0,10.112,21.269A1.115,1.115,0,0,1,113,173a.805.805,0,0,1-.736.6ZM99.531,69.759c-24.821,6.423-41.994,28.98-38.282,50.326,2.07,11.961,10.317,21.442,22.625,26.019a.961.961,0,0,1,.458.423c4.74,9.884,13.177,17.9,25.105,23.845a61.9,61.9,0,0,1-8.611-20.307,1.132,1.132,0,0,1,.13-.825.758.758,0,0,1,.613-.386,53.814,53.814,0,0,0,11.47-1.673c24.852-6.4,42.058-28.98,38.345-50.326s-26.954-33.48-51.806-27.1Z" transform="translate(10.382 20.103)" fill="#231f20"/>
    <path id="Path_245" data-name="Path 245" d="M356.807,309.855,237.38,260.972,288.522,75.9l95.285,39.018,15.847,39.864Z" transform="translate(113.741 29.154)" fill="#231f20"/>
    <path id="Path_246" data-name="Path 246" d="M357.126,311.256h-.253l-119.427-48.9a.842.842,0,0,1-.455-.48,1.13,1.13,0,0,1-.035-.732L288.083,76.07a.779.779,0,0,1,1.011-.6l95.285,39a.868.868,0,0,1,.458.5l15.8,39.864a1.156,1.156,0,0,1,0,.731L357.773,310.641a.894.894,0,0,1-.395.558.719.719,0,0,1-.253.058ZM238.631,260.815l117.941,48.268,42.484-153.842L383.51,116.127l-94.227-38.46Z" transform="translate(113.469 28.715)" fill="#231f20"/>
    <path id="Path_247" data-name="Path 247" d="M349.2,314.825,229.77,265.942,280.912,80.87l95.285,39,15.847,39.884Z" transform="translate(109.328 33.742)" fill="#fff"/>
    <path id="Path_248" data-name="Path 248" d="M349.484,316.182a.586.586,0,0,1-.253,0L229.8,267.3a1.023,1.023,0,0,1-.49-1.212L280.441,81.015a.977.977,0,0,1,.411-.558.584.584,0,0,1,.585,0l95.3,39a.85.85,0,0,1,.458.5L393,159.821a1.109,1.109,0,0,1,0,.712L350.148,315.624a.848.848,0,0,1-.395.538.563.563,0,0,1-.269.019ZM230.99,265.722l117.941,48.287,42.484-153.842-15.562-39.153-94.163-38.48Z" transform="translate(109.04 33.289)" fill="#231f20"/>
    <path id="Path_249" data-name="Path 249" d="M325.779,101.15l-9.069,29.672,24.915,10.211Z" transform="translate(159.746 52.461)" fill="#fff"/>
    <path id="Path_250" data-name="Path 250" d="M341.908,142.419a.573.573,0,0,1-.253,0L316.74,132.208a.824.824,0,0,1-.458-.481,1.227,1.227,0,0,1,0-.75L325.35,101.3a.84.84,0,0,1,.711-.635.806.806,0,0,1,.743.558l15.8,39.864a1.1,1.1,0,0,1-.126,1.058.734.734,0,0,1-.569.269ZM318,130.669l22.388,9.1-14.219-35.807Z" transform="translate(159.464 52.017)" fill="#231f20"/>
    <path id="Path_251" data-name="Path 251" d="M350.959,147.091a.574.574,0,0,1-.253,0l-86.011-35.249a1.024,1.024,0,0,1-.49-1.211.919.919,0,0,1,.39-.566.65.65,0,0,1,.605-.05l86.011,35.211a.968.968,0,0,1,.664,1.115.835.835,0,0,1-.916.808Z" transform="translate(129.274 60.595)" fill="#d1d3d4"/>
    <path id="Path_252" data-name="Path 252" d="M347.522,157.3a.574.574,0,0,1-.253,0l-86.011-35.211a1.04,1.04,0,0,1-.506-1.212.933.933,0,0,1,.4-.567.663.663,0,0,1,.612-.048l86.011,35.211a.968.968,0,0,1,.664,1.115.835.835,0,0,1-.916.808Z" transform="translate(127.275 70.056)" fill="#d1d3d4"/>
    <path id="Path_253" data-name="Path 253" d="M344.1,167.6a.573.573,0,0,1-.253,0l-86.011-35.249a1.067,1.067,0,0,1-.537-1.269.81.81,0,0,1,1.043-.654l86.011,35.211a.968.968,0,0,1,.664,1.115.835.835,0,0,1-.916.808Z" transform="translate(125.267 79.436)" fill="#d1d3d4"/>
    <path id="Path_254" data-name="Path 254" d="M340.642,177.8a.574.574,0,0,1-.253,0l-86.011-35.211a1.04,1.04,0,0,1-.506-1.212.933.933,0,0,1,.4-.567.663.663,0,0,1,.612-.048L340.9,175.88a.968.968,0,0,1,.664,1.115A.835.835,0,0,1,340.642,177.8Z" transform="translate(123.285 88.978)" fill="#d1d3d4"/>
    <path id="Path_255" data-name="Path 255" d="M337.216,188.037a.574.574,0,0,1-.253,0l-86.011-35.211a1.067,1.067,0,0,1-.537-1.269.81.81,0,0,1,1.043-.654l86.011,35.211a.968.968,0,0,1,.664,1.115A.835.835,0,0,1,337.216,188.037Z" transform="translate(121.277 98.339)" fill="#d1d3d4"/>
    <path id="Path_256" data-name="Path 256" d="M308.481,187.862a.534.534,0,0,1-.253,0l-60.717-24.826a1.067,1.067,0,0,1-.537-1.269.81.81,0,0,1,1.043-.654l60.717,24.845a1.047,1.047,0,0,1,.49,1.231.811.811,0,0,1-.743.673Z" transform="translate(119.282 107.764)" fill="#d1d3d4"/>
    <path id="Path_257" data-name="Path 257" d="M226.05,136.035a4.027,4.027,0,0,1-3.651-2.972,5.591,5.591,0,0,1,.863-5.242,3.452,3.452,0,0,1,4.31-1.03A4.921,4.921,0,0,1,230,131.247C229.991,133.895,228.225,136.035,226.05,136.035Zm0-7.692a2.929,2.929,0,1,1,0,.019Z" transform="translate(104.88 75.785)" fill="#d1d3d4"/>
    <path id="Path_258" data-name="Path 258" d="M84.456,215.965a4.019,4.019,0,0,1-3.66-2.954,5.6,5.6,0,0,1,.846-5.246,3.455,3.455,0,0,1,4.306-1.051,4.912,4.912,0,0,1,2.442,4.443c0,2.648-1.759,4.8-3.934,4.808Zm0-7.692a2.409,2.409,0,0,0-2.2,1.767,3.358,3.358,0,0,0,.5,3.15,2.073,2.073,0,0,0,2.585.634,2.947,2.947,0,0,0,1.467-2.667,2.67,2.67,0,0,0-2.354-2.885Z" transform="translate(22.756 149.563)" fill="#d1d3d4"/>
    <path id="Path_259" data-name="Path 259" d="M99.8,138.391a.889.889,0,0,1-.79-.962V127.392a.805.805,0,1,1,1.58,0V137.43a.907.907,0,0,1-.79.962Z" transform="translate(33.497 75.795)" fill="#d1d3d4"/>
    <path id="Path_260" data-name="Path 260" d="M105.437,130.923H97.19a.98.98,0,0,1,0-1.923h8.247a.888.888,0,0,1,.79.962A.907.907,0,0,1,105.437,130.923Z" transform="translate(31.983 78.167)" fill="#d1d3d4"/>
    <path id="Path_261" data-name="Path 261" d="M281.02,234.741a.888.888,0,0,1-.79-.961V223.742a.805.805,0,1,1,1.58,0V233.78A.907.907,0,0,1,281.02,234.741Z" transform="translate(138.591 164.728)" fill="#d1d3d4"/>
    <path id="Path_262" data-name="Path 262" d="M286.657,227.293H278.41a.98.98,0,0,1,0-1.923h8.247a.888.888,0,0,1,.79.961.907.907,0,0,1-.79.962Z" transform="translate(137.077 167.119)" fill="#d1d3d4"/>
    <path id="Path_263" data-name="Path 263" d="M184.92,78.062a.888.888,0,0,1-.79-.962V67.082a.805.805,0,1,1,1.58,0V77.1A.889.889,0,0,1,184.92,78.062Z" transform="translate(82.86 20.127)" fill="#d1d3d4"/>
    <path id="Path_264" data-name="Path 264" d="M190.569,70.653H182.29a.907.907,0,0,1-.79-.962.888.888,0,0,1,.79-.962h8.247a.888.888,0,0,1,.79.962A.9.9,0,0,1,190.569,70.653Z" transform="translate(81.335 22.536)" fill="#d1d3d4"/>
    <path id="Path_265" data-name="Path 265" d="M83.97,109.424a6.21,6.21,0,0,1-1.027-.154,10.035,10.035,0,0,1-7.141-6.115A7.894,7.894,0,0,1,70.367,107a.846.846,0,0,1-.885-.846.946.946,0,0,1,.7-1.077,6.742,6.742,0,0,0,4.866-3.846,14.071,14.071,0,0,1,.363-9.9.77.77,0,0,1,.679-.5.8.8,0,0,1,.7.462,12.271,12.271,0,0,1,.095,9.884v.173l.142.385a8.133,8.133,0,0,0,6.234,5.671,7.246,7.246,0,0,0,7.148-3.748,12.384,12.384,0,0,0,1.722-3.481,7.056,7.056,0,0,1,.3-6.481.756.756,0,0,1,.79-.327.922.922,0,0,1,.585.692,13.209,13.209,0,0,1-.111,5.981,3.654,3.654,0,0,0,3.16,2.308,4.179,4.179,0,0,0,3.476-2.692,7.622,7.622,0,0,0,.727-2.788,11.168,11.168,0,0,1-.506-3.135.947.947,0,0,1,.6-.942.751.751,0,0,1,.9.5,8.407,8.407,0,0,1,.585,3.231,8.723,8.723,0,0,0,1.722,2.923,5.748,5.748,0,0,0,4.872,2.256,6.083,6.083,0,0,0,4.607-2.968,9.991,9.991,0,0,0,1-1.923,12.91,12.91,0,0,1-1.059-1.769,4.847,4.847,0,0,1,.363-4.615,1.372,1.372,0,0,1,1.975-.192,3.2,3.2,0,0,1,.916,2.211,11.41,11.41,0,0,1-.348,3.846,3.625,3.625,0,0,0,4.74.885c3.918-2.077,6.9-9.442,5.8-14.327a1.148,1.148,0,0,1,.072-.737.834.834,0,0,1,.481-.455.786.786,0,0,1,.964.673c1.327,5.769-2.054,14.173-6.7,16.615a4.881,4.881,0,0,1-5.988-.827,11.989,11.989,0,0,1-1,1.731,7.591,7.591,0,0,1-5.711,3.652,7.166,7.166,0,0,1-6.043-2.748,9.416,9.416,0,0,1-1.09-1.5,10.337,10.337,0,0,1-.49,1.25,5.82,5.82,0,0,1-4.582,3.654,4.712,4.712,0,0,1-4-2.154,14.9,14.9,0,0,1-1.58,2.865,9.588,9.588,0,0,1-7.584,4.558Zm-7.9-15.057a12.129,12.129,0,0,0,0,4.077,10.155,10.155,0,0,0,.016-4.077Zm39.1-2.4a1.254,1.254,0,0,0-.237.615,2.7,2.7,0,0,0,.126,1.577,5.813,5.813,0,0,0,.3.558,8.694,8.694,0,0,0,0-1.923c0-.615-.174-.788-.221-.827Z" transform="translate(16.369 34.437)" fill="#d1d3d4"/>
    <ellipse id="Ellipse_6" data-name="Ellipse 6" cx="3.476" cy="4.231" rx="3.476" ry="4.231" transform="translate(311.718 253.358)" fill="#d1d3d4"/>
    <ellipse id="Ellipse_7" data-name="Ellipse 7" cx="3.476" cy="4.231" rx="3.476" ry="4.231" transform="translate(159.587 278.088)" fill="#d1d3d4"/>
  </g>
</svg>
