<svg xmlns="http://www.w3.org/2000/svg" width="598.208" height="500.428" viewBox="0 0 598.208 500.428">
  <g id="pic3" transform="translate(-63.954 -41.856)">
    <path id="Path_266" data-name="Path 266" d="M64.47,233.34H660.476v21.648a7.848,7.848,0,0,1-7.728,7.963H72.219a7.848,7.848,0,0,1-7.728-7.963V233.34Z" transform="translate(0.595 233.241)" fill="#e6e7e8"/>
    <path id="Path_267" data-name="Path 267" d="M653.29,264.669H72.761A8.965,8.965,0,0,1,64,255.6V233.949a1.115,1.115,0,0,1,1.076-1.109H661.018a1.093,1.093,0,0,1,1.076,1.109V255.6A8.941,8.941,0,0,1,653.29,264.669ZM66.153,235.058V255.6a6.776,6.776,0,0,0,6.673,6.854H653.29a6.777,6.777,0,0,0,6.651-6.854V235.058Z" transform="translate(0.053 232.632)" fill="#231f20"/>
    <rect id="Rectangle_12" data-name="Rectangle 12" width="453.29" height="296.445" rx="8.05" transform="translate(142.881 81.369)" fill="#231f20"/>
    <path id="Path_268" data-name="Path 268" d="M537.158,357.833H118.525c-10.155-.024-18.381-8.5-18.4-18.965V78.112c.024-10.46,8.253-18.93,18.4-18.942H537.158c10.151.012,18.381,8.482,18.4,18.942V338.869c-.024,10.464-8.25,18.94-18.4,18.965ZM118.525,61.388a16.5,16.5,0,0,0-16.252,16.724V338.869a16.527,16.527,0,0,0,16.252,16.746H537.158a16.527,16.527,0,0,0,16.252-16.746V78.112a16.5,16.5,0,0,0-16.252-16.724Z" transform="translate(41.684 21.089)" fill="#231f20"/>
    <path id="Path_269" data-name="Path 269" d="M591.768,193.321H145.948a8.495,8.495,0,0,0-6.264,2.817L66.668,277.718a9.084,9.084,0,0,0-1.4,9.4,8.612,8.612,0,0,0,7.663,5.3H651.976a8.613,8.613,0,0,0,7.667-5.318,9.084,9.084,0,0,0-1.425-9.41l-60.1-81.581A8.364,8.364,0,0,0,591.768,193.321Z" transform="translate(0.679 184.493)" fill="#fff"/>
    <path id="Path_270" data-name="Path 270" d="M652.547,294.2H73.611a9.593,9.593,0,0,1-8.854-5.933,10.122,10.122,0,0,1,1.793-10.725l73.015-81.581a9.514,9.514,0,0,1,7.06-3.172H592.447a9.472,9.472,0,0,1,7.039,3.172l60.165,81.669a9.919,9.919,0,0,1,1.679,10.58,9.492,9.492,0,0,1-8.782,5.989ZM146.691,195.075a7.285,7.285,0,0,0-5.468,2.462l-73.08,81.581a7.83,7.83,0,0,0-1.366,8.282,7.421,7.421,0,0,0,6.833,4.583H652.654a7.444,7.444,0,0,0,6.8-4.6,7.854,7.854,0,0,0-1.336-8.269L597.893,197.47a7.3,7.3,0,0,0-5.4-2.4Z" transform="translate(0 183.848)" fill="#231f20"/>
    <path id="Path_271" data-name="Path 271" d="M584.346,239.648H90.76l32.913-40.258H553.586Z" transform="translate(30.896 191.888)" fill="#fff"/>
    <path id="Path_272" data-name="Path 272" d="M584.916,241.326H91.33a1.054,1.054,0,0,1-.969-.643,1.159,1.159,0,0,1,.151-1.176l32.913-40.258a1.043,1.043,0,0,1,.818-.4H554.156a1.044,1.044,0,0,1,.839.421l30.76,40.258a1.159,1.159,0,0,1,.129,1.176A1.074,1.074,0,0,1,584.916,241.326ZM93.655,239.108h488.98l-29.06-38.04H124.738Z" transform="translate(30.326 191.23)" fill="#d1d3d4"/>
    <path id="Path_273" data-name="Path 273" d="M317.393,248.363H172.18l18.878-28.3H298.536Z" transform="translate(124.739 217.065)" fill="#fff"/>
    <path id="Path_274" data-name="Path 274" d="M317.964,250.081H172.751a1.073,1.073,0,0,1-.944-.593,1.138,1.138,0,0,1,.061-1.137l18.857-28.3a1.088,1.088,0,0,1,.9-.488H299.108a1.047,1.047,0,0,1,.883.488l18.857,28.3a1.138,1.138,0,0,1,.061,1.137,1.073,1.073,0,0,1-.944.593ZM174.8,247.863H315.919l-17.393-26.085H192.189Z" transform="translate(124.168 216.456)" fill="#d1d3d4"/>
    <rect id="Rectangle_13" data-name="Rectangle 13" width="418.591" height="263.973" transform="translate(158.401 96.496)" fill="#fff"/>
    <rect id="Rectangle_14" data-name="Rectangle 14" width="290.921" height="174.03" transform="translate(173.77 131.475)" fill="#fff"/>
    <path id="Path_275" data-name="Path 275" d="M406.411,258.008H115.576A1.093,1.093,0,0,1,114.5,256.9V82.869a1.093,1.093,0,0,1,1.076-1.109H406.411a1.093,1.093,0,0,1,1.076,1.109V256.9A1.093,1.093,0,0,1,406.411,258.008ZM116.588,255.79H405.335V83.978H116.588Z" transform="translate(58.258 48.606)" fill="#231f20"/>
    <rect id="Rectangle_15" data-name="Rectangle 15" width="48.304" height="40.813" transform="translate(478.317 133.56)" fill="#e6e7e8"/>
    <rect id="Rectangle_16" data-name="Rectangle 16" width="33.946" height="4.991" rx="1.13" transform="translate(535.102 138.129)" fill="#e6e7e8"/>
    <rect id="Rectangle_17" data-name="Rectangle 17" width="33.946" height="4.991" rx="1.13" transform="translate(535.102 148.975)" fill="#e6e7e8"/>
    <rect id="Rectangle_18" data-name="Rectangle 18" width="33.946" height="4.991" rx="1.13" transform="translate(535.102 159.8)" fill="#e6e7e8"/>
    <rect id="Rectangle_19" data-name="Rectangle 19" width="48.304" height="40.813" transform="translate(478.317 187.259)" fill="#e6e7e8"/>
    <rect id="Rectangle_20" data-name="Rectangle 20" width="33.946" height="4.991" rx="1.13" transform="translate(535.102 191.851)" fill="#e6e7e8"/>
    <rect id="Rectangle_21" data-name="Rectangle 21" width="33.946" height="4.991" rx="1.13" transform="translate(535.102 202.675)" fill="#e6e7e8"/>
    <rect id="Rectangle_22" data-name="Rectangle 22" width="33.946" height="4.991" rx="1.13" transform="translate(535.102 213.499)" fill="#e6e7e8"/>
    <rect id="Rectangle_23" data-name="Rectangle 23" width="48.304" height="40.813" transform="translate(478.317 240.981)" fill="#e6e7e8"/>
    <rect id="Rectangle_24" data-name="Rectangle 24" width="33.946" height="4.991" rx="1.13" transform="translate(535.102 245.55)" fill="#e6e7e8"/>
    <rect id="Rectangle_25" data-name="Rectangle 25" width="33.946" height="4.991" rx="1.13" transform="translate(535.102 256.374)" fill="#e6e7e8"/>
    <rect id="Rectangle_26" data-name="Rectangle 26" width="33.946" height="4.991" rx="1.13" transform="translate(535.102 267.199)" fill="#e6e7e8"/>
    <rect id="Rectangle_27" data-name="Rectangle 27" width="48.304" height="40.813" transform="translate(478.317 294.681)" fill="#e6e7e8"/>
    <rect id="Rectangle_28" data-name="Rectangle 28" width="33.946" height="4.991" rx="1.13" transform="translate(535.102 299.272)" fill="#e6e7e8"/>
    <rect id="Rectangle_29" data-name="Rectangle 29" width="33.946" height="4.991" rx="1.13" transform="translate(535.102 310.096)" fill="#e6e7e8"/>
    <rect id="Rectangle_30" data-name="Rectangle 30" width="33.946" height="4.991" rx="1.13" transform="translate(535.102 320.92)" fill="#e6e7e8"/>
    <ellipse id="Ellipse_8" data-name="Ellipse 8" cx="13.131" cy="13.53" rx="13.131" ry="13.53" transform="translate(175.385 318.724)" fill="#e6e7e8"/>
    <rect id="Rectangle_31" data-name="Rectangle 31" width="121.212" height="13.53" transform="translate(211.333 318.724)" fill="#e6e7e8"/>
    <rect id="Rectangle_32" data-name="Rectangle 32" width="85.759" height="9.582" transform="translate(211.333 336.225)" fill="#e6e7e8"/>
    <rect id="Rectangle_33" data-name="Rectangle 33" width="70.497" height="22.802" rx="5.14" transform="translate(394.194 322.939)" fill="#e6e7e8"/>
    <path id="Path_276" data-name="Path 276" d="M252,112.653s12.915-12.909,13.927-15.815,4.865-18.632,8.5-23.223,5.446-.932,3.014,10.625c0,0,11.43-19.963,15.283-20.118,4.65-.222,12.614,11.223,11.387,16.369-.689,2.928-3.121,19.963-15.542,30.188a82.993,82.993,0,0,0-17.221,21.338Z" transform="translate(216.738 27.117)" fill="#fff"/>
    <path id="Path_277" data-name="Path 277" d="M271.953,133.558a1.017,1.017,0,0,1-.689-.288l-19.373-19.364a1.058,1.058,0,0,1-.3-.732,1.013,1.013,0,0,1,.3-.732c4.972-4.924,13.088-13.464,13.69-15.393.151-.488.387-1.309.689-2.373,1.55-5.59,4.8-17.19,7.965-21.183,1.593-1.974,3.014-2.684,4.2-2.085,1.55.754,2.023,3.527,1.464,8.251,3.939-6.455,10.225-15.881,13.367-16.037s6.35,3.527,7.62,5.1c2.971,3.7,5.6,9.028,4.779,12.532a6.792,6.792,0,0,1-.237,1.065c-1.012,5.013-4.09,20.229-15.671,29.678a82.408,82.408,0,0,0-16.919,21.027.99.99,0,0,1-.732.51Zm-17.974-20.3,17.866,17.745a81.3,81.3,0,0,1,16.769-20.517c11.043-8.872,14.013-23.667,15.068-28.48a4.233,4.233,0,0,1,.237-1.153c.538-2.218-1.335-6.943-4.305-10.758-2.153-2.75-4.52-4.436-6.027-4.436-2.153,0-9.105,10.27-14.465,19.63a1.018,1.018,0,0,1-1.205.444,1.05,1.05,0,0,1-.6-1.176c1.83-8.717.861-11.09.517-11.312s-.753.2-1.83,1.553c-2.906,3.66-6.2,15.527-7.62,20.451-.3,1.109-.538,1.952-.689,2.44C266.572,100.42,257.23,109.914,253.979,113.263Z" transform="translate(216.265 26.507)" fill="#231f20"/>
    <path id="Path_278" data-name="Path 278" d="M329.21,136.944c6.2-10.536,7.771-23.312,7.19-35.489a88.916,88.916,0,0,0-10.031-38.439,34.156,34.156,0,0,0-10.763-12.687c-5.575-3.638-9.385-1.176-14.853-2.218-4.607-.821-9.428-4.214-14.551-5.079a46.23,46.23,0,0,0-33.925,7.386c-17.5,12.2-25.594,35.489-43.676,46.823-17.716,11.09-40.4,7.719-60.272,13.841a66.753,66.753,0,0,0-23.011,12.51,41.559,41.559,0,0,0-11.258,13.863c-4.65,10.048-3.423,22.025,0,32.606s9.256,21.382,18.3,28.081c7.556,5.612,16.833,8.207,26.025,9.915a94.062,94.062,0,0,0,37.821.4,54.387,54.387,0,0,0,25.035-12.621c3.078-2.817,4.779-6.654,7.642-9.471,3.939-3.859,10.074-6.211,14.681-9.161,7.233-4.636,14.465-9.582,22.688-11.756C287.106,159.768,316.618,158.238,329.21,136.944Z" transform="translate(54.242 0.608)" fill="#fff"/>
    <path id="Path_279" data-name="Path 279" d="M180.09,211.7a117.253,117.253,0,0,1-21.526-2.218c-7.965-1.486-18.189-3.97-26.434-10.092s-14.616-15.926-18.512-28.569c-2.841-8.872-5.123-22.048.129-33.271a41.252,41.252,0,0,1,11.538-14.218,67.545,67.545,0,0,1,23.334-12.71,135.865,135.865,0,0,1,24.539-4.325c12.915-1.464,24.948-2.839,35.5-9.4,9.192-5.723,15.929-14.861,22.43-23.711,6.2-8.406,12.614-17.1,21.181-23.09a47.134,47.134,0,0,1,34.656-7.541,34.1,34.1,0,0,1,7.9,2.728,31.077,31.077,0,0,0,6.651,2.351,22.023,22.023,0,0,0,5.231.133,14.708,14.708,0,0,1,9.988,2.218,35.187,35.187,0,0,1,11.086,13.042,89.368,89.368,0,0,1,10.16,38.883c.667,14.617-1.787,26.772-7.34,36.177h0c-10.332,17.39-31.621,21.87-50.37,25.8-4.714,1-9.148,1.93-13.3,3.039-7.4,1.952-14.121,6.277-20.6,10.469l-1.808,1.153c-1.636,1.042-3.487,2.041-5.274,2.994a39.982,39.982,0,0,0-9.278,6.055,30.1,30.1,0,0,0-3.444,4.436,30.056,30.056,0,0,1-4.2,5.146,55.324,55.324,0,0,1-25.487,12.865A75.785,75.785,0,0,1,180.09,211.7ZM278.85,43.883a44.78,44.78,0,0,0-25.53,7.874c-8.33,5.789-14.638,14.351-20.729,22.624-6.63,9.005-13.475,18.3-22.99,24.221-10.914,6.809-23.808,8.273-36.292,9.693a134.564,134.564,0,0,0-24.195,4.237,65.785,65.785,0,0,0-22.581,12.355,39.858,39.858,0,0,0-11,13.508c-4.951,10.691-2.755,23.223,0,31.852,3.832,12.177,10.031,21.715,17.909,27.571s17.866,8.3,25.637,9.737c14.465,2.684,26.714,2.817,37.455.421a53.2,53.2,0,0,0,24.582-12.4,29.593,29.593,0,0,0,3.918-4.813,33.974,33.974,0,0,1,3.681-4.658,41.7,41.7,0,0,1,9.73-6.366c1.83-.976,3.573-1.908,5.123-2.906l1.808-1.176c6.63-4.259,13.475-8.65,21.16-10.713,4.2-1.109,8.61-2.041,13.389-3.039,18.362-3.859,39.177-8.229,49.036-24.975h0c5.338-9.05,7.706-20.85,7.039-35.023a86.6,86.6,0,0,0-9.9-38A33,33,0,0,0,315.681,51.58a12.6,12.6,0,0,0-8.8-1.819,22.547,22.547,0,0,1-5.683-.155,32.548,32.548,0,0,1-7.082-2.484,32.9,32.9,0,0,0-7.47-2.6,44.923,44.923,0,0,0-7.792-.643Z" transform="translate(53.759)" fill="#231f20"/>
    <path id="Path_280" data-name="Path 280" d="M360.618,87.774l-36.142,38.994S239.471,84.38,219.645,79.035c-7.362-2-30.136,10.536-56.419,27.859v62.328l-3.9,90.209h92.69c1.614-8.562,5.941-25.02,9.9-33.271,4.994-10.358,26.369-25.641,19.653-65.3,0,0,50.37,32.827,64.577,17.745s44.838-72.62,44.838-72.62Z" transform="translate(109.928 45.032)" fill="#ee885e"/>
    <path id="Path_281" data-name="Path 281" d="M186.5,92.22s13.669,43.718,15.994,62.239,2.691,49.108,2.691,49.108S226.71,135.339,224.127,93.2Z" transform="translate(141.244 61.347)" fill="#231f20"/>
    <path id="Path_282" data-name="Path 282" d="M205.712,205.1h-.151a.988.988,0,0,1-.818-.954c0-.311-.366-30.765-2.669-49.019S186.232,93.512,186.1,93.024a.963.963,0,0,1,.926-1.264l37.627.976a.982.982,0,0,1,.926.909c2.669,41.855-18.771,110.061-18.986,110.748a.953.953,0,0,1-.882.71ZM188.32,93.778c2.282,7.453,13.54,44.517,15.628,61.108,1.7,13.308,2.346,33.271,2.583,43.186,5.016-17.19,19.093-68.982,17.221-103.362Z" transform="translate(140.738 60.786)" fill="#231f20"/>
    <path id="Path_283" data-name="Path 283" d="M223.7,116.081l4.671,24.4s.108,14.2-15.068,12.843A30.344,30.344,0,0,1,190.828,139.5l-6.2-42.809A79.557,79.557,0,0,0,182.82,73.45c17.543-3.726,28.866-20.14,28.866-20.14s7.792,8.185,10.957,10.625a37.508,37.508,0,0,1,6.716,6.432c3.315,4.237,4.305,10.159,5.166,15.393a110.462,110.462,0,0,1,1.614,18.831C235.946,116.636,223.7,116.081,223.7,116.081Z" transform="translate(137.003 13.952)" fill="#fff"/>
    <path id="Path_284" data-name="Path 284" d="M215.792,155.143H213.64a31.034,31.034,0,0,1-23.226-14.329,1.109,1.109,0,0,1-.129-.377l-6.113-42.964a12.84,12.84,0,0,1,0-2.218A74.3,74.3,0,0,0,182.32,74.25a1.023,1.023,0,0,1,.151-.754,1.076,1.076,0,0,1,.624-.444c16.941-3.593,28.156-19.563,28.263-19.719a.984.984,0,0,1,.732-.421.973.973,0,0,1,.775.288s7.771,8.163,10.763,10.536a38.724,38.724,0,0,1,6.974,6.5c3.509,4.436,4.542,10.8,5.36,15.881a108.89,108.89,0,0,1,1.614,19.009A12.036,12.036,0,0,1,234.132,114a14.06,14.06,0,0,1-8.783,3.549l4.434,23.334a15.271,15.271,0,0,1-4.305,10.625,13.728,13.728,0,0,1-9.687,3.638Zm-23.506-15.3a29.576,29.576,0,0,0,21.526,13.308,12.915,12.915,0,0,0,10.418-2.883,13.511,13.511,0,0,0,3.659-8.872l-4.65-24.4a1.043,1.043,0,0,1,.215-.865,1,1,0,0,1,.8-.355,12.928,12.928,0,0,0,8.61-3.039,10.1,10.1,0,0,0,2.82-7.431,106.768,106.768,0,0,0-1.593-18.632c-.84-5.1-1.765-10.869-4.951-14.95a36.521,36.521,0,0,0-6.587-6.366,139.717,139.717,0,0,1-10.268-9.893c-2.691,3.549-12.915,15.771-27.811,19.364a74.832,74.832,0,0,1,1.679,20.539,8.591,8.591,0,0,0,0,1.774c-.022.133,5.661,39.371,6.135,42.587Z" transform="translate(136.405 13.462)" fill="#231f20"/>
    <path id="Path_285" data-name="Path 285" d="M216.046,95.513s-9.6,2.218-17.027-3.105A17.458,17.458,0,0,1,191.27,80.12s11.775,5.19,22.688,3.3Z" transform="translate(146.742 46.608)" fill="#231f20"/>
    <path id="Path_286" data-name="Path 286" d="M211.538,97.553a21.219,21.219,0,0,1-12.571-3.837,18.22,18.22,0,0,1-8.137-13.042.986.986,0,0,1,.41-.835.924.924,0,0,1,.9-.1c.108,0,11.667,5.035,22.15,3.238a.9.9,0,0,1,.709.148.957.957,0,0,1,.389.628l2.153,12.088a1,1,0,0,1-.71,1.131,24.263,24.263,0,0,1-5.3.577ZM192.983,82.2a17.564,17.564,0,0,0,7.082,9.959,21.4,21.4,0,0,0,15.391,3.105l-1.765-10.181A45.567,45.567,0,0,1,192.983,82.2Z" transform="translate(146.234 46.055)" fill="#231f20"/>
    <path id="Path_319" data-name="Path 319" d="M1.337-.009c.738,0,1.329,1.151,1.32,2.582s-.615,2.6-1.353,2.6S-.026,4.022-.017,2.591.6,0,1.337-.009Z" transform="translate(359.154 89.082) rotate(-13.01)" fill="#231f20"/>
    <path id="Path_320" data-name="Path 320" d="M1.337-.009c.738,0,1.329,1.151,1.32,2.582s-.615,2.6-1.353,2.6S-.026,4.022-.017,2.591.6,0,1.337-.009Z" transform="translate(337.21 91.382) rotate(-13.01)" fill="#231f20"/>
    <path id="Path_287" data-name="Path 287" d="M195.057,68.61c-2.389-3.993-7.986-4.547-11.882-2.906a7.123,7.123,0,0,0-4.585,6.41,14.306,14.306,0,0,0,.9,5.1,26.946,26.946,0,0,0,4.607,8.318,9.529,9.529,0,0,0,3.616,2.994,4.645,4.645,0,0,0,5.209-1.4" transform="translate(132.127 27.997)" fill="#fff"/>
    <path id="Path_288" data-name="Path 288" d="M189.852,90.415a5.348,5.348,0,0,1-1.98-.4,10.432,10.432,0,0,1-4-3.261,27.931,27.931,0,0,1-4.779-8.65,14.284,14.284,0,0,1-.947-5.479,8.188,8.188,0,0,1,5.188-7.32c4.305-1.819,10.462-1.065,13.088,3.327a1.038,1.038,0,0,1-.37,1.319.971.971,0,0,1-1.309-.254c-2.153-3.438-7.147-3.97-10.763-2.506a6.1,6.1,0,0,0-3.961,5.523,12.5,12.5,0,0,0,.84,4.724,26.364,26.364,0,0,0,4.434,8.007A8.655,8.655,0,0,0,188.6,88.13a3.8,3.8,0,0,0,4.176-1.153.97.97,0,0,1,1.4,0,1.02,1.02,0,0,1,0,1.42A5.972,5.972,0,0,1,189.852,90.415Z" transform="translate(131.606 27.441)" fill="#231f20"/>
    <path id="Path_289" data-name="Path 289" d="M205.718,71.64,194.18,72.793s2.411,18.343,7.577,17.745S206.988,76.875,205.718,71.64Z" transform="translate(150.096 36.279)" fill="#fff"/>
    <path id="Path_290" data-name="Path 290" d="M202.073,92.186c-5.6,0-7.9-15.527-8.33-18.721a1.014,1.014,0,0,1,.861-1.109L206.141,71.2a.95.95,0,0,1,1.012.732c.99,4.126,1.313,13.974-1.593,18.166a4.4,4.4,0,0,1-3.186,2.063Zm-6.286-17.966c1.033,7.009,3.509,15.992,6.286,15.992h0a2.516,2.516,0,0,0,1.83-1.242c2.153-3.194,2.325-11.09,1.464-15.726Z" transform="translate(149.586 35.74)" fill="#231f20"/>
    <path id="Path_291" data-name="Path 291" d="M214.307,173.9a.927.927,0,0,1-.517-.155,1.039,1.039,0,0,1-.323-1.4c.129-.2,12.743-22.181.667-67.673a1.044,1.044,0,0,1,.18-1.081.971.971,0,0,1,1.027-.288,1.012,1.012,0,0,1,.688.837c12.334,46.58-.344,68.361-.883,69.27a1.006,1.006,0,0,1-.84.488Z" transform="translate(172.159 74.797)" fill="#231f20"/>
    <path id="Path_292" data-name="Path 292" d="M197.212,82.681a11.961,11.961,0,1,1,11.6-11.955,11.783,11.783,0,0,1-11.6,11.955Zm0-21.937a9.709,9.709,0,0,0-8.987,6.165,10.227,10.227,0,0,0,2.1,10.912,9.5,9.5,0,0,0,10.59,2.164,10.012,10.012,0,0,0,5.983-9.26,9.859,9.859,0,0,0-9.687-9.981Z" transform="translate(140.218 20.602)" fill="#231f20"/>
    <path id="Path_293" data-name="Path 293" d="M208.212,81.291a11.961,11.961,0,1,1,11.6-11.955A11.783,11.783,0,0,1,208.212,81.291Zm0-21.937a9.986,9.986,0,1,0,9.687,9.981,9.837,9.837,0,0,0-9.687-9.981Z" transform="translate(152.897 18.909)" fill="#231f20"/>
    <path id="Path_294" data-name="Path 294" d="M195.9,62.77s9.837,10.292,8.4,12.687-6.781,2.063-6.781,2.063" transform="translate(152.078 25.475)" fill="#fff"/>
    <path id="Path_295" data-name="Path 295" d="M198.795,79.044h-.861a.988.988,0,0,1-.9-1.042,1,1,0,0,1,1.012-.932c1.249,0,4.994,0,5.92-1.575.387-1.109-3.466-6.477-8.244-11.49a1,1,0,0,1,.011-1.386.932.932,0,0,1,1.345.011c3.875,4.059,10.117,11.246,8.61,13.907C204.284,78.756,200.581,79.044,198.795,79.044Z" transform="translate(151.552 24.948)" fill="#231f20"/>
    <path id="Path_296" data-name="Path 296" d="M265.6,90.169h-.3a1.028,1.028,0,0,1-.624-1.286c2.82-9.427-.883-14.329-1.033-14.528a1.019,1.019,0,0,1-.215-.742,1.006,1.006,0,0,1,.365-.677.97.97,0,0,1,1.378.133c.172.244,4.542,5.878,1.378,16.414A.992.992,0,0,1,265.6,90.169Z" transform="translate(229.898 37.579)" fill="#231f20"/>
    <path id="Path_297" data-name="Path 297" d="M192.957,245.247,170.376,183.74l47.163-33.759L214.913,90.47c-44.322,29.345-92.173,63.9-96.737,73.973s16.726,55.9,32.009,80.8Z" transform="translate(61.772 59.215)" fill="#ee885e"/>
    <path id="Path_298" data-name="Path 298" d="M145.823,155.456a1,1,0,0,1-.8-.421,1.02,1.02,0,0,1,.151-1.331l59.562-42.986a.946.946,0,0,1,.732-.16.968.968,0,0,1,.624.426,1,1,0,0,1,.174.751.978.978,0,0,1-.41.646L146.3,155.367A1.049,1.049,0,0,1,145.823,155.456Z" transform="translate(93.235 83.662)" fill="#231f20"/>
    <path id="Path_299" data-name="Path 299" d="M264.61,137.748l4.5-10.247h29.469s4.951,11.09,4.951,10.713S264.61,137.748,264.61,137.748Z" transform="translate(231.272 104.32)" fill="#fff"/>
    <path id="Path_300" data-name="Path 300" d="M303.975,139.767a.5.5,0,0,1-.28,0c-2.3-.222-24.109-.377-38.574-.421a.962.962,0,0,1-.82-.46,1.025,1.025,0,0,1-.062-.96l4.5-10.247a1.032,1.032,0,0,1,.9-.6H299.11a.99.99,0,0,1,.883.6c1.7,3.771,4.52,9.981,4.865,10.558a.632.632,0,0,1,.194.577.992.992,0,0,1-.775,1Zm-37.326-2.529c22.667,0,31.944.111,35.754.4-.753-1.553-1.937-4.17-3.939-8.606H270.287Z" transform="translate(230.739 103.809)" fill="#231f20"/>
    <rect id="Rectangle_34" data-name="Rectangle 34" width="7.405" height="4.569" rx="0.69" transform="translate(503.201 234.593)" fill="#231f20"/>
    <rect id="Rectangle_35" data-name="Rectangle 35" width="6.565" height="19.985" transform="translate(508.647 281.616)" fill="#fff"/>
    <path id="Path_301" data-name="Path 301" d="M277.567,171.493h-6.458a1.006,1.006,0,0,1-.969-1.02V150.51a1.014,1.014,0,0,1,.276-.72.954.954,0,0,1,.693-.3h6.458a1.006,1.006,0,0,1,.99,1.02v19.963A1.028,1.028,0,0,1,277.567,171.493Zm-5.575-2.018h4.585V151.508h-4.585Z" transform="translate(237.646 131.106)" fill="#231f20"/>
    <rect id="Rectangle_36" data-name="Rectangle 36" width="21.031" height="12.133" transform="translate(501.414 301.579)" fill="#fff"/>
    <path id="Path_302" data-name="Path 302" d="M288.779,172.59H267.749a.984.984,0,0,1-.969-1V159.548a.984.984,0,0,1,.969-1h21.031a1,1,0,0,1,.99,1V171.7a1,1,0,0,1-.99.887Zm-20.041-2.018h19.05V160.458h-19.05Z" transform="translate(233.773 142.141)" fill="#231f20"/>
    <path id="Path_303" data-name="Path 303" d="M273.8,392.4a3.279,3.279,0,0,1-3.229-3.327V168.237a3.23,3.23,0,1,1,6.458,0v220.9a3.277,3.277,0,0,1-3.229,3.26Z" transform="translate(238.141 149.888)" fill="#231f20"/>
    <path id="Path_304" data-name="Path 304" d="M244.871,370.505a2.765,2.765,0,0,1-.839-.133,3.221,3.221,0,0,1-1.961-1.54,3.393,3.393,0,0,1-.321-2.519l51.662-198.939a3.223,3.223,0,0,1,3.961-2.351,3.342,3.342,0,0,1,2.282,4.081L247.992,368.021A3.269,3.269,0,0,1,244.871,370.505Z" transform="translate(204.795 149.886)" fill="#231f20"/>
    <path id="Path_305" data-name="Path 305" d="M330.359,370.505a3.248,3.248,0,0,1-3.1-2.484L275.49,169.1a3.342,3.342,0,0,1,2.282-4.081,3.223,3.223,0,0,1,3.961,2.351l51.662,198.939a3.393,3.393,0,0,1-.321,2.519,3.221,3.221,0,0,1-1.961,1.54,2.767,2.767,0,0,1-.753.133Z" transform="translate(243.683 149.886)" fill="#231f20"/>
    <rect id="Rectangle_37" data-name="Rectangle 37" width="60.487" height="35.534" rx="1.86" transform="translate(485.83 241.336)" fill="#fff"/>
    <path id="Path_306" data-name="Path 306" d="M316.932,168.892H264.474a5.071,5.071,0,0,1-4.994-5.124v-27.3a5.071,5.071,0,0,1,4.994-5.124h52.458a5.071,5.071,0,0,1,4.994,5.124v27.393a5.068,5.068,0,0,1-4.994,5.035ZM264.474,133.4a3.082,3.082,0,0,0-3.035,3.105v27.349a3.082,3.082,0,0,0,3.035,3.105h52.458a3.082,3.082,0,0,0,3.035-3.105V136.464a3.082,3.082,0,0,0-3.035-3.105Z" transform="translate(225.359 108.998)" fill="#231f20"/>
    <rect id="Rectangle_38" data-name="Rectangle 38" width="33.968" height="27.016" transform="translate(490.78 245.395)" fill="#fff"/>
    <path id="Path_307" data-name="Path 307" d="M296.683,162.217H262.759a1.006,1.006,0,0,1-.969-1.02V134.18a1.006,1.006,0,0,1,.969-1.02h33.925a1.006,1.006,0,0,1,.99,1.02V161.2a1.006,1.006,0,0,1-.99,1.02ZM263.706,160.2h32.009v-25H263.749Z" transform="translate(228.022 111.215)" fill="#231f20"/>
    <ellipse id="Ellipse_11" data-name="Ellipse 11" cx="4.456" cy="4.591" rx="4.456" ry="4.591" transform="translate(531.141 263.716)" fill="#fff"/>
    <path id="Path_308" data-name="Path 308" d="M285.965,152.609a5.592,5.592,0,1,1,5.424-5.59,5.509,5.509,0,0,1-5.424,5.59Zm0-9.161a3.573,3.573,0,1,0,3.466,3.571A3.519,3.519,0,0,0,285.965,143.448Z" transform="translate(249.633 121.288)" fill="#231f20"/>
    <ellipse id="Ellipse_12" data-name="Ellipse 12" cx="3.143" cy="3.238" rx="3.143" ry="3.238" transform="translate(532.454 253.912)" fill="#231f20"/>
    <ellipse id="Ellipse_13" data-name="Ellipse 13" cx="3.143" cy="3.238" rx="3.143" ry="3.238" transform="translate(532.454 244.885)" fill="#231f20"/>
    <rect id="Rectangle_39" data-name="Rectangle 39" width="21.267" height="5.545" transform="translate(501.307 276.892)" fill="#fff"/>
    <path id="Path_309" data-name="Path 309" d="M288.906,154.924H267.66a1.028,1.028,0,0,1-.99-1.02V148.38a1.006,1.006,0,0,1,.99-1.02h21.246a.954.954,0,0,1,.707.292,1.014,1.014,0,0,1,.283.728V153.9A1.006,1.006,0,0,1,288.906,154.924Zm-20.256-2.041h19.373v-3.5H268.65Z" transform="translate(233.646 128.511)" fill="#231f20"/>
    <rect id="Rectangle_40" data-name="Rectangle 40" width="34.377" height="8.806" transform="translate(494.741 313.734)" fill="#fff"/>
    <path id="Path_310" data-name="Path 310" d="M299.021,174.831H264.58a1,1,0,0,1-.99-1V164.96a1.006,1.006,0,0,1,.99-1.02h34.441a.954.954,0,0,1,.707.292,1.015,1.015,0,0,1,.284.728v8.872a1.013,1.013,0,0,1-.292.714.953.953,0,0,1-.7.284Zm-33.387-2.018h32.418v-6.787H265.635Z" transform="translate(230.096 148.707)" fill="#231f20"/>
    <path id="Path_311" data-name="Path 311" d="M103.307,225.3a17.311,17.311,0,0,0-1.851-9.028c-1.162-2-2.971-3.593-3.939-5.7-1.657-3.682-.474-7.985-.883-12a15.119,15.119,0,0,0-4.09-8.872c-2.153-2.218-4.671-3.593-6.63-5.811-3.186-3.638-4.111-8.761-5.941-13.308A32.809,32.809,0,0,0,67.186,155.05c3.509,7.231-4.456,16.414-.84,23.578,1.141,2.218,3.315,3.948,4.154,6.344,2.023,5.834-4.714,12.133-2.562,17.9,1.076,2.883,4.068,4.436,5.468,7.275,1.873,3.682.387,8.162.56,12.31.194,5.745,3.595,10.869,7.62,14.839,2.5,2.484,5.3,4.614,8.008,6.854,3.229,2.684,4.607,5.479,7.448,1.2A37.683,37.683,0,0,0,103.307,225.3Z" transform="translate(1.645 137.878)" fill="#231f20"/>
    <path id="Path_312" data-name="Path 312" d="M85.281,224.084c-1.033-4.436-1.765-9.249,0-13.441,1.98-4.725,6.931-8.074,7.512-13.308.387-3.349-1.27-6.654-.624-10.07s3.293-5.567,5.446-8.007a34.083,34.083,0,0,0,8.417-20.517,51.492,51.492,0,0,1,8.008,13.641,17.993,17.993,0,0,1-1.162,15.393,13.388,13.388,0,0,0-2.023,3.416c-.99,3.283,1.722,6.322,3.121,9.427a11.1,11.1,0,0,1-.99,11.09c-2.841,3.638-8.33,5.079-9.73,9.538a24.565,24.565,0,0,0-.5,5.057,14.753,14.753,0,0,1-10.4,12.865c-3.38.843-3.315-.532-3.918-3.46C87.671,231.781,86.207,228.077,85.281,224.084Z" transform="translate(23.352 142.373)" fill="#231f20"/>
    <path id="Path_313" data-name="Path 313" d="M87.072,198.671c-2.389-8.451-3.337-17.323-5.877-25.929A149.655,149.655,0,0,0,73.36,153.4l10.268,4.436c3.293,1.442,6.845,3.127,8.4,6.432,2.712,5.789-2.153,13.175.689,18.876a49.523,49.523,0,0,0,4.068,5.279c3.014,4.436,2.562,10.381.9,15.527-.71,2.218-3.832,13.508-6.608,10.358-1.119-1.242-1.205-5.944-1.679-7.652C88.708,203.928,87.825,201.31,87.072,198.671Z" transform="translate(10.841 135.868)" fill="#231f20"/>
    <path id="Path_314" data-name="Path 314" d="M86.86,259.968c-2.153-13.93-8.438-63.06-8.61-63.57l2.153-.288c0,.488,6.458,49.6,8.5,63.526Z" transform="translate(16.477 187.892)" fill="#231f20"/>
    <path id="Path_315" data-name="Path 315" d="M84.7,277.107H82.55c0-16.569,6.845-79.851,10.763-84.287l1.593,1.486C91.914,197.655,84.832,258.785,84.7,277.107Z" transform="translate(21.433 183.885)" fill="#231f20"/>
    <path id="Path_316" data-name="Path 316" d="M89.471,290.669H87.318c1.528-35.667-5.833-110.593-5.9-111.347l2.153-.222C83.659,179.765,91.021,254.847,89.471,290.669Z" transform="translate(20.131 167.173)" fill="#231f20"/>
    <path id="Path_317" data-name="Path 317" d="M74.17,206.88h38.208l-2.669,44.628c-.452,7.741-6.027,13.752-12.743,13.752H89.582c-6.716,0-12.27-6.011-12.743-13.752Z" transform="translate(11.775 201.011)" fill="#fff"/>
    <path id="Path_318" data-name="Path 318" d="M97.555,267.113H90.172c-7.276,0-13.346-6.5-13.841-14.817L73.662,207.58a1.152,1.152,0,0,1,.289-.858,1.083,1.083,0,0,1,.808-.362h38.208a1.063,1.063,0,0,1,.818.377,1.106,1.106,0,0,1,.3.843L111.418,252.3C110.988,260.614,104.831,267.113,97.555,267.113ZM76.03,208.667l2.519,43.474c.431,7.1,5.532,12.665,11.624,12.665h7.383c6.113,0,11.215-5.567,11.645-12.665l2.583-43.5Z" transform="translate(11.185 200.378)" fill="#231f20"/>
  </g>
</svg>
