<svg xmlns="http://www.w3.org/2000/svg" width="787.08" height="576.601" viewBox="0 0 787.08 576.601">
  <g id="pic4" transform="translate(-86.09 -59.952)">
    <path id="Path_341" data-name="Path 341" d="M107.94,181.41h20.994v14.8a10.485,10.485,0,0,1,1.678,9.262c-1.678,5-3.836,9.558-12.98,6.51S107.94,194.312,107.94,181.41Z" transform="translate(52.981 237.946)" fill="#ffc9b0"/>
    <path id="Path_342" data-name="Path 342" d="M125.228,217.743a20.83,20.83,0,0,1-6.4-1.154c-10.959-3.669-11.884-18.435-11.884-33.26a3.218,3.218,0,0,1,3.425-2.959h20.994a3.218,3.218,0,0,1,3.425,2.959v13.908A14.469,14.469,0,0,1,129.68,217a10.872,10.872,0,0,1-4.452.74ZM113.79,186.288c0,9.114.753,22.519,7.5,24.768a8.8,8.8,0,0,0,5.343.533c1.507-.621,2.4-2.959,3.117-5.119a7.859,7.859,0,0,0-1.233-6.747,2.838,2.838,0,0,1-.582-1.687V186.2Z" transform="translate(50.556 235.909)" fill="#093f68"/>
    <path id="Path_343" data-name="Path 343" d="M163.555,181.41H142.561v14.8a10.49,10.49,0,0,0-1.712,9.262c1.712,5,3.87,9.558,12.98,6.51S163.555,194.312,163.555,181.41Z" transform="translate(131.754 237.946)" fill="#ffc9b0"/>
    <path id="Path_344" data-name="Path 344" d="M151.126,217.822a11.1,11.1,0,0,1-4.486-.858,14.418,14.418,0,0,1-5.069-19.767V183.289A3.218,3.218,0,0,1,145,180.33H165.99a3.218,3.218,0,0,1,3.425,2.959c0,14.8-.925,29.591-11.918,33.26A20.758,20.758,0,0,1,151.126,217.822Zm-2.706-31.455V198.2a2.691,2.691,0,0,1-.616,1.687,7.86,7.86,0,0,0-1.233,6.747c.719,2.131,1.644,4.5,3.117,5.119a8.764,8.764,0,0,0,5.343-.533c6.85-2.249,7.466-15.654,7.535-24.768Z" transform="translate(129.319 235.83)" fill="#093f68"/>
    <path id="Path_345" data-name="Path 345" d="M152.839,137.56h44.522c24.8,0,44.9,17.368,44.9,38.794v90.962H107.94V176.354C107.94,154.928,128.042,137.56,152.839,137.56Z" transform="translate(52.981 152.04)" fill="#fff"/>
    <path id="Path_346" data-name="Path 346" d="M244.753,272.234H110.365a3.218,3.218,0,0,1-3.425-2.959V178.313c.038-23.046,21.651-41.72,48.324-41.753h44.522c26.673.033,48.286,18.707,48.324,41.753v90.962a3.207,3.207,0,0,1-3.357,2.959Zm-130.963-5.918H241.328v-88c-.019-19.784-18.576-35.818-41.474-35.835H155.332c-22.9.016-41.455,16.05-41.474,35.835Z" transform="translate(50.556 150.081)" fill="#093f68"/>
    <path id="Path_347" data-name="Path 347" d="M116.495,227.768a3.218,3.218,0,0,1-3.425-2.959v-73.06a3.461,3.461,0,0,1,6.85,0v73.06A3.218,3.218,0,0,1,116.495,227.768Z" transform="translate(65.42 174.041)" fill="#093f68"/>
    <path id="Path_348" data-name="Path 348" d="M143.475,227.472a3.218,3.218,0,0,1-3.425-2.959V151.749a3.461,3.461,0,0,1,6.85,0v72.764a3.218,3.218,0,0,1-3.425,2.959Z" transform="translate(130.84 174.041)" fill="#093f68"/>
    <path id="Path_349" data-name="Path 349" d="M159.1,98.577a44.267,44.267,0,0,1,6.267-.947c9.726-.74,19.658-1.775,28.939,1.272,19.164,6.375,32.524,21.549,34.522,39.208l1.644,34.651L121.8,185.752c-.89-1.983-8.185-8.138-8.288-10.179A25.689,25.689,0,0,0,111.632,169a80.691,80.691,0,0,1-4.144-16.9,58.231,58.231,0,0,1,3.425-26.632,28.064,28.064,0,0,1,8.87-14.115c4.76-3.492,12.809-4.261,16.918,0a41.559,41.559,0,0,1,22.4-12.783Z" transform="translate(51.104 72.275)" fill="#725858"/>
    <path id="Path_350" data-name="Path 350" d="M124.228,190.674a3.45,3.45,0,0,1-3.185-1.894,33.7,33.7,0,0,0-3.014-3.344c-3.425-3.581-5.411-5.681-5.514-7.753a16.876,16.876,0,0,0-1.2-4.379,5.538,5.538,0,0,0-.548-1.48,85.061,85.061,0,0,1-4.281-17.429,60.612,60.612,0,0,1,3.733-27.993,30.732,30.732,0,0,1,9.9-15.476,18.893,18.893,0,0,1,18.7-2.042,45.992,45.992,0,0,1,21.85-11.215,48.454,48.454,0,0,1,6.85-1.006l1.712-.148c9.487-.74,19.281-1.539,28.734,1.568,20.4,6.758,34.616,22.9,36.714,41.694l1.678,34.828a3.139,3.139,0,0,1-2.98,2.959l-108.634,12.99ZM119.3,177.151a36.188,36.188,0,0,0,3.973,4.5,33.466,33.466,0,0,1,2.637,2.959L229.3,172.239c-.377-8.049-1.473-31.514-1.507-31.958h0c-1.929-16.475-14.414-30.615-32.3-36.574-8.014-2.6-16.61-1.923-25.686-1.213h-1.747a42,42,0,0,0-5.754.829h0a38.231,38.231,0,0,0-20.377,11.452,3.622,3.622,0,0,1-2.6,1.154,3.683,3.683,0,0,1-2.706-1.036c-2.74-2.722-8.767-1.983-12.089.474a25.7,25.7,0,0,0-7.808,12.724,55.038,55.038,0,0,0-3.425,25.6,79.056,79.056,0,0,0,4.041,16.393l.479,1.361a19.717,19.717,0,0,1,1.473,5.711ZM119.3,177.151Zm42.227-76.492Z" transform="translate(48.679 70.312)" fill="#093f68"/>
    <path id="Path_351" data-name="Path 351" d="M125,135.61h17.124v8.463c0,3.448-3.235,6.244-7.226,6.244h-2.569c-3.991,0-7.226-2.8-7.226-6.244V135.61Z" transform="translate(94.348 148.22)" fill="#ffc9b0"/>
    <path id="Path_352" data-name="Path 352" d="M137.22,155.235h-2.569c-5.882,0-10.651-4.12-10.651-9.2v-8.463a3.218,3.218,0,0,1,3.425-2.959h17.124a3.218,3.218,0,0,1,3.425,2.959v8.463a8.626,8.626,0,0,1-3.156,6.539A11.578,11.578,0,0,1,137.22,155.235Zm-6.37-14.8v5.5a3.572,3.572,0,0,0,3.8,3.285h2.569a3.571,3.571,0,0,0,3.8-3.285v-5.5Z" transform="translate(91.923 146.261)" fill="#093f68"/>
    <path id="Path_434" data-name="Path 434" d="M15.565.194c8.6.107,15.644,5.713,15.742,12.52S24.516,24.954,15.92,24.847.276,19.134.178,12.326,6.969.087,15.565.194Z" transform="translate(250.864 230.864) rotate(-5.28)" fill="#ffc9b0"/>
    <path id="Path_353" data-name="Path 353" d="M152.233,146.875a21.461,21.461,0,0,1-11.815-3.4,14.489,14.489,0,0,1-6.85-10.386c-.529-8.677,7.092-16.117,17.124-16.719a21.72,21.72,0,0,1,13.7,3.314,14.245,14.245,0,0,1,6.809,10.393,13.4,13.4,0,0,1-4.48,11.3,20.821,20.821,0,0,1-12.809,5.415Q153.075,146.865,152.233,146.875Zm.582-24.649h-1.267c-6.349.209-11.308,4.811-11.1,10.3a8.7,8.7,0,0,0,4.11,6.214,14.7,14.7,0,0,0,17.329-1.391,8.183,8.183,0,0,0,2.74-6.747h0a8.709,8.709,0,0,0-4.144-6.214,14.008,14.008,0,0,0-7.6-2.16Z" transform="translate(115.061 110.353)" fill="#093f68"/>
    <path id="Path_354" data-name="Path 354" d="M165.688,189.584h0c-27.427,2.193-51.717-15.243-54.248-38.942l9.007-11.6s20.1-18.494,15.343-30.153c0,0,28.871,13.434,47.159,10.682,23.665-3.521,24.967-3.847,24.967-3.847l2.877,26.987c2.518,23.7-17.672,44.684-45.1,46.872Z" transform="translate(61.468 95.873)" fill="#ffc9b0"/>
    <path id="Path_355" data-name="Path 355" d="M163.465,194.706c-27.508-.065-50.457-18.177-53.015-41.842a2.662,2.662,0,0,1,.582-1.923l9.007-11.6.342-.355c5.206-4.794,17.946-19,14.59-27.164A2.712,2.712,0,0,1,136,108.6a3.861,3.861,0,0,1,3.767-.385c.274,0,28.049,12.9,44.967,10.386,21.85-3.285,24.487-3.788,24.727-3.817a3.865,3.865,0,0,1,2.808.473,2.9,2.9,0,0,1,1.4,2.131l2.877,26.987c1.314,12.162-3.023,24.277-12.055,33.674s-22.019,15.306-36.1,16.423h0Q165.939,194.694,163.465,194.706ZM117.4,153.279c2.975,21.61,25.332,37.239,50.413,35.243h0c25.542-2.062,44.328-21.6,41.988-43.676l-2.534-23.673c-4.247.681-11.61,1.805-21.3,3.255-14.281,2.131-34.008-4.7-43.632-8.581-.856,11.629-14.281,24.649-16.781,26.987Z" transform="translate(59.034 93.918)" fill="#093f68"/>
    <rect id="Rectangle_41" data-name="Rectangle 41" width="36.303" height="143.96" transform="translate(181.847 397.577)" fill="#093f68"/>
    <path id="Path_356" data-name="Path 356" d="M152.777,322.928h-36.3a3.218,3.218,0,0,1-3.425-2.959V176.009a3.218,3.218,0,0,1,3.425-2.959h36.3a3.218,3.218,0,0,1,3.425,2.959v143.96A3.218,3.218,0,0,1,152.777,322.928ZM119.9,317.01h29.453V178.968H119.9Z" transform="translate(65.372 221.568)" fill="#093f68"/>
    <rect id="Rectangle_42" data-name="Rectangle 42" width="31.474" height="143.96" transform="translate(242.876 397.577)" fill="#093f68"/>
    <path id="Path_357" data-name="Path 357" d="M165.8,322.928H134.295a3.218,3.218,0,0,1-3.425-2.959V176.009a3.218,3.218,0,0,1,3.425-2.959H165.8a3.218,3.218,0,0,1,3.425,2.959v143.96A3.218,3.218,0,0,1,165.8,322.928ZM137.72,317.01h24.658V178.968H137.72Z" transform="translate(108.581 221.568)" fill="#093f68"/>
    <rect id="Rectangle_43" data-name="Rectangle 43" width="90.756" height="22.223" transform="translate(183.593 397.311)" fill="#093f68"/>
    <path id="Path_358" data-name="Path 358" d="M207.775,201.023H116.985a3.218,3.218,0,0,1-3.425-2.959v-22.1A3.218,3.218,0,0,1,116.985,173h90.791a3.218,3.218,0,0,1,3.425,2.959v22.223A3.242,3.242,0,0,1,207.775,201.023ZM120.41,195.1h83.941V178.918H120.41Z" transform="translate(66.608 221.47)" fill="#093f68"/>
    <path id="Path_359" data-name="Path 359" d="M158.2,222.7v20.063H108.95L133.574,222.7Z" transform="translate(55.43 318.837)" fill="#fff"/>
    <path id="Path_360" data-name="Path 360" d="M160.518,247.681H111.441a3.463,3.463,0,0,1-3.2-1.863,2.686,2.686,0,0,1,.84-3.256l24.59-20.063a3.738,3.738,0,0,1,2.363-.8h24.624a3.218,3.218,0,0,1,3.425,2.959v20.063a2.78,2.78,0,0,1-1.051,2.135A3.743,3.743,0,0,1,160.518,247.681ZM119.9,241.763h37.193V227.618H137.264Z" transform="translate(53.111 316.878)" fill="#093f68"/>
    <path id="Path_361" data-name="Path 361" d="M132.45,222.7v20.063h49.214L157.04,222.7Z" transform="translate(112.412 318.837)" fill="#fff"/>
    <path id="Path_362" data-name="Path 362" d="M184.089,247.681H134.875a3.218,3.218,0,0,1-3.425-2.959V224.659a3.218,3.218,0,0,1,3.425-2.959h24.59a3.737,3.737,0,0,1,2.363.8l24.59,20.063a2.686,2.686,0,0,1,.847,3.243,3.454,3.454,0,0,1-3.176,1.877ZM138.3,241.763h37.159l-17.364-14.144H138.3Z" transform="translate(109.988 316.878)" fill="#093f68"/>
    <rect id="Rectangle_44" data-name="Rectangle 44" width="16.062" height="10.919" rx="1.36" transform="translate(220.718 302.058)" fill="#f56132"/>
    <path id="Path_363" data-name="Path 363" d="M139.3,157.686h-6.85c-4.469-.016-8.082-3.151-8.082-7.013v-2.959c0-3.857,3.619-6.983,8.082-6.983h6.85c4.464,0,8.082,3.127,8.082,6.983v2.959c0,3.862-3.613,7-8.083,7.013Zm-6.85-10.919a1.158,1.158,0,0,0-1.233,1.065v2.959a1.185,1.185,0,0,0,1.233,1.095h6.85a1.185,1.185,0,0,0,1.233-1.095v-2.959a1.158,1.158,0,0,0-1.233-1.065Z" transform="translate(92.82 158.251)" fill="#093f68"/>
    <path id="Path_364" data-name="Path 364" d="M133.02,145.46l-9.35,43.824,14.521,20,12.089-18.139-8.048-45.688Z" transform="translate(91.123 167.517)" fill="#f56132"/>
    <path id="Path_365" data-name="Path 365" d="M140.6,214.176a3.578,3.578,0,0,1-2.911-1.391l-14.487-20a2.632,2.632,0,0,1-.479-2.1l9.35-43.854a3.345,3.345,0,0,1,3.425-2.4h9.213a3.316,3.316,0,0,1,3.425,2.515l8.048,45.688a2.776,2.776,0,0,1-.411,1.923L143.653,212.7a3.54,3.54,0,0,1-2.877,1.48ZM129.714,190.5l10.754,14.8,8.665-12.961L141.7,150.171h-3.425Z" transform="translate(88.709 165.499)" fill="#093f68"/>
    <ellipse id="Ellipse_20" data-name="Ellipse 20" cx="4.486" cy="3.876" rx="4.486" ry="3.876" transform="translate(216.231 236.159)" fill="#093f68"/>
    <ellipse id="Ellipse_21" data-name="Ellipse 21" cx="4.486" cy="3.876" rx="4.486" ry="3.876" transform="translate(256.301 229.324)" fill="#093f68"/>
    <path id="Path_366" data-name="Path 366" d="M135.326,137.389h-.171a2.991,2.991,0,1,1,0-5.918h0a25.308,25.308,0,0,0,3.9-.326,39.945,39.945,0,0,0-4.486-6.214,2.7,2.7,0,0,1,.685-4.143,3.794,3.794,0,0,1,4.795.562c4.863,5.622,6.85,9.735,6.2,12.191a4.185,4.185,0,0,1-2.534,2.574,27.653,27.653,0,0,1-8.391,1.272Zm4.418-4.971Z" transform="translate(110.666 118.004)" fill="#093f68"/>
    <path id="Path_367" data-name="Path 367" d="M143.072,141.073H141.7c-5.411-.444-10.274-3.462-14.144-8.877a2.628,2.628,0,0,1-.3-3.069,3.691,3.691,0,0,1,6.087-.067,12.963,12.963,0,0,0,8.973,6.184,13.635,13.635,0,0,0,8.9-3.285,3.829,3.829,0,0,1,4.666.031,2.677,2.677,0,0,1,.3,4.023,21.148,21.148,0,0,1-13.117,5.06Z" transform="translate(98.948 132.312)" fill="#093f68"/>
    <path id="Path_368" data-name="Path 368" d="M128.77,147.635a17.988,17.988,0,0,1-16.141-5.572,12.783,12.783,0,0,1-1.6-14.955c2.762-4.848,8.436-7.949,14.69-8.029" transform="translate(56.33 115.836)" fill="#ffc9b0"/>
    <path id="Path_369" data-name="Path 369" d="M129.436,152.6c-10.661.329-19.84-6.445-21.131-15.594a15.17,15.17,0,0,1,5.069-12.754,23.743,23.743,0,0,1,14.555-6.155,3.333,3.333,0,0,1,3.733,2.693,3.13,3.13,0,0,1-3.117,3.225,16.449,16.449,0,0,0-10.274,4.231,9.923,9.923,0,0,0-3.425,8.256c1.162,6.572,8.242,11.1,15.857,10.15a3.333,3.333,0,0,1,3.733,2.693,3.13,3.13,0,0,1-3.117,3.225Q130.532,152.6,129.436,152.6Z" transform="translate(53.677 113.889)" fill="#093f68"/>
    <path id="Path_370" data-name="Path 370" d="M334.435,93.975l2.74-.917c6.678-2.16,12.843.562,19.007,3.225,15.651,6.747,25.926,22.1,31.439,35.864,6.576,16.334,10,33.526,16.268,49.92a55.827,55.827,0,0,1-5.479,48.47,54.46,54.46,0,0,1-18.973,19.323c-9.418,5.474-17.74,5.563-28.391,4.971-9.452-.533-19.281,2.338-29.008,2.19-20.138-.326-39.933-6.658-53.084-20.211a30.379,30.379,0,0,1-10.1-21.513,53.208,53.208,0,0,1,5.1-16.689c5.822-14.8,3.8-30.567,5.343-45.955,1.2-12.014,2.808-24.5,8.356-35.716C281.8,108.5,293.2,95.928,305.393,97.2c4.521.444,8.973,2.071,13.528,1.568a28.481,28.481,0,0,0,5.651-1.42Z" transform="translate(418.903 63.324)" fill="#725858"/>
    <path id="Path_371" data-name="Path 371" d="M325.181,261.945h-.788c-22.877-.355-42.638-7.9-55.653-21.276A33.53,33.53,0,0,1,257.85,217a42.666,42.666,0,0,1,4.076-14.529c.411-1.006.822-1.983,1.2-2.959,3.836-9.795,4.11-19.915,4.418-30.6,0-4.794.274-9.765.753-14.8,1.2-12.132,2.877-24.975,8.63-36.6,4.486-9.114,17.124-23.051,31.3-21.542,1.781.178,3.425.533,5.1.829a25.464,25.464,0,0,0,7.569.769,25.94,25.94,0,0,0,4.9-1.272l12.6-4.113c7.98-2.6,15.138.473,21.473,3.225,19.247,8.285,29.179,27.135,33.426,37.64,3.425,8.877,6.165,17.755,8.733,26.632,2.26,7.723,4.589,15.742,7.535,23.406a58.726,58.726,0,0,1-5.685,50.6,57.241,57.241,0,0,1-20.1,20.418c-10.48,6.066-19.624,6.1-30.515,5.474a80.173,80.173,0,0,0-14.521,1.006A101.208,101.208,0,0,1,325.181,261.945ZM306.105,102.154c-9.521,0-19.179,10.5-22.912,18.05-5.308,10.8-6.85,23.11-8.082,34.8-.445,4.7-.582,9.558-.719,14.263-.308,10.682-.582,21.72-4.76,32.372-.411,1.036-.822,2.042-1.267,2.959a39.209,39.209,0,0,0-3.665,12.754,28.177,28.177,0,0,0,9.281,19.5C285.693,248.9,303.639,255.7,324.5,256.027a89.548,89.548,0,0,0,13.22-1.095,87.285,87.285,0,0,1,15.994-1.095c9.9.562,17.569.562,26.234-4.468a51.2,51.2,0,0,0,17.877-18.228,53.477,53.477,0,0,0,5.24-46.043c-3.014-7.842-5.377-15.949-7.672-23.673-2.534-8.641-5.137-17.577-8.562-26.07-3.117-7.782-12.295-26.632-29.727-34.207-6.1-2.6-11.13-4.764-16.268-2.959l-2.74.888h0l-9.863,3.225a29.2,29.2,0,0,1-6.473,1.6,32.284,32.284,0,0,1-9.932-.829,42.3,42.3,0,0,0-4.418-.74,9.126,9.126,0,0,0-1.3-.3Zm30.823-5.918Z" transform="translate(416.478 61.211)" fill="#093f68"/>
    <path id="Path_372" data-name="Path 372" d="M259,171.83h18.973v13.286a9.569,9.569,0,0,1,1.541,8.374c-1.541,4.5-3.425,8.611-11.747,5.918S259,183.489,259,171.83Z" transform="translate(419.267 219.178)" fill="#ffc9b0"/>
    <path id="Path_373" data-name="Path 373" d="M274.81,205.155a19.468,19.468,0,0,1-5.891-1.065c-10.274-3.373-10.959-16.808-10.959-30.3a3.218,3.218,0,0,1,3.425-2.959h18.973a3.218,3.218,0,0,1,3.425,2.959v12.487a12.061,12.061,0,0,1,1.4,10,11.9,11.9,0,0,1-6.2,8.078A10.6,10.6,0,0,1,274.81,205.155Zm-10-28.407c0,8.137.753,19.885,6.576,21.808a7.385,7.385,0,0,0,4.555.5c1.164-.5,1.986-2.427,2.671-4.468a6.714,6.714,0,0,0-1.1-5.918,2.839,2.839,0,0,1-.582-1.687V176.659Z" transform="translate(416.745 217.219)" fill="#093f68"/>
    <path id="Path_374" data-name="Path 374" d="M309.169,171.83H290.2v13.286a9.487,9.487,0,0,0-1.507,8.374c1.507,4.5,3.425,8.611,11.713,5.918S309.169,183.489,309.169,171.83Z" transform="translate(490.301 219.178)" fill="#ffc9b0"/>
    <path id="Path_375" data-name="Path 375" d="M298.173,205.155a10.6,10.6,0,0,1-4.178-.8,13.193,13.193,0,0,1-4.795-18.08V173.789a3.218,3.218,0,0,1,3.425-2.959H311.6a3.218,3.218,0,0,1,3.425,2.959c0,13.493-.856,26.928-10.959,30.3a19.467,19.467,0,0,1-5.891,1.065Zm-2.123-28.407v10.327a2.679,2.679,0,0,1-.582,1.687,6.632,6.632,0,0,0-1.062,5.918c.685,2.042,1.473,3.965,2.637,4.468a7.386,7.386,0,0,0,4.555-.5c5.822-1.923,6.473-13.671,6.576-21.808Z" transform="translate(487.871 217.219)" fill="#093f68"/>
    <path id="Path_376" data-name="Path 376" d="M299.412,132.24h40.241c22.395,0,40.549,15.686,40.549,35.036V249.39H259V167.276c0-19.3,18.071-34.97,40.412-35.036Z" transform="translate(419.267 141.618)" fill="#fff"/>
    <path id="Path_377" data-name="Path 377" d="M382.627,254.308h-121.2A3.218,3.218,0,0,1,258,251.349V169.235c.019-20.977,19.7-37.978,43.974-37.995h40.241c24.278.016,43.955,17.018,43.974,37.995v82.115a2.781,2.781,0,0,1-1.051,2.135A3.744,3.744,0,0,1,382.627,254.308ZM264.713,248.39H379.2V169.235c-.038-17.7-16.637-32.044-37.124-32.077H301.837c-20.434.1-36.95,14.421-36.987,32.076Z" transform="translate(416.842 139.659)" fill="#093f68"/>
    <rect id="Rectangle_45" data-name="Rectangle 45" width="16.576" height="75.693" transform="translate(731.145 282.262)" fill="#ffbc0e"/>
    <path id="Path_378" data-name="Path 378" d="M293.441,215.692H276.865a3.218,3.218,0,0,1-3.425-2.959V137.039a3.218,3.218,0,0,1,3.425-2.959h16.576a3.218,3.218,0,0,1,3.425,2.959v75.693A3.218,3.218,0,0,1,293.441,215.692Zm-13.151-5.918h9.726V140H280.29Z" transform="translate(454.28 145.223)" fill="#093f68"/>
    <path id="Path_379" data-name="Path 379" d="M266.925,207.38a3.218,3.218,0,0,1-3.425-2.959V145.239a3.461,3.461,0,0,1,6.849,0v59.182A3.218,3.218,0,0,1,266.925,207.38Z" transform="translate(430.178 161.287)" fill="#093f68"/>
    <path id="Path_380" data-name="Path 380" d="M291.275,207.094a3.218,3.218,0,0,1-3.425-2.959V145.249a3.461,3.461,0,0,1,6.849,0v58.886A3.218,3.218,0,0,1,291.275,207.094Z" transform="translate(489.221 161.307)" fill="#093f68"/>
    <rect id="Rectangle_46" data-name="Rectangle 46" width="26.405" height="149.138" transform="translate(698.233 359.731)" fill="#ffc9b0"/>
    <path id="Path_381" data-name="Path 381" d="M293.694,315.287H267.255a3.218,3.218,0,0,1-3.425-2.959V163.219a3.218,3.218,0,0,1,3.425-2.959h26.439a3.218,3.218,0,0,1,3.425,2.959V312.327A3.218,3.218,0,0,1,293.694,315.287Zm-23.014-5.918h19.59V166.178H270.68Z" transform="translate(430.978 196.512)" fill="#093f68"/>
    <rect id="Rectangle_47" data-name="Rectangle 47" width="26.336" height="149.138" transform="translate(755.187 359.731)" fill="#ffc9b0"/>
    <path id="Path_382" data-name="Path 382" d="M310.187,315.287h-26.3a3.218,3.218,0,0,1-3.425-2.959V163.219a3.218,3.218,0,0,1,3.425-2.959h26.3a3.218,3.218,0,0,1,3.425,2.959V312.327A3.218,3.218,0,0,1,310.187,315.287Zm-22.877-5.918h19.453V166.178H287.31Z" transform="translate(471.302 196.512)" fill="#093f68"/>
    <rect id="Rectangle_48" data-name="Rectangle 48" width="85.003" height="103.657" transform="translate(697.103 359.168)" fill="#093f68"/>
    <path id="Path_383" data-name="Path 383" d="M351.928,269.586h-85a3.218,3.218,0,0,1-3.425-2.959V163.059a3.218,3.218,0,0,1,3.425-2.959h85a3.218,3.218,0,0,1,3.425,2.959V266.627A3.218,3.218,0,0,1,351.928,269.586Zm-81.578-5.918H348.5v-97.65H270.35Z" transform="translate(430.178 196.198)" fill="#093f68"/>
    <path id="Path_384" data-name="Path 384" d="M306.375,211.65v19.471H258.6l23.871-19.471Z" transform="translate(418.297 297.189)" fill="#fff"/>
    <path id="Path_385" data-name="Path 385" d="M308.792,236.039H261.016a3.454,3.454,0,0,1-3.176-1.877,2.686,2.686,0,0,1,.847-3.243l23.973-19.441a3.721,3.721,0,0,1,2.329-.829h23.973a3.218,3.218,0,0,1,3.425,2.959V233.08a2.782,2.782,0,0,1-1.063,2.147A3.75,3.75,0,0,1,308.792,236.039Zm-39.145-5.918h35.72V216.568H286.36Z" transform="translate(415.88 295.23)" fill="#093f68"/>
    <path id="Path_386" data-name="Path 386" d="M281.4,211.65v19.471h47.741L305.271,211.65Z" transform="translate(473.582 297.189)" fill="#fff"/>
    <path id="Path_387" data-name="Path 387" d="M331.566,236.039H283.825a3.218,3.218,0,0,1-3.425-2.959V213.609a3.218,3.218,0,0,1,3.425-2.959H307.8a3.721,3.721,0,0,1,2.329.829L334.1,230.92a2.686,2.686,0,0,1,.84,3.256,3.463,3.463,0,0,1-3.2,1.863Zm-44.317-5.918h35.686l-16.507-13.553H287.25Z" transform="translate(471.157 295.23)" fill="#093f68"/>
    <path id="Path_388" data-name="Path 388" d="M7.33,0H9.9c3.991,0,7.226,2.8,7.226,6.244V14.8H0V6.333a5.835,5.835,0,0,1,2.116-4.5A7.854,7.854,0,0,1,7.33,0Z" transform="translate(748.201 285.133) rotate(180)" fill="#ffc9b0"/>
    <path id="Path_389" data-name="Path 389" d="M286.63,150.714h-2.569c-5.882,0-10.651-4.12-10.651-9.2v-8.552A3.218,3.218,0,0,1,276.835,130h17.124a3.218,3.218,0,0,1,3.425,2.959v8.463a8.607,8.607,0,0,1-3.119,6.6,11.57,11.57,0,0,1-7.635,2.695Zm-6.37-14.8v5.5a3.572,3.572,0,0,0,3.8,3.285h2.569a3.571,3.571,0,0,0,3.8-3.285v-5.5Z" transform="translate(454.208 137.23)" fill="#093f68"/>
    <path id="Path_435" data-name="Path 435" d="M12.326.178c6.808.1,12.413,7.146,12.52,15.742S19.522,31.405,12.715,31.307.3,24.161.194,15.565,5.519.079,12.326.178Z" transform="translate(683 239.455) rotate(-84.72)" fill="#ffc9b0"/>
    <path id="Path_390" data-name="Path 390" d="M278.948,142.257q-.941.043-1.884,0c-10.109-.509-17.84-7.982-17.3-16.719h0c1.568-8.553,10.542-14.592,20.523-13.811s17.555,8.113,17.32,16.77c-1.195,8.054-9.271,14.008-18.665,13.76Zm-12.363-16.245c-1.043,4.288,1.086,8.687,5.351,11.057a13.829,13.829,0,0,0,13.864-.378c4.083-2.6,5.887-7.1,4.534-11.326s-5.583-7.285-10.631-7.7c-6.281-.8-12.132,2.926-13.117,8.345Z" transform="translate(421.066 101.299)" fill="#093f68"/>
    <path id="Path_391" data-name="Path 391" d="M308.987,187.975c27.427,2.193,51.717-15.243,54.248-38.942l-9.007-11.6a53.375,53.375,0,0,1-13.117-16.512c-3.082-7.339-4.041-14.411-14.384-16.956-7.719-1.723-15.872.813-20.549,6.392-4.183-5.78-12.131-8.65-19.83-7.161a27.121,27.121,0,0,0-17.5,11.836c-5.548,8.611-4.452,16.512-4.76,25.714a42.054,42.054,0,0,0,4.452,22.43c7.514,13.824,22.863,23.235,40.447,24.8Z" transform="translate(431.268 83.959)" fill="#ffc9b0"/>
    <path id="Path_392" data-name="Path 392" d="M316.145,192.975q-2.466,0-4.932-.178h0c-18.847-1.55-35.351-11.571-43.426-26.365a45.217,45.217,0,0,1-4.76-23.673v-4.587c0-7.546,0-14.8,5.137-22.489,4.033-6.728,11.24-11.617,19.761-13.4a25.078,25.078,0,0,1,20.754,5.356,25.844,25.844,0,0,1,21.439-4.557c10.514,2.6,13.014,9.173,15.377,15.565.411,1.065.822,2.16,1.3,3.255a49.432,49.432,0,0,0,12.4,15.506l.342.355,9.007,11.6a2.661,2.661,0,0,1,.582,1.923C366.486,174.877,343.58,192.9,316.145,192.975Zm-4.315-6.066c25.081,1.963,47.421-13.667,50.412-35.272l-8.151-10.5a53.229,53.229,0,0,1-13.7-17.34c-.514-1.154-.925-2.308-1.37-3.462-2.158-5.77-3.733-9.943-10.754-11.659-6.359-1.42-13.078.655-16.953,5.238a3.632,3.632,0,0,1-3,1.271,3.511,3.511,0,0,1-2.825-1.537c-3.471-4.624-9.908-6.891-16.131-5.681a23.635,23.635,0,0,0-15.206,10.5c-4.144,6.451-4.178,12.547-4.247,19.619v4.735a40.179,40.179,0,0,0,4.11,21.1c7.141,12.82,21.465,21.523,37.844,22.992Z" transform="translate(428.734 82.096)" fill="#093f68"/>
    <ellipse id="Ellipse_23" data-name="Ellipse 23" cx="4.486" cy="3.876" rx="4.486" ry="3.876" transform="translate(746.694 212.753)" fill="#093f68"/>
    <ellipse id="Ellipse_24" data-name="Ellipse 24" cx="4.486" cy="3.876" rx="4.486" ry="3.876" transform="translate(706.624 205.947)" fill="#093f68"/>
    <path id="Path_393" data-name="Path 393" d="M280.872,129.642a27.923,27.923,0,0,1-8.562-1.3,4.007,4.007,0,0,1-2.534-2.545c-.753-2.456,1.336-6.569,6.233-12.191a3.62,3.62,0,0,1,3.225-1.382,3.4,3.4,0,0,1,2.874,1.874,2.659,2.659,0,0,1-.654,3.059,41.424,41.424,0,0,0-4.486,6.244,27.364,27.364,0,0,0,3.973.326h0a2.991,2.991,0,1,1,0,5.918Z" transform="translate(445.033 102.375)" fill="#093f68"/>
    <path id="Path_394" data-name="Path 394" d="M284.07,133.143a21.278,21.278,0,0,1-13.014-5.149,2.709,2.709,0,0,1-.99-2.96,3.262,3.262,0,0,1,2.592-2.116,3.739,3.739,0,0,1,3.364,1.021,13.646,13.646,0,0,0,8.8,3.225,12.792,12.792,0,0,0,8.973-6.185,3.757,3.757,0,0,1,4.726-.917,2.732,2.732,0,0,1,1.062,4.084c-3.973,5.474-8.733,8.463-14.144,8.877Z" transform="translate(445.808 116.864)" fill="#093f68"/>
    <path id="Path_395" data-name="Path 395" d="M289.42,143.036a18.021,18.021,0,0,0,16.3-5.492,12.788,12.788,0,0,0,1.609-15.055c-2.806-4.877-8.56-7.965-14.863-7.979" transform="translate(493.028 106.883)" fill="#ffc9b0"/>
    <path id="Path_396" data-name="Path 396" d="M293.757,148.012h-2.192a3.126,3.126,0,0,1-3.1-3.24,3.34,3.34,0,0,1,3.75-2.678,17.38,17.38,0,0,0,10.822-2.574,10.521,10.521,0,0,0,5-7.575c.27-6.647-5.733-12.231-13.425-12.487a3.126,3.126,0,0,1-3.1-3.24,3.341,3.341,0,0,1,3.75-2.678c11.453.572,20.213,9.041,19.59,18.938a16.111,16.111,0,0,1-7.706,11.836,24.373,24.373,0,0,1-13.391,3.7Z" transform="translate(490.677 104.954)" fill="#093f68"/>
    <rect id="Rectangle_49" data-name="Rectangle 49" width="257.543" height="149.168" transform="translate(350.311 484.427)" fill="#ee885e"/>
    <path id="Path_397" data-name="Path 397" d="M423.207,357.486H165.665a3.218,3.218,0,0,1-3.425-2.959V205.359a3.218,3.218,0,0,1,3.425-2.959H423.207a3.218,3.218,0,0,1,3.425,2.959V354.527A3.218,3.218,0,0,1,423.207,357.486ZM169.09,351.568H419.783V208.318H169.09Z" transform="translate(184.646 279.067)" fill="#093f68"/>
    <rect id="Rectangle_50" data-name="Rectangle 50" width="261.892" height="104.693" transform="translate(607.853 528.902)" fill="#ee885e"/>
    <path id="Path_398" data-name="Path 398" d="M502.757,328.041H240.865a3.218,3.218,0,0,1-3.425-2.959V220.389a3.218,3.218,0,0,1,3.425-2.959H502.757a3.218,3.218,0,0,1,3.425,2.959V325.082A3.218,3.218,0,0,1,502.757,328.041ZM244.29,322.122H499.332V223.348H244.29Z" transform="translate(366.989 308.513)" fill="#093f68"/>
    <rect id="Rectangle_51" data-name="Rectangle 51" width="261.892" height="71.995" transform="translate(89.515 561.6)" fill="#ee885e"/>
    <path id="Path_399" data-name="Path 399" d="M351.407,306.393H89.515a3.218,3.218,0,0,1-3.425-2.959V231.439a3.218,3.218,0,0,1,3.425-2.959H351.407a3.218,3.218,0,0,1,3.425,2.959v71.995A3.218,3.218,0,0,1,351.407,306.393ZM92.94,300.475H347.982V234.4H92.94Z" transform="translate(0 330.16)" fill="#093f68"/>
    <path id="Path_400" data-name="Path 400" d="M177.756,79.4c9.555,22.134,75.345,78.3,132.47,78.3,13.083,0,105.551,15.032,125.723,32.284,19.384,16.571-42.364,59.833-42.364,59.833L372.317,234.1l32.364-29.029L354.2,192.94v88.95H263.136v-85.1s-42.947-25.33-61.646-44.889c-11.679-12.162-34.248-34.355-45.31-59.537Z" transform="translate(169.952 38.1)" fill="#fff"/>
    <path id="Path_401" data-name="Path 401" d="M356.7,286.81H265.638a3.218,3.218,0,0,1-3.425-2.959V200.316c-7.877-4.735-43.837-26.632-60.961-44.564l-3.151-3.285c-12.192-12.547-32.57-33.586-42.741-57.14a2.747,2.747,0,0,1,1.267-3.462l21.713-12.931a3.643,3.643,0,0,1,2.945-.385,3.271,3.271,0,0,1,2.192,1.775C193.033,102.489,258.1,156.7,312.729,156.7c13.425,0,106.921,15,128.155,33.142a12.87,12.87,0,0,1,4.726,11.037c-1.164,20.714-45.481,51.873-47.365,53.264a3.847,3.847,0,0,1-4.384,0l-21.268-15.683a2.829,2.829,0,0,1-1.2-2.131,2.746,2.746,0,0,1,.959-2.19l28.357-25.478-40.583-9.854v85.044A3.217,3.217,0,0,1,356.7,286.81Zm-87.469-5.918h84.044V194.9a2.84,2.84,0,0,1,1.336-2.338,3.86,3.86,0,0,1,3.014-.5l50.618,12.132a3.236,3.236,0,0,1,2.4,2.042,2.682,2.682,0,0,1-.822,2.959l-29.83,26.78,16.3,12.073c13.425-9.765,41.851-33.26,42.673-47.345a7.612,7.612,0,0,0-2.74-6.54c-19.145-16.364-111.1-31.426-123.292-31.426-55.721,0-119.285-51.311-133.908-76.788l-16.062,9.587C173,117.284,192.04,136.962,203.547,148.8l3.185,3.314c18.288,19.027,60.618,44.09,61.029,44.386a2.877,2.877,0,0,1,1.507,2.426Z" transform="translate(167.449 36.139)" fill="#093f68"/>
    <path id="Path_402" data-name="Path 402" d="M249.84,62.85c-25.549-1.124-51.954,5.445-62.331,27.9-6.336,13.7-6.541,28.94-4.692,43.617a20.376,20.376,0,0,0,3.082,9.765c3.6,4.942,8.7,5.593,14.555,4.527a130.33,130.33,0,0,1,23.323-.74h51.885c7.98,0,24.9,4.527,29.556-2.6s3.973-19.648,4.555-27.49A53.258,53.258,0,0,0,304.089,87.2C293.643,69.271,271.519,63.8,249.84,62.85Z" transform="translate(232.084 5.441)" fill="#725858"/>
    <path id="Path_403" data-name="Path 403" d="M296.206,154.34a96.378,96.378,0,0,1-11.062-.829q-3.506-.462-7.055-.592H220.416a87.489,87.489,0,0,0-16.816.71c-8.288,1.539-14.213-.385-18.186-5.918a23.147,23.147,0,0,1-3.6-11.126c-2.295-18.465-.719-32.787,4.932-45.008,12.877-27.815,46.68-30.6,65.687-29.768,28.631,1.243,47.947,10.031,57.125,26.129,4.966,8.581,6.85,18.761,6.062,31.988a34.951,34.951,0,0,1-.205,4.527c-.308,7.99-.685,17.932-4.795,24.235C307.747,153.186,302.2,154.34,296.206,154.34Zm-81.51-7.486h63.392a78.593,78.593,0,0,1,7.945.651c6.85.769,16.268,1.835,18.631-1.746,3.425-5.06,3.63-14.588,3.9-21.542a33.2,33.2,0,0,1,.205-4.646c.753-12.162-.925-21.394-5.343-29.029-8.219-14.233-25-21.72-51.372-22.844-17.124-.74-47.673,1.628-58.975,26.04-5.24,11.3-6.644,24.708-4.486,42.2a18.015,18.015,0,0,0,2.569,8.493c2.432,3.314,5.48,4.231,10.959,3.225A68.617,68.617,0,0,1,214.7,146.854Z" transform="translate(229.659 3.403)" fill="#093f68"/>
    <path id="Path_404" data-name="Path 404" d="M7.843,0h2.774c4.331,0,7.843,3.034,7.843,6.776v9.173H0V6.776C0,3.034,3.511,0,7.843,0Z" transform="translate(487.267 206.184) rotate(180)" fill="#ffc9b0"/>
    <path id="Path_405" data-name="Path 405" d="M210.942,124.838h-2.808c-6.209-.016-11.233-4.37-11.233-9.735v-9.144A3.218,3.218,0,0,1,200.325,103h18.459a3.218,3.218,0,0,1,3.425,2.959v9.173c-.038,5.358-5.066,9.69-11.267,9.706Zm-7.192-15.949V115.1a3.541,3.541,0,0,0,1.272,2.7,4.754,4.754,0,0,0,3.112,1.12h2.808c2.44,0,4.418-1.709,4.418-3.817v-6.184Z" transform="translate(268.689 84.334)" fill="#093f68"/>
    <ellipse id="Ellipse_25" data-name="Ellipse 25" cx="16.884" cy="13.345" rx="16.884" ry="13.345" transform="translate(510.864 135.491)" fill="#ffc9b0"/>
    <path id="Path_406" data-name="Path 406" d="M227.392,117.1c-10.22-.69-17.941-8.292-17.406-17.136s9.13-15.71,19.378-15.477,18.412,7.481,18.406,16.338c-.445,9.348-9.556,16.625-20.377,16.275Zm0-26.632c-6.446.667-11.131,5.614-10.612,11.206s6.056,9.831,12.543,9.6,11.607-4.842,11.6-10.452c-.4-6.1-6.462-10.769-13.528-10.416Z" transform="translate(300.356 48.045)" fill="#093f68"/>
    <ellipse id="Ellipse_26" data-name="Ellipse 26" cx="16.884" cy="13.345" rx="16.884" ry="13.345" transform="translate(412.436 135.491)" fill="#ffc9b0"/>
    <path id="Path_407" data-name="Path 407" d="M198.7,117.1c-10.232-.658-17.988-8.249-17.477-17.1s9.1-15.74,19.361-15.515,18.434,7.478,18.425,16.343c-.445,9.324-9.514,16.592-20.309,16.275Zm0-26.632c-6.46.637-11.18,5.574-10.684,11.175s6.031,9.861,12.528,9.64,11.629-4.841,11.615-10.459c-.423-6.073-6.427-10.719-13.459-10.416Z" transform="translate(230.619 48.042)" fill="#093f68"/>
    <path id="Path_408" data-name="Path 408" d="M238.951,162.848c29.86.016,54.077-20.894,54.077-46.694a194.629,194.629,0,0,0-.891-24.442,26.517,26.517,0,0,0-1.473-6.895c-4.623-11.452-20.206-7.546-28.8-2.249-6.678,4.261-13.151,9.321-21.336,10.179a28.709,28.709,0,0,1-16.61-3.936c-9.35-5.238-15.377-19.619-28.22-11.245s-10.891,26.129-10.891,38.468c-.036,12.42,5.655,24.341,15.817,33.126s23.954,13.711,38.329,13.687Z" transform="translate(239.104 29.487)" fill="#ffc9b0"/>
    <path id="Path_409" data-name="Path 409" d="M241.312,167.775c-31.736-.016-57.464-22.233-57.5-49.653v-4.912c-.274-12.31-.651-27.608,12.295-36.042,11.576-7.516,19.418,0,25.172,5.415a37.513,37.513,0,0,0,7.021,5.711,24.421,24.421,0,0,0,14.247,3.462c5.719-.592,10.685-3.817,15.925-7.22,1.267-.829,2.5-1.628,3.767-2.4,6.062-3.728,16.028-7.279,24.179-5.03a14.324,14.324,0,0,1,9.863,8.729,29.168,29.168,0,0,1,1.61,7.575,173.6,173.6,0,0,1,.925,22.193v2.545C298.757,145.56,273.035,167.759,241.312,167.775ZM205.557,79.92a9.842,9.842,0,0,0-5.377,1.983c-10.274,6.6-9.863,19.648-9.589,31.189v5.03c0,24.171,22.678,43.765,50.652,43.765S291.9,142.292,291.9,118.121v-2.693a175.245,175.245,0,0,0-.856-21.542,26.6,26.6,0,0,0-1.3-6.244,7.96,7.96,0,0,0-5.445-5.03c-5.377-1.48-13.185,1.154-18.151,4.231l-3.63,2.308c-5.719,3.728-11.678,7.575-19.213,8.374a32.341,32.341,0,0,1-18.87-4.379,41.881,41.881,0,0,1-8.356-6.717C211.654,82.287,208.64,79.92,205.557,79.92Z" transform="translate(236.743 27.519)" fill="#093f68"/>
    <path id="Path_410" data-name="Path 410" d="M206.344,104.664a21.056,21.056,0,0,1-4.521-.414,4.452,4.452,0,0,1-3.082-2.219c-1.3-2.515,0-7.25,4.315-14.115a3.7,3.7,0,0,1,4.589-1.272,3.119,3.119,0,0,1,1.7,1.733,2.6,2.6,0,0,1-.224,2.262,39.148,39.148,0,0,0-3.836,8.108,31.65,31.65,0,0,0,5.069-.266,3.417,3.417,0,0,1,3.973,2.4,3.026,3.026,0,0,1-2.774,3.433,38.779,38.779,0,0,1-5.206.355ZM205.111,99.9Z" transform="translate(271.985 51.659)" fill="#093f68"/>
    <path id="Path_411" data-name="Path 411" d="M241.886,306.695h39.8L242.126,138.5h-39.8Z" transform="translate(281.855 153.882)" fill="#093f68"/>
    <path id="Path_412" data-name="Path 412" d="M284.109,311.584h-39.8a3.353,3.353,0,0,1-3.425-2.367L201.4,141.051a2.664,2.664,0,0,1,.685-2.456,3.656,3.656,0,0,1,2.671-1.095h39.967a3.353,3.353,0,0,1,3.425,2.367L287.7,308.062a2.664,2.664,0,0,1-.685,2.456A3.694,3.694,0,0,1,284.109,311.584Zm-36.987-5.918h32.809L241.744,143.419H208.935Z" transform="translate(279.428 151.922)" fill="#093f68"/>
    <path id="Path_413" data-name="Path 413" d="M190.732,306.695h30.926L223.165,138.5H187.41Z" transform="translate(245.678 153.882)" fill="#093f68"/>
    <path id="Path_414" data-name="Path 414" d="M224.072,311.583H193.25a3.218,3.218,0,0,1-3.425-2.959L186.4,140.459a3.218,3.218,0,0,1,3.425-2.959h35.755a3.709,3.709,0,0,1,2.432.888,2.767,2.767,0,0,1,.993,2.1l-1.541,168.165A3.218,3.218,0,0,1,224.072,311.583Zm-27.4-5.918h23.973l1.473-162.247h-28.8Z" transform="translate(243.228 151.923)" fill="#093f68"/>
    <rect id="Rectangle_52" data-name="Rectangle 52" width="89.147" height="31.366" transform="translate(522.268 323.511) rotate(180)" fill="#093f68"/>
    <path id="Path_415" data-name="Path 415" d="M278.919,174.665H189.875a3.218,3.218,0,0,1-3.425-2.959V140.369a3.218,3.218,0,0,1,3.425-2.959h89.044a3.218,3.218,0,0,1,3.425,2.959v31.337A3.218,3.218,0,0,1,278.919,174.665ZM193.3,168.747h82.194V143.269H193.3Z" transform="translate(243.35 151.746)" fill="#093f68"/>
    <path id="Path_416" data-name="Path 416" d="M213.88,195.34l5.308,22.637H279.6L246.655,195.34Z" transform="translate(309.861 265.236)" fill="#fff"/>
    <path id="Path_417" data-name="Path 417" d="M282.075,222.925H221.662a3.353,3.353,0,0,1-3.425-2.367l-5.308-22.667a2.671,2.671,0,0,1,.724-2.487,3.672,3.672,0,0,1,2.7-1.064h32.775a3.773,3.773,0,0,1,2.123.651l32.981,22.667a2.721,2.721,0,0,1,1.085,3.3,3.435,3.435,0,0,1-3.243,1.972Zm-57.6-5.918h47.947l-24.35-16.748h-27.4Z" transform="translate(307.387 263.277)" fill="#093f68"/>
    <path id="Path_418" data-name="Path 418" d="M236.073,195.34v22.637H180.66l31.268-22.637Z" transform="translate(229.31 265.236)" fill="#fff"/>
    <path id="Path_419" data-name="Path 419" d="M238.474,222.925H183.061a3.433,3.433,0,0,1-3.185-1.948,2.707,2.707,0,0,1,.993-3.26L212.1,195.05a3.759,3.759,0,0,1,2.226-.71h24.145A3.218,3.218,0,0,1,241.9,197.3v22.667A3.217,3.217,0,0,1,238.474,222.925Zm-45.995-5.918h42.57V200.258H215.562Z" transform="translate(226.909 263.277)" fill="#093f68"/>
    <line id="Line_1" data-name="Line 1" y1="28.851" transform="translate(523.981 222.044)" fill="#ffc9b0"/>
    <path id="Path_420" data-name="Path 420" d="M216.425,148.5A3.218,3.218,0,0,1,213,145.54V116.689a3.461,3.461,0,0,1,6.849,0V145.54A3.218,3.218,0,0,1,216.425,148.5Z" transform="translate(307.727 105.355)" fill="#093f68"/>
    <line id="Line_2" data-name="Line 2" y1="18.909" transform="translate(433.088 215.978)" fill="#ffc9b0"/>
    <path id="Path_421" data-name="Path 421" d="M189.835,136.507a3.218,3.218,0,0,1-3.425-2.959V114.639a3.461,3.461,0,0,1,6.85,0v18.909A3.218,3.218,0,0,1,189.835,136.507Z" transform="translate(243.253 101.339)" fill="#093f68"/>
    <path id="Path_422" data-name="Path 422" d="M221.421,108.8a50.626,50.626,0,0,1-27.09-8.877,2.932,2.932,0,0,1-1.373-1.936,2.658,2.658,0,0,1,.619-2.207,3.539,3.539,0,0,1,2.241-1.186,3.845,3.845,0,0,1,2.554.535c26.268,16.482,41.44,1.184,42.056.5a3.616,3.616,0,0,1,2.322-1.058,3.8,3.8,0,0,1,2.507.673,2.692,2.692,0,0,1,.479,4.143,35.737,35.737,0,0,1-24.316,9.41Z" transform="translate(259.031 67.794)" fill="#093f68"/>
    <path id="Path_423" data-name="Path 423" d="M223.58,95.682a3.218,3.218,0,0,1-3.425-2.959c0-2.223-2.085-4.024-4.658-4.024s-4.658,1.8-4.658,4.024a3.461,3.461,0,0,1-6.85,0c0-5.491,5.152-9.943,11.507-9.943S227,87.231,227,92.723A3.218,3.218,0,0,1,223.58,95.682Z" transform="translate(285.88 44.721)" fill="#093f68"/>
    <path id="Path_424" data-name="Path 424" d="M210.15,95.682a3.218,3.218,0,0,1-3.425-2.959c0-2.223-2.085-4.024-4.658-4.024s-4.658,1.8-4.658,4.024a3.461,3.461,0,0,1-6.85,0c0-5.491,5.152-9.943,11.507-9.943s11.507,4.451,11.507,9.943A3.217,3.217,0,0,1,210.15,95.682Z" transform="translate(253.316 44.721)" fill="#093f68"/>
    <path id="Path_425" data-name="Path 425" d="M231.486,131.68s-15.617,8.256-16.953,12.842,2.534,25.892,5.034,27.105,21.576,6.3,22.706,0-7.843-7.99-7.843-7.99,17.638-3.906,18.323-16.245Z" transform="translate(310.783 140.521)" fill="#ffc9b0"/>
    <path id="Path_426" data-name="Path 426" d="M237.837,179.619a56.1,56.1,0,0,1-17.5-3.433c-5.069-2.426-7.911-26.277-6.85-30.419,1.575-5.356,14.555-12.576,18.494-14.647a3.86,3.86,0,0,1,4.007.266L257.255,147.1a2.792,2.792,0,0,1,1.2,2.4c-.777,7.231-6.017,13.535-13.7,16.482a8.209,8.209,0,0,1,3.219,8.049,6.286,6.286,0,0,1-4.007,4.587A16.145,16.145,0,0,1,237.837,179.619Zm-13.7-8.374c5.651,2.367,16.062,2.959,17.124,1.923.616-3.433-4.623-4.557-5.206-4.675a2.991,2.991,0,1,1,0-5.918s13.7-3.225,15.583-12.132l-17.98-13.286c-6.85,3.847-12.843,8.226-13.322,9.883-1.13,3.817,2.021,20.891,3.87,24.205Zm0,.3Z" transform="translate(308.371 138.566)" fill="#093f68"/>
    <rect id="Rectangle_53" data-name="Rectangle 53" width="14.487" height="9.854" rx="1.23" transform="translate(484.939 218.345) rotate(180)" fill="#70cc40"/>
    <path id="Path_427" data-name="Path 427" d="M211.029,124.9h-6.062c-4.2,0-7.618-2.936-7.637-6.569v-2.574c0-3.644,3.419-6.6,7.637-6.6h6.062a8.247,8.247,0,0,1,5.388,1.935,6.145,6.145,0,0,1,2.215,4.664v2.574c0,3.628-3.4,6.569-7.6,6.569Zm-6.062-9.824a.74.74,0,0,0-.788.681v2.574a.612.612,0,0,0,.233.471.824.824,0,0,0,.555.18h6.062a.708.708,0,0,0,.753-.651v-2.574a.6.6,0,0,0-.208-.48.815.815,0,0,0-.545-.2Z" transform="translate(269.731 96.402)" fill="#093f68"/>
    <path id="Path_428" data-name="Path 428" d="M212.658,113.48l8.425,39.533L208,171.034,197.11,154.7l7.26-41.22Z" transform="translate(269.198 104.865)" fill="#70cc40"/>
    <path id="Path_429" data-name="Path 429" d="M210.4,175.953h0a3.546,3.546,0,0,1-2.911-1.48l-10.925-16.334a2.776,2.776,0,0,1-.411-1.923l7.26-41.22a3.316,3.316,0,0,1,3.425-2.515h8.288a3.338,3.338,0,0,1,3.425,2.426l8.391,39.533a2.626,2.626,0,0,1-.445,2.1l-13.083,18.021A3.592,3.592,0,0,1,210.4,175.953Zm-7.329-19.885,7.466,11.185,9.35-12.872L212.215,118.4h-2.5Z" transform="translate(266.798 102.906)" fill="#093f68"/>
    <path id="Path_430" data-name="Path 430" d="M190.839,115.5l-4.315-11.452s3.425-8.877,0-11.659a39.453,39.453,0,0,0-8.7-4.7s-7.226-24.176-8.665-25.626-5.548-2.279-6.85,3.137,2.877,23.081,2.877,23.081A29.959,29.959,0,0,0,151.523,97.8c-5.069,6.865,17.6,30.656,17.6,30.656Z" transform="translate(156.869 2.002)" fill="#ffc9b0"/>
    <path id="Path_431" data-name="Path 431" d="M171.512,133.42a3.651,3.651,0,0,1-2.637-1.095c-7.295-7.634-23.631-26.277-17.843-34.118a32.1,32.1,0,0,1,12.5-9.706c-1.2-5.208-3.63-17.251-2.363-22.075s4.281-5.918,5.993-6.332a7.78,7.78,0,0,1,6.85,1.953c.514.533,1.918,1.923,9.007,25.478A41.287,41.287,0,0,1,191.1,92.2c4.144,3.344,2.329,10.564,1.233,13.819l4.007,10.564a2.755,2.755,0,0,1-1.3,3.344l-21.679,12.961A3.8,3.8,0,0,1,171.512,133.42Zm-2.671-67.408c-.24,0-.685.651-.993,1.835-.925,3.492,1.3,15.239,2.911,21.808a2.912,2.912,0,0,1-2.158,3.4,26.542,26.542,0,0,0-11.815,8.463c-1.815,2.486,5.377,14.085,15.411,25.063l17.124-10.12-3.425-9.351a2.578,2.578,0,0,1,0-1.835,12.753,12.753,0,0,0,.925-8.581,37.078,37.078,0,0,0-7.74-4.261,3.122,3.122,0,0,1-1.918-1.953C173.772,79.978,170.039,68.438,168.841,66.012Z" transform="translate(154.517 0)" fill="#093f68"/>
    <path id="Path_432" data-name="Path 432" d="M159.62,70.17s-11.1,15.861-4.349,15.861,11.815-7.072,11.815-7.072-4.555,7.309,0,12.487" transform="translate(162.471 20.017)" fill="#ffc9b0"/>
    <path id="Path_433" data-name="Path 433" d="M169.418,96.453a3.638,3.638,0,0,1-2.706-1.154,10.407,10.407,0,0,1-2.637-5.918A15.393,15.393,0,0,1,157.6,90.89a5.5,5.5,0,0,1-4.795-2.308c-2.569-3.906,1.986-11.836,6.233-18.05a3.749,3.749,0,0,1,4.692-.977,2.742,2.742,0,0,1,1.164,4.054,42.863,42.863,0,0,0-5.925,11.215,15.438,15.438,0,0,0,7.534-5.534,3.752,3.752,0,0,1,4.6-.974,2.757,2.757,0,0,1,1.321,3.933s-3.425,5.741-.274,9.321a2.7,2.7,0,0,1-.651,4.143A3.728,3.728,0,0,1,169.418,96.453ZM158.87,86.066Z" transform="translate(159.967 17.97)" fill="#093f68"/>
  </g>
</svg>
